%TF.GenerationSoftware,Altium Limited,Altium Designer,26.2.0 (7)*%
G04 Layer_Color=8388736*
%FSLAX26Y26*%
%MOIN*%
%TF.SameCoordinates,BFFBF56A-88E4-4E4F-BB2B-E6BA23CB032A*%
%TF.FilePolarity,Negative*%
%TF.FileFunction,Soldermask,Top*%
%TF.Part,Single*%
G01*
G75*
%TA.AperFunction,SMDPad,CuDef*%
%ADD10R,0.062992X0.098425*%
%ADD12R,0.086614X0.169291*%
%ADD14R,0.035433X0.047244*%
%ADD15R,0.098425X0.137795*%
%ADD16R,0.055118X0.037402*%
%ADD18R,0.037594X0.053394*%
%ADD19R,0.045450X0.053394*%
%TA.AperFunction,ComponentPad*%
%ADD29R,0.055118X0.055118*%
%ADD30C,0.055118*%
%ADD31C,0.043307*%
%ADD35C,0.072835*%
%ADD36C,0.055669*%
%ADD37R,0.055669X0.055669*%
%ADD40R,0.072835X0.072835*%
%ADD41R,0.072835X0.072835*%
%TA.AperFunction,ViaPad*%
%ADD44C,0.032000*%
%TA.AperFunction,SMDPad,CuDef*%
%ADD74R,0.070992X0.145795*%
%ADD75R,0.043433X0.039496*%
%ADD76R,0.061150X0.051307*%
%ADD77R,0.051307X0.051307*%
%TA.AperFunction,ComponentPad*%
%ADD78R,0.154331X0.154331*%
%ADD79O,0.055276X0.102520*%
%ADD80C,0.154331*%
%ADD81R,0.067055X0.165480*%
%ADD82C,0.074929*%
%ADD83C,0.070992*%
%ADD84R,0.074929X0.074929*%
%ADD85R,0.070992X0.070992*%
%ADD86R,0.067055X0.145795*%
%ADD87R,0.145795X0.067055*%
%TA.AperFunction,ViaPad*%
%ADD88C,0.040000*%
D10*
X2870000Y602205D02*
D03*
Y740000D02*
D03*
D12*
X1225000Y933228D02*
D03*
Y586772D02*
D03*
D14*
X1338661Y1980000D02*
D03*
X1421339D02*
D03*
D15*
X1840000Y597047D02*
D03*
Y852953D02*
D03*
D16*
X2940000Y2676417D02*
D03*
Y2960000D02*
D03*
Y2887165D02*
D03*
Y2603583D02*
D03*
D18*
X1630537Y1680000D02*
D03*
X1569463D02*
D03*
D19*
X1626610Y1390000D02*
D03*
X1573390D02*
D03*
D29*
X3650000Y890000D02*
D03*
X3200000Y1606850D02*
D03*
Y2308425D02*
D03*
X3650000Y1608425D02*
D03*
X3200000Y886850D02*
D03*
X3660000Y2305276D02*
D03*
D30*
X3650000Y791575D02*
D03*
Y693150D02*
D03*
Y594724D02*
D03*
X3200000Y1311575D02*
D03*
Y1508425D02*
D03*
Y1410000D02*
D03*
Y2013150D02*
D03*
Y2210000D02*
D03*
Y2111575D02*
D03*
X3650000Y1313150D02*
D03*
Y1510000D02*
D03*
Y1411575D02*
D03*
X3660000Y2206850D02*
D03*
Y2108425D02*
D03*
X3200000Y690000D02*
D03*
X3660000Y2010000D02*
D03*
X3200000Y591575D02*
D03*
Y788425D02*
D03*
D31*
X3571260Y952992D02*
D03*
X3121260Y1669842D02*
D03*
Y2371417D02*
D03*
X3571260Y1671417D02*
D03*
X3581260Y2368268D02*
D03*
X3121260Y949842D02*
D03*
D35*
X1512244Y2300000D02*
D03*
X1520000Y3740000D02*
D03*
Y3020000D02*
D03*
X2300000Y3147756D02*
D03*
X2400000D02*
D03*
X1520000Y3120000D02*
D03*
Y3840000D02*
D03*
X1512244Y2400000D02*
D03*
D36*
X2100000Y2417500D02*
D03*
X2700000Y2617500D02*
D03*
Y1617500D02*
D03*
Y1917500D02*
D03*
Y2717500D02*
D03*
Y2517500D02*
D03*
Y2417500D02*
D03*
Y2317500D02*
D03*
Y2217500D02*
D03*
Y2117500D02*
D03*
Y2017500D02*
D03*
Y1817500D02*
D03*
Y1717500D02*
D03*
Y1517500D02*
D03*
Y1417500D02*
D03*
Y1317500D02*
D03*
X2100000D02*
D03*
Y1417500D02*
D03*
Y1517500D02*
D03*
Y1617500D02*
D03*
Y1717500D02*
D03*
Y1817500D02*
D03*
Y1917500D02*
D03*
Y2017500D02*
D03*
Y2117500D02*
D03*
Y2217500D02*
D03*
Y2317500D02*
D03*
Y2517500D02*
D03*
Y2617500D02*
D03*
D37*
Y2717500D02*
D03*
D40*
X2500000Y3147756D02*
D03*
D41*
X1520000Y3220000D02*
D03*
Y3940000D02*
D03*
X1512244Y2500000D02*
D03*
D44*
X850000Y1920000D02*
D03*
X2865000Y2675000D02*
D03*
X2860000Y2960000D02*
D03*
X3085000Y2675000D02*
D03*
X3080000Y2950000D02*
D03*
D74*
X595000Y895236D02*
D03*
Y674764D02*
D03*
D75*
X700000Y1924606D02*
D03*
Y1875394D02*
D03*
D76*
X3160000Y2675118D02*
D03*
Y2947559D02*
D03*
Y2892441D02*
D03*
Y2620000D02*
D03*
D77*
X765433Y1640000D02*
D03*
X694567D02*
D03*
D78*
X3515984Y3503780D02*
D03*
X2587480D02*
D03*
D79*
X3108504Y3740000D02*
D03*
X3640000D02*
D03*
X2180000D02*
D03*
X2711496D02*
D03*
D80*
X3232520Y3503780D02*
D03*
X2304016D02*
D03*
D81*
X1078110Y3125039D02*
D03*
Y3825039D02*
D03*
X1076220Y2400000D02*
D03*
D82*
X1020000Y1439213D02*
D03*
Y1573071D02*
D03*
X1170000Y1640000D02*
D03*
Y1506142D02*
D03*
D83*
X520000Y1380000D02*
D03*
D84*
X1020000Y1706929D02*
D03*
D85*
X720000Y1380000D02*
D03*
D86*
X841890Y3125039D02*
D03*
Y3825039D02*
D03*
X840000Y2400000D02*
D03*
D87*
X960000Y3640000D02*
D03*
Y2940000D02*
D03*
X958110Y2214961D02*
D03*
D88*
X2870000Y460000D02*
D03*
X715000Y1169055D02*
D03*
X595000D02*
D03*
X476148Y1163852D02*
D03*
X3681306Y3553083D02*
D03*
X3786306D02*
D03*
X3681306Y3453083D02*
D03*
X3786306D02*
D03*
X3681306Y3343083D02*
D03*
X3786306D02*
D03*
X3681306Y3243083D02*
D03*
X3786306D02*
D03*
X3471306Y3343083D02*
D03*
X3576306D02*
D03*
X3471306Y3243083D02*
D03*
X3576306D02*
D03*
X1345000Y1100000D02*
D03*
X1225000D02*
D03*
X1105000D02*
D03*
X1020000Y1360000D02*
D03*
Y1240000D02*
D03*
Y1300000D02*
D03*
X3045000Y3555000D02*
D03*
X2940000D02*
D03*
Y3455000D02*
D03*
X3045000D02*
D03*
Y3345000D02*
D03*
X2940000D02*
D03*
Y3245000D02*
D03*
X3045000D02*
D03*
X3255000D02*
D03*
X3150000D02*
D03*
X3255000Y3345000D02*
D03*
X3150000D02*
D03*
X2000000Y3175000D02*
D03*
X2105000D02*
D03*
X2000000Y3075000D02*
D03*
X2105000D02*
D03*
X475000Y405000D02*
D03*
X595000D02*
D03*
X715000D02*
D03*
X1225000Y420000D02*
D03*
X1105000D02*
D03*
X520092Y1540499D02*
D03*
X890000Y1570000D02*
D03*
X1260000Y1980000D02*
D03*
X1345000Y420000D02*
D03*
X1840000Y425000D02*
D03*
X1675000Y2305000D02*
D03*
X1780000D02*
D03*
X1675000Y2205000D02*
D03*
X1780000D02*
D03*
Y2925000D02*
D03*
X1675000D02*
D03*
X1780000Y3025000D02*
D03*
X1675000D02*
D03*
X1765000Y3640000D02*
D03*
X1660000D02*
D03*
X1765000Y3740000D02*
D03*
X1660000D02*
D03*
X1832344Y1152115D02*
D03*
X1932344D02*
D03*
Y1252115D02*
D03*
Y1352115D02*
D03*
X1832344D02*
D03*
Y1252115D02*
D03*
%TF.MD5,34838b551406b3493f472804727c93fc*%
M02*
