%TF.GenerationSoftware,Altium Limited,Altium Designer,26.2.0 (7)*%
G04 Layer_Color=8421504*
%FSLAX26Y26*%
%MOIN*%
%TF.SameCoordinates,BFFBF56A-88E4-4E4F-BB2B-E6BA23CB032A*%
%TF.FilePolarity,Positive*%
%TF.FileFunction,Paste,Top*%
%TF.Part,Single*%
G01*
G75*
%TA.AperFunction,SMDPad,CuDef*%
%ADD10R,0.062992X0.098425*%
%ADD11R,0.062992X0.137795*%
%ADD12R,0.086614X0.169291*%
%ADD13R,0.035433X0.031496*%
%ADD14R,0.035433X0.047244*%
%ADD15R,0.098425X0.137795*%
%ADD16R,0.055118X0.037402*%
%ADD17R,0.053150X0.043307*%
%ADD18R,0.037594X0.053394*%
%ADD19R,0.045450X0.053394*%
%ADD20R,0.043307X0.043307*%
D10*
X2870000Y602205D02*
D03*
Y740000D02*
D03*
D11*
X595000Y895236D02*
D03*
Y674764D02*
D03*
D12*
X1225000Y933228D02*
D03*
Y586772D02*
D03*
D13*
X700000Y1924606D02*
D03*
Y1875394D02*
D03*
D14*
X1338661Y1980000D02*
D03*
X1421339D02*
D03*
D15*
X1840000Y597047D02*
D03*
Y852953D02*
D03*
D16*
X2940000Y2676417D02*
D03*
Y2960000D02*
D03*
Y2887165D02*
D03*
Y2603583D02*
D03*
D17*
X3160000Y2675118D02*
D03*
Y2947559D02*
D03*
Y2892441D02*
D03*
Y2620000D02*
D03*
D18*
X1630537Y1680000D02*
D03*
X1569463D02*
D03*
D19*
X1626610Y1390000D02*
D03*
X1573390D02*
D03*
D20*
X765433Y1640000D02*
D03*
X694567D02*
D03*
%TF.MD5,683771886f28c5b0747185c1f59887a5*%
M02*
