%TF.GenerationSoftware,Altium Limited,Altium Designer,26.2.0 (7)*%
G04 Layer_Physical_Order=4*
G04 Layer_Color=16711680*
%FSLAX26Y26*%
%MOIN*%
%TF.SameCoordinates,BFFBF56A-88E4-4E4F-BB2B-E6BA23CB032A*%
%TF.FilePolarity,Positive*%
%TF.FileFunction,Copper,L4,Bot,Signal*%
%TF.Part,Single*%
G01*
G75*
%TA.AperFunction,ComponentPad*%
%ADD26R,0.146299X0.146299*%
%ADD27O,0.047244X0.094488*%
%ADD28C,0.146299*%
%ADD29R,0.055118X0.055118*%
%ADD30C,0.055118*%
%ADD31C,0.043307*%
%ADD32R,0.059055X0.157480*%
%ADD33C,0.066929*%
%ADD34C,0.062992*%
%ADD35C,0.072835*%
%ADD36C,0.055669*%
%ADD37R,0.055669X0.055669*%
%ADD38R,0.066929X0.066929*%
%ADD39R,0.062992X0.062992*%
%ADD40R,0.072835X0.072835*%
%ADD41R,0.072835X0.072835*%
%ADD42R,0.059055X0.137795*%
%ADD43R,0.137795X0.059055*%
%TA.AperFunction,ViaPad*%
%ADD44C,0.032000*%
%ADD45C,0.024000*%
G36*
X3900000Y300000D02*
X300000D01*
Y4250000D01*
X3900000D01*
Y300000D01*
D02*
G37*
%LPC*%
G36*
X1117638Y3913780D02*
X1083110D01*
Y3830039D01*
X1117638D01*
Y3913780D01*
D02*
G37*
G36*
X1073110D02*
X1038583D01*
Y3830039D01*
X1073110D01*
Y3913780D01*
D02*
G37*
G36*
X881417Y3903937D02*
X802362D01*
Y3746142D01*
X881417D01*
Y3903937D01*
D02*
G37*
G36*
X1117638Y3820039D02*
X1083110D01*
Y3736299D01*
X1117638D01*
Y3820039D01*
D02*
G37*
G36*
X1073110D02*
X1038583D01*
Y3736299D01*
X1073110D01*
Y3820039D01*
D02*
G37*
G36*
X3640000Y3797534D02*
X3631223Y3796379D01*
X3623044Y3792991D01*
X3616021Y3787602D01*
X3610631Y3780578D01*
X3607243Y3772399D01*
X3606088Y3763622D01*
Y3716378D01*
X3607243Y3707601D01*
X3610631Y3699422D01*
X3616021Y3692398D01*
X3623044Y3687009D01*
X3631223Y3683621D01*
X3640000Y3682466D01*
X3648777Y3683621D01*
X3656956Y3687009D01*
X3663979Y3692398D01*
X3669369Y3699422D01*
X3672757Y3707601D01*
X3673912Y3716378D01*
Y3763622D01*
X3672757Y3772399D01*
X3669369Y3780578D01*
X3663979Y3787602D01*
X3656956Y3792991D01*
X3648777Y3796379D01*
X3640000Y3797534D01*
D02*
G37*
G36*
X3108504D02*
X3099727Y3796379D01*
X3091548Y3792991D01*
X3084524Y3787602D01*
X3079135Y3780578D01*
X3075747Y3772399D01*
X3074592Y3763622D01*
Y3716378D01*
X3075747Y3707601D01*
X3079135Y3699422D01*
X3084524Y3692398D01*
X3091548Y3687009D01*
X3099727Y3683621D01*
X3108504Y3682466D01*
X3117281Y3683621D01*
X3125460Y3687009D01*
X3132483Y3692398D01*
X3137873Y3699422D01*
X3141261Y3707601D01*
X3142416Y3716378D01*
Y3763622D01*
X3141261Y3772399D01*
X3137873Y3780578D01*
X3132483Y3787602D01*
X3125460Y3792991D01*
X3117281Y3796379D01*
X3108504Y3797534D01*
D02*
G37*
G36*
X2711496D02*
X2702719Y3796379D01*
X2694540Y3792991D01*
X2687517Y3787602D01*
X2682127Y3780578D01*
X2678739Y3772399D01*
X2677584Y3763622D01*
Y3716378D01*
X2678739Y3707601D01*
X2682127Y3699422D01*
X2687517Y3692398D01*
X2694540Y3687009D01*
X2702719Y3683621D01*
X2711496Y3682466D01*
X2720273Y3683621D01*
X2728452Y3687009D01*
X2735476Y3692398D01*
X2740865Y3699422D01*
X2744253Y3707601D01*
X2745408Y3716378D01*
Y3763622D01*
X2744253Y3772399D01*
X2740865Y3780578D01*
X2735476Y3787602D01*
X2728452Y3792991D01*
X2720273Y3796379D01*
X2711496Y3797534D01*
D02*
G37*
G36*
X2180000D02*
X2171223Y3796379D01*
X2163044Y3792991D01*
X2156021Y3787602D01*
X2150631Y3780578D01*
X2147243Y3772399D01*
X2146088Y3763622D01*
Y3716378D01*
X2147243Y3707601D01*
X2150631Y3699422D01*
X2156021Y3692398D01*
X2163044Y3687009D01*
X2171223Y3683621D01*
X2180000Y3682466D01*
X2188777Y3683621D01*
X2196956Y3687009D01*
X2203979Y3692398D01*
X2209369Y3699422D01*
X2212757Y3707601D01*
X2213912Y3716378D01*
Y3763622D01*
X2212757Y3772399D01*
X2209369Y3780578D01*
X2203979Y3787602D01*
X2196956Y3792991D01*
X2188777Y3796379D01*
X2180000Y3797534D01*
D02*
G37*
G36*
X1038898Y3679528D02*
X881102D01*
Y3600472D01*
X1038898D01*
Y3679528D01*
D02*
G37*
G36*
X1566417Y3986417D02*
X1473583D01*
Y3893583D01*
X1501994D01*
X1503310Y3883583D01*
X1502084Y3883254D01*
X1491499Y3877143D01*
X1482857Y3868501D01*
X1476746Y3857916D01*
X1473583Y3846111D01*
Y3833889D01*
X1476746Y3822084D01*
X1480723Y3815196D01*
X1475895Y3805196D01*
X1417500D01*
X1413598Y3804420D01*
X1410290Y3802210D01*
X1408080Y3798902D01*
X1407304Y3795000D01*
Y3780000D01*
Y3595000D01*
X1408080Y3591098D01*
X1410290Y3587790D01*
X1413598Y3585580D01*
X1417500Y3584804D01*
X1825000D01*
X1828902Y3585580D01*
X1832210Y3587790D01*
X1834420Y3591098D01*
X1835196Y3595000D01*
Y3795000D01*
X1834420Y3798902D01*
X1832210Y3802210D01*
X1828902Y3804420D01*
X1825000Y3805196D01*
X1564105D01*
X1559277Y3815196D01*
X1563254Y3822084D01*
X1566417Y3833889D01*
Y3846111D01*
X1563254Y3857916D01*
X1557143Y3868501D01*
X1548501Y3877143D01*
X1537916Y3883254D01*
X1536690Y3883583D01*
X1538006Y3893583D01*
X1566417D01*
Y3986417D01*
D02*
G37*
G36*
X3791306Y3578661D02*
Y3558083D01*
X3811883D01*
X3810534Y3563119D01*
X3807111Y3569048D01*
X3802270Y3573889D01*
X3796341Y3577312D01*
X3791306Y3578661D01*
D02*
G37*
G36*
X3781306D02*
X3776270Y3577312D01*
X3770341Y3573889D01*
X3765500Y3569048D01*
X3762077Y3563119D01*
X3760728Y3558083D01*
X3781306D01*
Y3578661D01*
D02*
G37*
G36*
X3686306D02*
Y3558083D01*
X3706883D01*
X3705534Y3563119D01*
X3702111Y3569048D01*
X3697270Y3573889D01*
X3691341Y3577312D01*
X3686306Y3578661D01*
D02*
G37*
G36*
X3676306D02*
X3671270Y3577312D01*
X3665341Y3573889D01*
X3660500Y3569048D01*
X3657077Y3563119D01*
X3655728Y3558083D01*
X3676306D01*
Y3578661D01*
D02*
G37*
G36*
X3811883Y3548083D02*
X3791306D01*
Y3527506D01*
X3796341Y3528855D01*
X3802270Y3532278D01*
X3807111Y3537119D01*
X3810534Y3543048D01*
X3811883Y3548083D01*
D02*
G37*
G36*
X3781306D02*
X3760728D01*
X3762077Y3543048D01*
X3765500Y3537119D01*
X3770341Y3532278D01*
X3776270Y3528855D01*
X3781306Y3527506D01*
Y3548083D01*
D02*
G37*
G36*
X3706883D02*
X3686306D01*
Y3527506D01*
X3691341Y3528855D01*
X3697270Y3532278D01*
X3702111Y3537119D01*
X3705534Y3543048D01*
X3706883Y3548083D01*
D02*
G37*
G36*
X3676306D02*
X3655728D01*
X3657077Y3543048D01*
X3660500Y3537119D01*
X3665341Y3532278D01*
X3671270Y3528855D01*
X3676306Y3527506D01*
Y3548083D01*
D02*
G37*
G36*
X3599134Y3586929D02*
X3520984D01*
Y3508780D01*
X3599134D01*
Y3586929D01*
D02*
G37*
G36*
X3510984D02*
X3432835D01*
Y3508780D01*
X3510984D01*
Y3586929D01*
D02*
G37*
G36*
X2670630D02*
X2592480D01*
Y3508780D01*
X2670630D01*
Y3586929D01*
D02*
G37*
G36*
X2582480D02*
X2504331D01*
Y3508780D01*
X2582480D01*
Y3586929D01*
D02*
G37*
G36*
X3791306Y3478661D02*
Y3458083D01*
X3811883D01*
X3810534Y3463119D01*
X3807111Y3469048D01*
X3802270Y3473889D01*
X3796341Y3477312D01*
X3791306Y3478661D01*
D02*
G37*
G36*
X3781306D02*
X3776270Y3477312D01*
X3770341Y3473889D01*
X3765500Y3469048D01*
X3762077Y3463119D01*
X3760728Y3458083D01*
X3781306D01*
Y3478661D01*
D02*
G37*
G36*
X3686306D02*
Y3458083D01*
X3706883D01*
X3705534Y3463119D01*
X3702111Y3469048D01*
X3697270Y3473889D01*
X3691341Y3477312D01*
X3686306Y3478661D01*
D02*
G37*
G36*
X3676306D02*
X3671270Y3477312D01*
X3665341Y3473889D01*
X3660500Y3469048D01*
X3657077Y3463119D01*
X3655728Y3458083D01*
X3676306D01*
Y3478661D01*
D02*
G37*
G36*
X3811883Y3448083D02*
X3791306D01*
Y3427506D01*
X3796341Y3428855D01*
X3802270Y3432278D01*
X3807111Y3437119D01*
X3810534Y3443048D01*
X3811883Y3448083D01*
D02*
G37*
G36*
X3781306D02*
X3760728D01*
X3762077Y3443048D01*
X3765500Y3437119D01*
X3770341Y3432278D01*
X3776270Y3428855D01*
X3781306Y3427506D01*
Y3448083D01*
D02*
G37*
G36*
X3706883D02*
X3686306D01*
Y3427506D01*
X3691341Y3428855D01*
X3697270Y3432278D01*
X3702111Y3437119D01*
X3705534Y3443048D01*
X3706883Y3448083D01*
D02*
G37*
G36*
X3676306D02*
X3655728D01*
X3657077Y3443048D01*
X3660500Y3437119D01*
X3665341Y3432278D01*
X3671270Y3428855D01*
X3676306Y3427506D01*
Y3448083D01*
D02*
G37*
G36*
X3599134Y3498780D02*
X3520984D01*
Y3420630D01*
X3599134D01*
Y3498780D01*
D02*
G37*
G36*
X3510984D02*
X3432835D01*
Y3420630D01*
X3510984D01*
Y3498780D01*
D02*
G37*
G36*
X2670630D02*
X2592480D01*
Y3420630D01*
X2670630D01*
Y3498780D01*
D02*
G37*
G36*
X2582480D02*
X2504331D01*
Y3420630D01*
X2582480D01*
Y3498780D01*
D02*
G37*
G36*
X2312205Y3586929D02*
X2295826D01*
X2279762Y3583734D01*
X2264630Y3577466D01*
X2251011Y3568366D01*
X2239429Y3556784D01*
X2230329Y3543166D01*
X2224061Y3528033D01*
X2220866Y3511969D01*
Y3495590D01*
X2224061Y3479526D01*
X2230329Y3464393D01*
X2239429Y3450775D01*
X2251011Y3439193D01*
X2264630Y3430093D01*
X2279762Y3423825D01*
X2295826Y3420630D01*
X2312205D01*
X2328269Y3423825D01*
X2343402Y3430093D01*
X2357021Y3439193D01*
X2368602Y3450775D01*
X2377702Y3464393D01*
X2383970Y3479526D01*
X2387165Y3495590D01*
Y3511969D01*
X2383970Y3528033D01*
X2377702Y3543166D01*
X2368602Y3556784D01*
X2357021Y3568366D01*
X2343402Y3577466D01*
X2328269Y3583734D01*
X2312205Y3586929D01*
D02*
G37*
G36*
X3791306Y3368661D02*
Y3348083D01*
X3811883D01*
X3810534Y3353119D01*
X3807111Y3359048D01*
X3802270Y3363889D01*
X3796341Y3367312D01*
X3791306Y3368661D01*
D02*
G37*
G36*
X3781306D02*
X3776270Y3367312D01*
X3770341Y3363889D01*
X3765500Y3359048D01*
X3762077Y3353119D01*
X3760728Y3348083D01*
X3781306D01*
Y3368661D01*
D02*
G37*
G36*
X3686306D02*
Y3348083D01*
X3706883D01*
X3705534Y3353119D01*
X3702111Y3359048D01*
X3697270Y3363889D01*
X3691341Y3367312D01*
X3686306Y3368661D01*
D02*
G37*
G36*
X3676306D02*
X3671270Y3367312D01*
X3665341Y3363889D01*
X3660500Y3359048D01*
X3657077Y3353119D01*
X3655728Y3348083D01*
X3676306D01*
Y3368661D01*
D02*
G37*
G36*
X3581306D02*
Y3348083D01*
X3601883D01*
X3600534Y3353119D01*
X3597111Y3359048D01*
X3592270Y3363889D01*
X3586341Y3367312D01*
X3581306Y3368661D01*
D02*
G37*
G36*
X3571306D02*
X3566270Y3367312D01*
X3560341Y3363889D01*
X3555500Y3359048D01*
X3552077Y3353119D01*
X3550728Y3348083D01*
X3571306D01*
Y3368661D01*
D02*
G37*
G36*
X3476306D02*
Y3348083D01*
X3496883D01*
X3495534Y3353119D01*
X3492111Y3359048D01*
X3487270Y3363889D01*
X3481341Y3367312D01*
X3476306Y3368661D01*
D02*
G37*
G36*
X3466306D02*
X3461270Y3367312D01*
X3455341Y3363889D01*
X3450500Y3359048D01*
X3447077Y3353119D01*
X3445728Y3348083D01*
X3466306D01*
Y3368661D01*
D02*
G37*
G36*
X3811883Y3338083D02*
X3791306D01*
Y3317506D01*
X3796341Y3318855D01*
X3802270Y3322278D01*
X3807111Y3327119D01*
X3810534Y3333048D01*
X3811883Y3338083D01*
D02*
G37*
G36*
X3781306D02*
X3760728D01*
X3762077Y3333048D01*
X3765500Y3327119D01*
X3770341Y3322278D01*
X3776270Y3318855D01*
X3781306Y3317506D01*
Y3338083D01*
D02*
G37*
G36*
X3706883D02*
X3686306D01*
Y3317506D01*
X3691341Y3318855D01*
X3697270Y3322278D01*
X3702111Y3327119D01*
X3705534Y3333048D01*
X3706883Y3338083D01*
D02*
G37*
G36*
X3676306D02*
X3655728D01*
X3657077Y3333048D01*
X3660500Y3327119D01*
X3665341Y3322278D01*
X3671270Y3318855D01*
X3676306Y3317506D01*
Y3338083D01*
D02*
G37*
G36*
X3601883D02*
X3581306D01*
Y3317506D01*
X3586341Y3318855D01*
X3592270Y3322278D01*
X3597111Y3327119D01*
X3600534Y3333048D01*
X3601883Y3338083D01*
D02*
G37*
G36*
X3571306D02*
X3550728D01*
X3552077Y3333048D01*
X3555500Y3327119D01*
X3560341Y3322278D01*
X3566270Y3318855D01*
X3571306Y3317506D01*
Y3338083D01*
D02*
G37*
G36*
X3496883D02*
X3476306D01*
Y3317506D01*
X3481341Y3318855D01*
X3487270Y3322278D01*
X3492111Y3327119D01*
X3495534Y3333048D01*
X3496883Y3338083D01*
D02*
G37*
G36*
X3466306D02*
X3445728D01*
X3447077Y3333048D01*
X3450500Y3327119D01*
X3455341Y3322278D01*
X3461270Y3318855D01*
X3466306Y3317506D01*
Y3338083D01*
D02*
G37*
G36*
X3791306Y3268661D02*
Y3248083D01*
X3811883D01*
X3810534Y3253119D01*
X3807111Y3259048D01*
X3802270Y3263889D01*
X3796341Y3267312D01*
X3791306Y3268661D01*
D02*
G37*
G36*
X3781306D02*
X3776270Y3267312D01*
X3770341Y3263889D01*
X3765500Y3259048D01*
X3762077Y3253119D01*
X3760728Y3248083D01*
X3781306D01*
Y3268661D01*
D02*
G37*
G36*
X3686306D02*
Y3248083D01*
X3706883D01*
X3705534Y3253119D01*
X3702111Y3259048D01*
X3697270Y3263889D01*
X3691341Y3267312D01*
X3686306Y3268661D01*
D02*
G37*
G36*
X3676306D02*
X3671270Y3267312D01*
X3665341Y3263889D01*
X3660500Y3259048D01*
X3657077Y3253119D01*
X3655728Y3248083D01*
X3676306D01*
Y3268661D01*
D02*
G37*
G36*
X3581306D02*
Y3248083D01*
X3601883D01*
X3600534Y3253119D01*
X3597111Y3259048D01*
X3592270Y3263889D01*
X3586341Y3267312D01*
X3581306Y3268661D01*
D02*
G37*
G36*
X3571306D02*
X3566270Y3267312D01*
X3560341Y3263889D01*
X3555500Y3259048D01*
X3552077Y3253119D01*
X3550728Y3248083D01*
X3571306D01*
Y3268661D01*
D02*
G37*
G36*
X3476306D02*
Y3248083D01*
X3496883D01*
X3495534Y3253119D01*
X3492111Y3259048D01*
X3487270Y3263889D01*
X3481341Y3267312D01*
X3476306Y3268661D01*
D02*
G37*
G36*
X3466306D02*
X3461270Y3267312D01*
X3455341Y3263889D01*
X3450500Y3259048D01*
X3447077Y3253119D01*
X3445728Y3248083D01*
X3466306D01*
Y3268661D01*
D02*
G37*
G36*
X3811883Y3238083D02*
X3791306D01*
Y3217506D01*
X3796341Y3218855D01*
X3802270Y3222278D01*
X3807111Y3227119D01*
X3810534Y3233048D01*
X3811883Y3238083D01*
D02*
G37*
G36*
X3781306D02*
X3760728D01*
X3762077Y3233048D01*
X3765500Y3227119D01*
X3770341Y3222278D01*
X3776270Y3218855D01*
X3781306Y3217506D01*
Y3238083D01*
D02*
G37*
G36*
X3706883D02*
X3686306D01*
Y3217506D01*
X3691341Y3218855D01*
X3697270Y3222278D01*
X3702111Y3227119D01*
X3705534Y3233048D01*
X3706883Y3238083D01*
D02*
G37*
G36*
X3676306D02*
X3655728D01*
X3657077Y3233048D01*
X3660500Y3227119D01*
X3665341Y3222278D01*
X3671270Y3218855D01*
X3676306Y3217506D01*
Y3238083D01*
D02*
G37*
G36*
X3601883D02*
X3581306D01*
Y3217506D01*
X3586341Y3218855D01*
X3592270Y3222278D01*
X3597111Y3227119D01*
X3600534Y3233048D01*
X3601883Y3238083D01*
D02*
G37*
G36*
X3571306D02*
X3550728D01*
X3552077Y3233048D01*
X3555500Y3227119D01*
X3560341Y3222278D01*
X3566270Y3218855D01*
X3571306Y3217506D01*
Y3238083D01*
D02*
G37*
G36*
X3496883D02*
X3476306D01*
Y3217506D01*
X3481341Y3218855D01*
X3487270Y3222278D01*
X3492111Y3227119D01*
X3495534Y3233048D01*
X3496883Y3238083D01*
D02*
G37*
G36*
X3466306D02*
X3445728D01*
X3447077Y3233048D01*
X3450500Y3227119D01*
X3455341Y3222278D01*
X3461270Y3218855D01*
X3466306Y3217506D01*
Y3238083D01*
D02*
G37*
G36*
X3338996Y3620196D02*
X2871004D01*
X2870019Y3620000D01*
X2869015D01*
X2868178Y3619833D01*
X2867250Y3619449D01*
X2867102Y3619420D01*
X2866977Y3619336D01*
X2864502Y3618311D01*
X2861689Y3615498D01*
X2860664Y3613023D01*
X2860580Y3612898D01*
X2860551Y3612750D01*
X2860167Y3611823D01*
X2860000Y3610985D01*
Y3609981D01*
X2859804Y3608996D01*
Y3181004D01*
X2860000Y3180019D01*
Y3179015D01*
X2860167Y3178178D01*
X2860551Y3177250D01*
X2860580Y3177102D01*
X2860664Y3176977D01*
X2861689Y3174502D01*
X2864502Y3171689D01*
X2866977Y3170664D01*
X2867102Y3170580D01*
X2867250Y3170551D01*
X2868177Y3170167D01*
X2869015Y3170000D01*
X2870019D01*
X2871004Y3169804D01*
X3338996D01*
X3339981Y3170000D01*
X3340985D01*
X3341822Y3170167D01*
X3342750Y3170551D01*
X3342898Y3170580D01*
X3343023Y3170664D01*
X3345498Y3171689D01*
X3348311Y3174502D01*
X3349336Y3176977D01*
X3349420Y3177102D01*
X3349449Y3177250D01*
X3349833Y3178177D01*
X3350000Y3179015D01*
Y3180019D01*
X3350196Y3181004D01*
Y3608996D01*
X3350000Y3609981D01*
Y3610985D01*
X3349833Y3611822D01*
X3349449Y3612750D01*
X3349420Y3612898D01*
X3349336Y3613023D01*
X3348311Y3615498D01*
X3345498Y3618311D01*
X3343023Y3619336D01*
X3342898Y3619420D01*
X3342750Y3619449D01*
X3341823Y3619833D01*
X3340985Y3620000D01*
X3339981D01*
X3338996Y3620196D01*
D02*
G37*
G36*
X1117638Y3213780D02*
X1083110D01*
Y3130039D01*
X1117638D01*
Y3213780D01*
D02*
G37*
G36*
X1073110D02*
X1038583D01*
Y3130039D01*
X1073110D01*
Y3213780D01*
D02*
G37*
G36*
X2360000Y3230196D02*
X1940000D01*
X1936098Y3229420D01*
X1932790Y3227210D01*
X1930580Y3223902D01*
X1929804Y3220000D01*
Y3020000D01*
X1930580Y3016098D01*
X1932790Y3012790D01*
X1936098Y3010580D01*
X1940000Y3009804D01*
X2360000D01*
X2363902Y3010580D01*
X2367210Y3012790D01*
X2369420Y3016098D01*
X2370196Y3020000D01*
Y3099818D01*
X2380196Y3105592D01*
X2382084Y3104502D01*
X2393889Y3101339D01*
X2406111D01*
X2417916Y3104502D01*
X2428501Y3110613D01*
X2437143Y3119255D01*
X2443254Y3129840D01*
X2443583Y3131066D01*
X2453583Y3129750D01*
Y3101339D01*
X2546417D01*
Y3194173D01*
X2453583D01*
Y3165762D01*
X2443583Y3164446D01*
X2443254Y3165672D01*
X2437143Y3176257D01*
X2428501Y3184899D01*
X2417916Y3191010D01*
X2406111Y3194173D01*
X2393889D01*
X2382084Y3191010D01*
X2380196Y3189920D01*
X2370196Y3195694D01*
Y3220000D01*
X2369420Y3223902D01*
X2367210Y3227210D01*
X2363902Y3229420D01*
X2360000Y3230196D01*
D02*
G37*
G36*
X881417Y3203937D02*
X802362D01*
Y3046142D01*
X881417D01*
Y3203937D01*
D02*
G37*
G36*
X1117638Y3120039D02*
X1083110D01*
Y3036299D01*
X1117638D01*
Y3120039D01*
D02*
G37*
G36*
X1073110D02*
X1038583D01*
Y3036299D01*
X1073110D01*
Y3120039D01*
D02*
G37*
G36*
X2864376Y2982000D02*
X2855624D01*
X2847538Y2978651D01*
X2841349Y2972462D01*
X2838000Y2964376D01*
Y2955624D01*
X2841349Y2947538D01*
X2847538Y2941349D01*
X2855624Y2938000D01*
X2864376D01*
X2872462Y2941349D01*
X2878651Y2947538D01*
X2882000Y2955624D01*
Y2964376D01*
X2878651Y2972462D01*
X2872462Y2978651D01*
X2864376Y2982000D01*
D02*
G37*
G36*
X3084376Y2972000D02*
X3075624D01*
X3067538Y2968651D01*
X3061349Y2962462D01*
X3058000Y2954376D01*
Y2945624D01*
X3061349Y2937538D01*
X3067538Y2931349D01*
X3075624Y2928000D01*
X3084376D01*
X3092462Y2931349D01*
X3098651Y2937538D01*
X3102000Y2945624D01*
Y2954376D01*
X3098651Y2962462D01*
X3092462Y2968651D01*
X3084376Y2972000D01*
D02*
G37*
G36*
X1038898Y2979528D02*
X881102D01*
Y2900472D01*
X1038898D01*
Y2979528D01*
D02*
G37*
G36*
X1566417Y3266417D02*
X1473583D01*
Y3173583D01*
X1501994D01*
X1503310Y3163583D01*
X1502084Y3163254D01*
X1491499Y3157143D01*
X1482857Y3148501D01*
X1476746Y3137916D01*
X1473583Y3126111D01*
Y3113889D01*
X1476746Y3102084D01*
X1477836Y3100196D01*
X1472062Y3090196D01*
X1432500D01*
X1428598Y3089420D01*
X1425290Y3087210D01*
X1423080Y3083902D01*
X1422304Y3080000D01*
Y3065000D01*
Y2880000D01*
X1423080Y2876098D01*
X1425290Y2872790D01*
X1428598Y2870580D01*
X1432500Y2869804D01*
X1840000D01*
X1843902Y2870580D01*
X1847210Y2872790D01*
X1849420Y2876098D01*
X1850196Y2880000D01*
Y3080000D01*
X1849420Y3083902D01*
X1847210Y3087210D01*
X1843902Y3089420D01*
X1840000Y3090196D01*
X1567938D01*
X1562164Y3100196D01*
X1563254Y3102084D01*
X1566417Y3113889D01*
Y3126111D01*
X1563254Y3137916D01*
X1557143Y3148501D01*
X1548501Y3157143D01*
X1537916Y3163254D01*
X1536690Y3163583D01*
X1538006Y3173583D01*
X1566417D01*
Y3266417D01*
D02*
G37*
G36*
X2704981Y2755335D02*
X2695019D01*
X2685396Y2752756D01*
X2676769Y2747775D01*
X2669725Y2740731D01*
X2664744Y2732104D01*
X2662165Y2722481D01*
Y2712519D01*
X2664744Y2702896D01*
X2669725Y2694269D01*
X2676769Y2687225D01*
X2685396Y2682244D01*
X2695019Y2679665D01*
X2704981D01*
X2714604Y2682244D01*
X2723231Y2687225D01*
X2730275Y2694269D01*
X2735256Y2702896D01*
X2737835Y2712519D01*
Y2722481D01*
X2735256Y2732104D01*
X2730275Y2740731D01*
X2723231Y2747775D01*
X2714604Y2752756D01*
X2704981Y2755335D01*
D02*
G37*
G36*
X2137835D02*
X2062165D01*
Y2679665D01*
X2137835D01*
Y2755335D01*
D02*
G37*
G36*
X3089376Y2697000D02*
X3080624D01*
X3072538Y2693651D01*
X3066349Y2687462D01*
X3063000Y2679376D01*
Y2670624D01*
X3066349Y2662538D01*
X3072538Y2656349D01*
X3080624Y2653000D01*
X3089376D01*
X3097462Y2656349D01*
X3103651Y2662538D01*
X3107000Y2670624D01*
Y2679376D01*
X3103651Y2687462D01*
X3097462Y2693651D01*
X3089376Y2697000D01*
D02*
G37*
G36*
X2869376D02*
X2860624D01*
X2852538Y2693651D01*
X2846349Y2687462D01*
X2843000Y2679376D01*
Y2670624D01*
X2846349Y2662538D01*
X2852538Y2656349D01*
X2860624Y2653000D01*
X2869376D01*
X2877462Y2656349D01*
X2883651Y2662538D01*
X2887000Y2670624D01*
Y2679376D01*
X2883651Y2687462D01*
X2877462Y2693651D01*
X2869376Y2697000D01*
D02*
G37*
G36*
X2704981Y2655335D02*
X2695019D01*
X2685396Y2652756D01*
X2676769Y2647775D01*
X2669725Y2640731D01*
X2664744Y2632104D01*
X2662165Y2622481D01*
Y2612519D01*
X2664744Y2602896D01*
X2669725Y2594269D01*
X2676769Y2587225D01*
X2685396Y2582244D01*
X2695019Y2579665D01*
X2704981D01*
X2714604Y2582244D01*
X2723231Y2587225D01*
X2730275Y2594269D01*
X2735256Y2602896D01*
X2737835Y2612519D01*
Y2622481D01*
X2735256Y2632104D01*
X2730275Y2640731D01*
X2723231Y2647775D01*
X2714604Y2652756D01*
X2704981Y2655335D01*
D02*
G37*
G36*
X2104981D02*
X2095019D01*
X2085396Y2652756D01*
X2076769Y2647775D01*
X2069725Y2640731D01*
X2064744Y2632104D01*
X2062165Y2622481D01*
Y2612519D01*
X2064744Y2602896D01*
X2069725Y2594269D01*
X2076769Y2587225D01*
X2085396Y2582244D01*
X2095019Y2579665D01*
X2104981D01*
X2114604Y2582244D01*
X2123231Y2587225D01*
X2130275Y2594269D01*
X2135256Y2602896D01*
X2137835Y2612519D01*
Y2622481D01*
X2135256Y2632104D01*
X2130275Y2640731D01*
X2123231Y2647775D01*
X2114604Y2652756D01*
X2104981Y2655335D01*
D02*
G37*
G36*
X2704981Y2555335D02*
X2695019D01*
X2685396Y2552756D01*
X2676769Y2547775D01*
X2669725Y2540731D01*
X2664744Y2532104D01*
X2662165Y2522481D01*
Y2512519D01*
X2664744Y2502896D01*
X2669725Y2494269D01*
X2676769Y2487225D01*
X2685396Y2482244D01*
X2695019Y2479665D01*
X2704981D01*
X2714604Y2482244D01*
X2723231Y2487225D01*
X2730275Y2494269D01*
X2735256Y2502896D01*
X2737835Y2512519D01*
Y2522481D01*
X2735256Y2532104D01*
X2730275Y2540731D01*
X2723231Y2547775D01*
X2714604Y2552756D01*
X2704981Y2555335D01*
D02*
G37*
G36*
X2104981D02*
X2095019D01*
X2085396Y2552756D01*
X2076769Y2547775D01*
X2069725Y2540731D01*
X2064744Y2532104D01*
X2062165Y2522481D01*
Y2512519D01*
X2064744Y2502896D01*
X2069725Y2494269D01*
X2076769Y2487225D01*
X2085396Y2482244D01*
X2095019Y2479665D01*
X2104981D01*
X2114604Y2482244D01*
X2123231Y2487225D01*
X2130275Y2494269D01*
X2135256Y2502896D01*
X2137835Y2512519D01*
Y2522481D01*
X2135256Y2532104D01*
X2130275Y2540731D01*
X2123231Y2547775D01*
X2114604Y2552756D01*
X2104981Y2555335D01*
D02*
G37*
G36*
X1115748Y2488740D02*
X1081220D01*
Y2405000D01*
X1115748D01*
Y2488740D01*
D02*
G37*
G36*
X1071220D02*
X1036693D01*
Y2405000D01*
X1071220D01*
Y2488740D01*
D02*
G37*
G36*
X2704981Y2455335D02*
X2695019D01*
X2685396Y2452756D01*
X2676769Y2447775D01*
X2669725Y2440731D01*
X2664744Y2432104D01*
X2662165Y2422481D01*
Y2412519D01*
X2664744Y2402896D01*
X2669725Y2394269D01*
X2676769Y2387225D01*
X2685396Y2382244D01*
X2695019Y2379665D01*
X2704981D01*
X2714604Y2382244D01*
X2723231Y2387225D01*
X2730275Y2394269D01*
X2735256Y2402896D01*
X2737835Y2412519D01*
Y2422481D01*
X2735256Y2432104D01*
X2730275Y2440731D01*
X2723231Y2447775D01*
X2714604Y2452756D01*
X2704981Y2455335D01*
D02*
G37*
G36*
X2104981D02*
X2095019D01*
X2085396Y2452756D01*
X2076769Y2447775D01*
X2069725Y2440731D01*
X2064744Y2432104D01*
X2062165Y2422481D01*
Y2412519D01*
X2064744Y2402896D01*
X2069725Y2394269D01*
X2076769Y2387225D01*
X2085396Y2382244D01*
X2095019Y2379665D01*
X2104981D01*
X2114604Y2382244D01*
X2123231Y2387225D01*
X2130275Y2394269D01*
X2135256Y2402896D01*
X2137835Y2412519D01*
Y2422481D01*
X2135256Y2432104D01*
X2130275Y2440731D01*
X2123231Y2447775D01*
X2114604Y2452756D01*
X2104981Y2455335D01*
D02*
G37*
G36*
X3125427Y2403071D02*
X3117093D01*
X3109042Y2400914D01*
X3101824Y2396746D01*
X3095931Y2390853D01*
X3091764Y2383635D01*
X3089606Y2375585D01*
Y2367250D01*
X3091764Y2359200D01*
X3095931Y2351982D01*
X3101824Y2346088D01*
X3109042Y2341921D01*
X3117093Y2339764D01*
X3125427D01*
X3133478Y2341921D01*
X3140695Y2346088D01*
X3146589Y2351982D01*
X3150756Y2359200D01*
X3152913Y2367250D01*
Y2375585D01*
X3150756Y2383635D01*
X3146589Y2390853D01*
X3140695Y2396746D01*
X3133478Y2400914D01*
X3125427Y2403071D01*
D02*
G37*
G36*
X3585427Y2399921D02*
X3577093D01*
X3569042Y2397764D01*
X3561824Y2393597D01*
X3555931Y2387703D01*
X3551764Y2380485D01*
X3549606Y2372435D01*
Y2364100D01*
X3551764Y2356050D01*
X3555931Y2348832D01*
X3561824Y2342939D01*
X3569042Y2338771D01*
X3577093Y2336614D01*
X3585427D01*
X3593478Y2338771D01*
X3600695Y2342939D01*
X3606589Y2348832D01*
X3610756Y2356050D01*
X3612913Y2364100D01*
Y2372435D01*
X3610756Y2380485D01*
X3606589Y2387703D01*
X3600695Y2393597D01*
X3593478Y2397764D01*
X3585427Y2399921D01*
D02*
G37*
G36*
X879528Y2478898D02*
X800472D01*
Y2321102D01*
X879528D01*
Y2478898D01*
D02*
G37*
G36*
X1115748Y2395000D02*
X1081220D01*
Y2311260D01*
X1115748D01*
Y2395000D01*
D02*
G37*
G36*
X1071220D02*
X1036693D01*
Y2311260D01*
X1071220D01*
Y2395000D01*
D02*
G37*
G36*
X2704981Y2355335D02*
X2695019D01*
X2685396Y2352756D01*
X2676769Y2347775D01*
X2669725Y2340731D01*
X2664744Y2332104D01*
X2662165Y2322481D01*
Y2312519D01*
X2664744Y2302896D01*
X2669725Y2294269D01*
X2676769Y2287225D01*
X2685396Y2282244D01*
X2695019Y2279665D01*
X2704981D01*
X2714604Y2282244D01*
X2723231Y2287225D01*
X2730275Y2294269D01*
X2735256Y2302896D01*
X2737835Y2312519D01*
Y2322481D01*
X2735256Y2332104D01*
X2730275Y2340731D01*
X2723231Y2347775D01*
X2714604Y2352756D01*
X2704981Y2355335D01*
D02*
G37*
G36*
X2104981D02*
X2095019D01*
X2085396Y2352756D01*
X2076769Y2347775D01*
X2069725Y2340731D01*
X2064744Y2332104D01*
X2062165Y2322481D01*
Y2312519D01*
X2064744Y2302896D01*
X2069725Y2294269D01*
X2076769Y2287225D01*
X2085396Y2282244D01*
X2095019Y2279665D01*
X2104981D01*
X2114604Y2282244D01*
X2123231Y2287225D01*
X2130275Y2294269D01*
X2135256Y2302896D01*
X2137835Y2312519D01*
Y2322481D01*
X2135256Y2332104D01*
X2130275Y2340731D01*
X2123231Y2347775D01*
X2114604Y2352756D01*
X2104981Y2355335D01*
D02*
G37*
G36*
X3237559Y2345984D02*
X3162441D01*
Y2270866D01*
X3237559D01*
Y2345984D01*
D02*
G37*
G36*
X3697559Y2342835D02*
X3622441D01*
Y2267717D01*
X3697559D01*
Y2342835D01*
D02*
G37*
G36*
X2704981Y2255335D02*
X2695019D01*
X2685396Y2252756D01*
X2676769Y2247775D01*
X2669725Y2240731D01*
X2664744Y2232104D01*
X2662165Y2222481D01*
Y2212519D01*
X2664744Y2202896D01*
X2669725Y2194269D01*
X2676769Y2187225D01*
X2685396Y2182244D01*
X2695019Y2179665D01*
X2704981D01*
X2714604Y2182244D01*
X2723231Y2187225D01*
X2730275Y2194269D01*
X2735256Y2202896D01*
X2737835Y2212519D01*
Y2222481D01*
X2735256Y2232104D01*
X2730275Y2240731D01*
X2723231Y2247775D01*
X2714604Y2252756D01*
X2704981Y2255335D01*
D02*
G37*
G36*
X2104981D02*
X2095019D01*
X2085396Y2252756D01*
X2076769Y2247775D01*
X2069725Y2240731D01*
X2064744Y2232104D01*
X2062165Y2222481D01*
Y2212519D01*
X2064744Y2202896D01*
X2069725Y2194269D01*
X2076769Y2187225D01*
X2085396Y2182244D01*
X2095019Y2179665D01*
X2104981D01*
X2114604Y2182244D01*
X2123231Y2187225D01*
X2130275Y2194269D01*
X2135256Y2202896D01*
X2137835Y2212519D01*
Y2222481D01*
X2135256Y2232104D01*
X2130275Y2240731D01*
X2123231Y2247775D01*
X2114604Y2252756D01*
X2104981Y2255335D01*
D02*
G37*
G36*
X1037008Y2254488D02*
X879213D01*
Y2175433D01*
X1037008D01*
Y2254488D01*
D02*
G37*
G36*
X3204945Y2247559D02*
X3195055D01*
X3185503Y2244999D01*
X3176938Y2240055D01*
X3169945Y2233062D01*
X3165001Y2224497D01*
X3162441Y2214945D01*
Y2205055D01*
X3165001Y2195503D01*
X3169945Y2186938D01*
X3176938Y2179945D01*
X3185503Y2175001D01*
X3195055Y2172441D01*
X3204945D01*
X3214497Y2175001D01*
X3223062Y2179945D01*
X3230055Y2186938D01*
X3234999Y2195503D01*
X3237559Y2205055D01*
Y2214945D01*
X3234999Y2224497D01*
X3230055Y2233062D01*
X3223062Y2240055D01*
X3214497Y2244999D01*
X3204945Y2247559D01*
D02*
G37*
G36*
X3664945Y2244409D02*
X3655055D01*
X3645503Y2241850D01*
X3636938Y2236905D01*
X3629945Y2229912D01*
X3625001Y2221348D01*
X3622441Y2211795D01*
Y2201906D01*
X3625001Y2192353D01*
X3629945Y2183789D01*
X3636938Y2176796D01*
X3645503Y2171851D01*
X3655055Y2169291D01*
X3664945D01*
X3674497Y2171851D01*
X3683062Y2176796D01*
X3690055Y2183789D01*
X3694999Y2192353D01*
X3697559Y2201906D01*
Y2211795D01*
X3694999Y2221348D01*
X3690055Y2229912D01*
X3683062Y2236905D01*
X3674497Y2241850D01*
X3664945Y2244409D01*
D02*
G37*
G36*
X1558661Y2546417D02*
X1465827D01*
Y2453583D01*
X1494238D01*
X1495554Y2443583D01*
X1494328Y2443254D01*
X1483743Y2437143D01*
X1475101Y2428501D01*
X1468990Y2417916D01*
X1465827Y2406111D01*
Y2393889D01*
X1468990Y2382084D01*
X1470080Y2380196D01*
X1464306Y2370196D01*
X1432500D01*
X1428598Y2369420D01*
X1425290Y2367210D01*
X1423080Y2363902D01*
X1422304Y2360000D01*
Y2345000D01*
Y2160000D01*
X1423080Y2156098D01*
X1425290Y2152790D01*
X1428598Y2150580D01*
X1432500Y2149804D01*
X1840000D01*
X1843902Y2150580D01*
X1847210Y2152790D01*
X1849420Y2156098D01*
X1850196Y2160000D01*
Y2360000D01*
X1849420Y2363902D01*
X1847210Y2367210D01*
X1843902Y2369420D01*
X1840000Y2370196D01*
X1560182D01*
X1554408Y2380196D01*
X1555498Y2382084D01*
X1558661Y2393889D01*
Y2406111D01*
X1555498Y2417916D01*
X1549387Y2428501D01*
X1540745Y2437143D01*
X1530160Y2443254D01*
X1528934Y2443583D01*
X1530250Y2453583D01*
X1558661D01*
Y2546417D01*
D02*
G37*
G36*
X2704981Y2155335D02*
X2695019D01*
X2685396Y2152756D01*
X2676769Y2147775D01*
X2669725Y2140731D01*
X2664744Y2132104D01*
X2662165Y2122481D01*
Y2112519D01*
X2664744Y2102896D01*
X2669725Y2094269D01*
X2676769Y2087225D01*
X2685396Y2082244D01*
X2695019Y2079665D01*
X2704981D01*
X2714604Y2082244D01*
X2723231Y2087225D01*
X2730275Y2094269D01*
X2735256Y2102896D01*
X2737835Y2112519D01*
Y2122481D01*
X2735256Y2132104D01*
X2730275Y2140731D01*
X2723231Y2147775D01*
X2714604Y2152756D01*
X2704981Y2155335D01*
D02*
G37*
G36*
X2104981D02*
X2095019D01*
X2085396Y2152756D01*
X2076769Y2147775D01*
X2069725Y2140731D01*
X2064744Y2132104D01*
X2062165Y2122481D01*
Y2112519D01*
X2064744Y2102896D01*
X2069725Y2094269D01*
X2076769Y2087225D01*
X2085396Y2082244D01*
X2095019Y2079665D01*
X2104981D01*
X2114604Y2082244D01*
X2123231Y2087225D01*
X2130275Y2094269D01*
X2135256Y2102896D01*
X2137835Y2112519D01*
Y2122481D01*
X2135256Y2132104D01*
X2130275Y2140731D01*
X2123231Y2147775D01*
X2114604Y2152756D01*
X2104981Y2155335D01*
D02*
G37*
G36*
X3204945Y2149134D02*
X3195055D01*
X3185503Y2146574D01*
X3176938Y2141630D01*
X3169945Y2134637D01*
X3165001Y2126072D01*
X3162441Y2116519D01*
Y2106630D01*
X3165001Y2097078D01*
X3169945Y2088513D01*
X3176938Y2081520D01*
X3185503Y2076575D01*
X3195055Y2074016D01*
X3204945D01*
X3214497Y2076575D01*
X3223062Y2081520D01*
X3230055Y2088513D01*
X3234999Y2097078D01*
X3237559Y2106630D01*
Y2116519D01*
X3234999Y2126072D01*
X3230055Y2134637D01*
X3223062Y2141630D01*
X3214497Y2146574D01*
X3204945Y2149134D01*
D02*
G37*
G36*
X3664945Y2145984D02*
X3655055D01*
X3645503Y2143425D01*
X3636938Y2138480D01*
X3629945Y2131487D01*
X3625001Y2122922D01*
X3622441Y2113370D01*
Y2103481D01*
X3625001Y2093928D01*
X3629945Y2085363D01*
X3636938Y2078370D01*
X3645503Y2073426D01*
X3655055Y2070866D01*
X3664945D01*
X3674497Y2073426D01*
X3683062Y2078370D01*
X3690055Y2085363D01*
X3694999Y2093928D01*
X3697559Y2103481D01*
Y2113370D01*
X3694999Y2122922D01*
X3690055Y2131487D01*
X3683062Y2138480D01*
X3674497Y2143425D01*
X3664945Y2145984D01*
D02*
G37*
G36*
X2704981Y2055335D02*
X2695019D01*
X2685396Y2052756D01*
X2676769Y2047775D01*
X2669725Y2040731D01*
X2664744Y2032104D01*
X2662165Y2022481D01*
Y2012519D01*
X2664744Y2002896D01*
X2669725Y1994269D01*
X2676769Y1987225D01*
X2685396Y1982244D01*
X2695019Y1979665D01*
X2704981D01*
X2714604Y1982244D01*
X2723231Y1987225D01*
X2730275Y1994269D01*
X2735256Y2002896D01*
X2737835Y2012519D01*
Y2022481D01*
X2735256Y2032104D01*
X2730275Y2040731D01*
X2723231Y2047775D01*
X2714604Y2052756D01*
X2704981Y2055335D01*
D02*
G37*
G36*
X2104981D02*
X2095019D01*
X2085396Y2052756D01*
X2076769Y2047775D01*
X2069725Y2040731D01*
X2064744Y2032104D01*
X2062165Y2022481D01*
Y2012519D01*
X2064744Y2002896D01*
X2069725Y1994269D01*
X2076769Y1987225D01*
X2085396Y1982244D01*
X2095019Y1979665D01*
X2104981D01*
X2114604Y1982244D01*
X2123231Y1987225D01*
X2130275Y1994269D01*
X2135256Y2002896D01*
X2137835Y2012519D01*
Y2022481D01*
X2135256Y2032104D01*
X2130275Y2040731D01*
X2123231Y2047775D01*
X2114604Y2052756D01*
X2104981Y2055335D01*
D02*
G37*
G36*
X3204945Y2050709D02*
X3195055D01*
X3185503Y2048149D01*
X3176938Y2043204D01*
X3169945Y2036211D01*
X3165001Y2027647D01*
X3162441Y2018094D01*
Y2008205D01*
X3165001Y1998652D01*
X3169945Y1990088D01*
X3176938Y1983095D01*
X3185503Y1978150D01*
X3195055Y1975591D01*
X3204945D01*
X3214497Y1978150D01*
X3223062Y1983095D01*
X3230055Y1990088D01*
X3234999Y1998652D01*
X3237559Y2008205D01*
Y2018094D01*
X3234999Y2027647D01*
X3230055Y2036211D01*
X3223062Y2043204D01*
X3214497Y2048149D01*
X3204945Y2050709D01*
D02*
G37*
G36*
X3664945Y2047559D02*
X3655055D01*
X3645503Y2044999D01*
X3636938Y2040055D01*
X3629945Y2033062D01*
X3625001Y2024497D01*
X3622441Y2014945D01*
Y2005055D01*
X3625001Y1995503D01*
X3629945Y1986938D01*
X3636938Y1979945D01*
X3645503Y1975001D01*
X3655055Y1972441D01*
X3664945D01*
X3674497Y1975001D01*
X3683062Y1979945D01*
X3690055Y1986938D01*
X3694999Y1995503D01*
X3697559Y2005055D01*
Y2014945D01*
X3694999Y2024497D01*
X3690055Y2033062D01*
X3683062Y2040055D01*
X3674497Y2044999D01*
X3664945Y2047559D01*
D02*
G37*
G36*
X1263423Y2006000D02*
X1256577D01*
X1249964Y2004228D01*
X1244036Y2000805D01*
X1239195Y1995964D01*
X1235772Y1990036D01*
X1234000Y1983423D01*
Y1976577D01*
X1235772Y1969964D01*
X1239195Y1964036D01*
X1244036Y1959195D01*
X1249964Y1955772D01*
X1256577Y1954000D01*
X1263423D01*
X1270036Y1955772D01*
X1275964Y1959195D01*
X1280805Y1964036D01*
X1284228Y1969964D01*
X1286000Y1976577D01*
Y1983423D01*
X1284228Y1990036D01*
X1280805Y1995964D01*
X1275964Y2000805D01*
X1270036Y2004228D01*
X1263423Y2006000D01*
D02*
G37*
G36*
X854376Y1942000D02*
X845624D01*
X837538Y1938651D01*
X831349Y1932462D01*
X828000Y1924376D01*
Y1915624D01*
X831349Y1907538D01*
X837538Y1901349D01*
X845624Y1898000D01*
X854376D01*
X862462Y1901349D01*
X868651Y1907538D01*
X872000Y1915624D01*
Y1924376D01*
X868651Y1932462D01*
X862462Y1938651D01*
X854376Y1942000D01*
D02*
G37*
G36*
X2704981Y1955335D02*
X2695019D01*
X2685396Y1952756D01*
X2676769Y1947775D01*
X2669725Y1940731D01*
X2664744Y1932104D01*
X2662165Y1922481D01*
Y1912519D01*
X2664744Y1902896D01*
X2669725Y1894269D01*
X2676769Y1887225D01*
X2685396Y1882244D01*
X2695019Y1879665D01*
X2704981D01*
X2714604Y1882244D01*
X2723231Y1887225D01*
X2730275Y1894269D01*
X2735256Y1902896D01*
X2737835Y1912519D01*
Y1922481D01*
X2735256Y1932104D01*
X2730275Y1940731D01*
X2723231Y1947775D01*
X2714604Y1952756D01*
X2704981Y1955335D01*
D02*
G37*
G36*
X2104981D02*
X2095019D01*
X2085396Y1952756D01*
X2076769Y1947775D01*
X2069725Y1940731D01*
X2064744Y1932104D01*
X2062165Y1922481D01*
Y1912519D01*
X2064744Y1902896D01*
X2069725Y1894269D01*
X2076769Y1887225D01*
X2085396Y1882244D01*
X2095019Y1879665D01*
X2104981D01*
X2114604Y1882244D01*
X2123231Y1887225D01*
X2130275Y1894269D01*
X2135256Y1902896D01*
X2137835Y1912519D01*
Y1922481D01*
X2135256Y1932104D01*
X2130275Y1940731D01*
X2123231Y1947775D01*
X2114604Y1952756D01*
X2104981Y1955335D01*
D02*
G37*
G36*
X2704981Y1855335D02*
X2695019D01*
X2685396Y1852756D01*
X2676769Y1847775D01*
X2669725Y1840731D01*
X2664744Y1832104D01*
X2662165Y1822481D01*
Y1812519D01*
X2664744Y1802896D01*
X2669725Y1794269D01*
X2676769Y1787225D01*
X2685396Y1782244D01*
X2695019Y1779665D01*
X2704981D01*
X2714604Y1782244D01*
X2723231Y1787225D01*
X2730275Y1794269D01*
X2735256Y1802896D01*
X2737835Y1812519D01*
Y1822481D01*
X2735256Y1832104D01*
X2730275Y1840731D01*
X2723231Y1847775D01*
X2714604Y1852756D01*
X2704981Y1855335D01*
D02*
G37*
G36*
X2104981D02*
X2095019D01*
X2085396Y1852756D01*
X2076769Y1847775D01*
X2069725Y1840731D01*
X2064744Y1832104D01*
X2062165Y1822481D01*
Y1812519D01*
X2064744Y1802896D01*
X2069725Y1794269D01*
X2076769Y1787225D01*
X2085396Y1782244D01*
X2095019Y1779665D01*
X2104981D01*
X2114604Y1782244D01*
X2123231Y1787225D01*
X2130275Y1794269D01*
X2135256Y1802896D01*
X2137835Y1812519D01*
Y1822481D01*
X2135256Y1832104D01*
X2130275Y1840731D01*
X2123231Y1847775D01*
X2114604Y1852756D01*
X2104981Y1855335D01*
D02*
G37*
G36*
X2704981Y1755335D02*
X2695019D01*
X2685396Y1752756D01*
X2676769Y1747775D01*
X2669725Y1740731D01*
X2664744Y1732104D01*
X2662165Y1722481D01*
Y1712519D01*
X2664744Y1702896D01*
X2669725Y1694269D01*
X2676769Y1687225D01*
X2685396Y1682244D01*
X2695019Y1679665D01*
X2704981D01*
X2714604Y1682244D01*
X2723231Y1687225D01*
X2730275Y1694269D01*
X2735256Y1702896D01*
X2737835Y1712519D01*
Y1722481D01*
X2735256Y1732104D01*
X2730275Y1740731D01*
X2723231Y1747775D01*
X2714604Y1752756D01*
X2704981Y1755335D01*
D02*
G37*
G36*
X2104981D02*
X2095019D01*
X2085396Y1752756D01*
X2076769Y1747775D01*
X2069725Y1740731D01*
X2064744Y1732104D01*
X2062165Y1722481D01*
Y1712519D01*
X2064744Y1702896D01*
X2069725Y1694269D01*
X2076769Y1687225D01*
X2085396Y1682244D01*
X2095019Y1679665D01*
X2104981D01*
X2114604Y1682244D01*
X2123231Y1687225D01*
X2130275Y1694269D01*
X2135256Y1702896D01*
X2137835Y1712519D01*
Y1722481D01*
X2135256Y1732104D01*
X2130275Y1740731D01*
X2123231Y1747775D01*
X2114604Y1752756D01*
X2104981Y1755335D01*
D02*
G37*
G36*
X1063465Y1750394D02*
X976535D01*
Y1663465D01*
X1063465D01*
Y1750394D01*
D02*
G37*
G36*
X3575427Y1703071D02*
X3567093D01*
X3559042Y1700914D01*
X3551824Y1696746D01*
X3545931Y1690853D01*
X3541764Y1683635D01*
X3539606Y1675585D01*
Y1667250D01*
X3541764Y1659199D01*
X3545931Y1651982D01*
X3551824Y1646088D01*
X3559042Y1641921D01*
X3567093Y1639764D01*
X3575427D01*
X3583478Y1641921D01*
X3590695Y1646088D01*
X3596589Y1651982D01*
X3600756Y1659199D01*
X3602913Y1667250D01*
Y1675585D01*
X3600756Y1683635D01*
X3596589Y1690853D01*
X3590695Y1696746D01*
X3583478Y1700914D01*
X3575427Y1703071D01*
D02*
G37*
G36*
X3125427Y1701496D02*
X3117093D01*
X3109042Y1699339D01*
X3101824Y1695172D01*
X3095931Y1689278D01*
X3091764Y1682060D01*
X3089606Y1674010D01*
Y1665675D01*
X3091764Y1657625D01*
X3095931Y1650407D01*
X3101824Y1644513D01*
X3109042Y1640346D01*
X3117093Y1638189D01*
X3125427D01*
X3133478Y1640346D01*
X3140695Y1644513D01*
X3146589Y1650407D01*
X3150756Y1657625D01*
X3152913Y1665675D01*
Y1674010D01*
X3150756Y1682060D01*
X3146589Y1689278D01*
X3140695Y1695172D01*
X3133478Y1699339D01*
X3125427Y1701496D01*
D02*
G37*
G36*
X1175722Y1683465D02*
X1164278D01*
X1153223Y1680503D01*
X1143312Y1674780D01*
X1135220Y1666688D01*
X1129497Y1656777D01*
X1126535Y1645722D01*
Y1634278D01*
X1129497Y1623223D01*
X1135220Y1613312D01*
X1143312Y1605220D01*
X1153223Y1599497D01*
X1164278Y1596535D01*
X1175722D01*
X1186777Y1599497D01*
X1196688Y1605220D01*
X1204780Y1613312D01*
X1210503Y1623223D01*
X1213465Y1634278D01*
Y1645722D01*
X1210503Y1656777D01*
X1204780Y1666688D01*
X1196688Y1674780D01*
X1186777Y1680503D01*
X1175722Y1683465D01*
D02*
G37*
G36*
X2704981Y1655335D02*
X2695019D01*
X2685396Y1652756D01*
X2676769Y1647775D01*
X2669725Y1640731D01*
X2664744Y1632104D01*
X2662165Y1622481D01*
Y1612519D01*
X2664744Y1602896D01*
X2669725Y1594269D01*
X2676769Y1587225D01*
X2685396Y1582244D01*
X2695019Y1579665D01*
X2704981D01*
X2714604Y1582244D01*
X2723231Y1587225D01*
X2730275Y1594269D01*
X2735256Y1602896D01*
X2737835Y1612519D01*
Y1622481D01*
X2735256Y1632104D01*
X2730275Y1640731D01*
X2723231Y1647775D01*
X2714604Y1652756D01*
X2704981Y1655335D01*
D02*
G37*
G36*
X2104981D02*
X2095019D01*
X2085396Y1652756D01*
X2076769Y1647775D01*
X2069725Y1640731D01*
X2064744Y1632104D01*
X2062165Y1622481D01*
Y1612519D01*
X2064744Y1602896D01*
X2069725Y1594269D01*
X2076769Y1587225D01*
X2085396Y1582244D01*
X2095019Y1579665D01*
X2104981D01*
X2114604Y1582244D01*
X2123231Y1587225D01*
X2130275Y1594269D01*
X2135256Y1602896D01*
X2137835Y1612519D01*
Y1622481D01*
X2135256Y1632104D01*
X2130275Y1640731D01*
X2123231Y1647775D01*
X2114604Y1652756D01*
X2104981Y1655335D01*
D02*
G37*
G36*
X3687559Y1645984D02*
X3612441D01*
Y1570866D01*
X3687559D01*
Y1645984D01*
D02*
G37*
G36*
X3237559Y1644409D02*
X3162441D01*
Y1569291D01*
X3237559D01*
Y1644409D01*
D02*
G37*
G36*
X893423Y1596000D02*
X886577D01*
X879964Y1594228D01*
X874036Y1590805D01*
X869195Y1585964D01*
X865772Y1580036D01*
X864000Y1573423D01*
Y1566577D01*
X865772Y1559964D01*
X869195Y1554036D01*
X874036Y1549195D01*
X879964Y1545772D01*
X886577Y1544000D01*
X893423D01*
X900036Y1545772D01*
X905964Y1549195D01*
X910805Y1554036D01*
X914228Y1559964D01*
X916000Y1566577D01*
Y1573423D01*
X914228Y1580036D01*
X910805Y1585964D01*
X905964Y1590805D01*
X900036Y1594228D01*
X893423Y1596000D01*
D02*
G37*
G36*
X1025722Y1616535D02*
X1014278D01*
X1003223Y1613573D01*
X993312Y1607851D01*
X985220Y1599759D01*
X979497Y1589848D01*
X976535Y1578793D01*
Y1567349D01*
X979497Y1556294D01*
X985220Y1546383D01*
X993312Y1538291D01*
X1003223Y1532568D01*
X1014278Y1529606D01*
X1025722D01*
X1036777Y1532568D01*
X1046688Y1538291D01*
X1054780Y1546383D01*
X1060503Y1556294D01*
X1063465Y1567349D01*
Y1578793D01*
X1060503Y1589848D01*
X1054780Y1599759D01*
X1046688Y1607851D01*
X1036777Y1613573D01*
X1025722Y1616535D01*
D02*
G37*
G36*
X523515Y1566499D02*
X516669D01*
X510056Y1564727D01*
X504128Y1561304D01*
X499287Y1556463D01*
X495864Y1550535D01*
X494092Y1543922D01*
Y1537076D01*
X495864Y1530463D01*
X499287Y1524535D01*
X504128Y1519694D01*
X510056Y1516271D01*
X516669Y1514499D01*
X523515D01*
X530128Y1516271D01*
X536056Y1519694D01*
X540897Y1524535D01*
X544320Y1530463D01*
X546092Y1537076D01*
Y1543922D01*
X544320Y1550535D01*
X540897Y1556463D01*
X536056Y1561304D01*
X530128Y1564727D01*
X523515Y1566499D01*
D02*
G37*
G36*
X2704981Y1555335D02*
X2695019D01*
X2685396Y1552756D01*
X2676769Y1547775D01*
X2669725Y1540731D01*
X2664744Y1532104D01*
X2662165Y1522481D01*
Y1512519D01*
X2664744Y1502896D01*
X2669725Y1494269D01*
X2676769Y1487225D01*
X2685396Y1482244D01*
X2695019Y1479665D01*
X2704981D01*
X2714604Y1482244D01*
X2723231Y1487225D01*
X2730275Y1494269D01*
X2735256Y1502896D01*
X2737835Y1512519D01*
Y1522481D01*
X2735256Y1532104D01*
X2730275Y1540731D01*
X2723231Y1547775D01*
X2714604Y1552756D01*
X2704981Y1555335D01*
D02*
G37*
G36*
X2104981D02*
X2095019D01*
X2085396Y1552756D01*
X2076769Y1547775D01*
X2069725Y1540731D01*
X2064744Y1532104D01*
X2062165Y1522481D01*
Y1512519D01*
X2064744Y1502896D01*
X2069725Y1494269D01*
X2076769Y1487225D01*
X2085396Y1482244D01*
X2095019Y1479665D01*
X2104981D01*
X2114604Y1482244D01*
X2123231Y1487225D01*
X2130275Y1494269D01*
X2135256Y1502896D01*
X2137835Y1512519D01*
Y1522481D01*
X2135256Y1532104D01*
X2130275Y1540731D01*
X2123231Y1547775D01*
X2114604Y1552756D01*
X2104981Y1555335D01*
D02*
G37*
G36*
X3654945Y1547559D02*
X3645055D01*
X3635503Y1544999D01*
X3626938Y1540055D01*
X3619945Y1533062D01*
X3615001Y1524497D01*
X3612441Y1514945D01*
Y1505055D01*
X3615001Y1495503D01*
X3619945Y1486938D01*
X3626938Y1479945D01*
X3635503Y1475001D01*
X3645055Y1472441D01*
X3654945D01*
X3664497Y1475001D01*
X3673062Y1479945D01*
X3680055Y1486938D01*
X3684999Y1495503D01*
X3687559Y1505055D01*
Y1514945D01*
X3684999Y1524497D01*
X3680055Y1533062D01*
X3673062Y1540055D01*
X3664497Y1544999D01*
X3654945Y1547559D01*
D02*
G37*
G36*
X3204945Y1545984D02*
X3195055D01*
X3185503Y1543425D01*
X3176938Y1538480D01*
X3169945Y1531487D01*
X3165001Y1522922D01*
X3162441Y1513370D01*
Y1503480D01*
X3165001Y1493928D01*
X3169945Y1485363D01*
X3176938Y1478370D01*
X3185503Y1473426D01*
X3195055Y1470866D01*
X3204945D01*
X3214497Y1473426D01*
X3223062Y1478370D01*
X3230055Y1485363D01*
X3234999Y1493928D01*
X3237559Y1503480D01*
Y1513370D01*
X3234999Y1522922D01*
X3230055Y1531487D01*
X3223062Y1538480D01*
X3214497Y1543425D01*
X3204945Y1545984D01*
D02*
G37*
G36*
X1175722Y1549606D02*
X1164278D01*
X1153223Y1546644D01*
X1143312Y1540922D01*
X1135220Y1532830D01*
X1129497Y1522918D01*
X1126535Y1511864D01*
Y1500419D01*
X1129497Y1489365D01*
X1135220Y1479454D01*
X1143312Y1471361D01*
X1153223Y1465639D01*
X1164278Y1462677D01*
X1175722D01*
X1186777Y1465639D01*
X1196688Y1471361D01*
X1204780Y1479454D01*
X1210503Y1489365D01*
X1213465Y1500419D01*
Y1511864D01*
X1210503Y1522918D01*
X1204780Y1532830D01*
X1196688Y1540922D01*
X1186777Y1546644D01*
X1175722Y1549606D01*
D02*
G37*
G36*
X1025722Y1482677D02*
X1025000D01*
Y1444213D01*
X1063465D01*
Y1444935D01*
X1060503Y1455989D01*
X1054780Y1465900D01*
X1046688Y1473993D01*
X1036777Y1479715D01*
X1025722Y1482677D01*
D02*
G37*
G36*
X1015000D02*
X1014278D01*
X1003223Y1479715D01*
X993312Y1473993D01*
X985220Y1465900D01*
X979497Y1455989D01*
X976535Y1444935D01*
Y1444213D01*
X1015000D01*
Y1482677D01*
D02*
G37*
G36*
X2704981Y1455335D02*
X2695019D01*
X2685396Y1452756D01*
X2676769Y1447775D01*
X2669725Y1440731D01*
X2664744Y1432104D01*
X2662165Y1422481D01*
Y1412519D01*
X2664744Y1402896D01*
X2669725Y1394269D01*
X2676769Y1387225D01*
X2685396Y1382244D01*
X2695019Y1379665D01*
X2704981D01*
X2714604Y1382244D01*
X2723231Y1387225D01*
X2730275Y1394269D01*
X2735256Y1402896D01*
X2737835Y1412519D01*
Y1422481D01*
X2735256Y1432104D01*
X2730275Y1440731D01*
X2723231Y1447775D01*
X2714604Y1452756D01*
X2704981Y1455335D01*
D02*
G37*
G36*
X2104981D02*
X2095019D01*
X2085396Y1452756D01*
X2076769Y1447775D01*
X2069725Y1440731D01*
X2064744Y1432104D01*
X2062165Y1422481D01*
Y1412519D01*
X2064744Y1402896D01*
X2069725Y1394269D01*
X2076769Y1387225D01*
X2085396Y1382244D01*
X2095019Y1379665D01*
X2104981D01*
X2114604Y1382244D01*
X2123231Y1387225D01*
X2130275Y1394269D01*
X2135256Y1402896D01*
X2137835Y1412519D01*
Y1422481D01*
X2135256Y1432104D01*
X2130275Y1440731D01*
X2123231Y1447775D01*
X2114604Y1452756D01*
X2104981Y1455335D01*
D02*
G37*
G36*
X3654945Y1449134D02*
X3645055D01*
X3635503Y1446574D01*
X3626938Y1441630D01*
X3619945Y1434637D01*
X3615001Y1426072D01*
X3612441Y1416520D01*
Y1406630D01*
X3615001Y1397078D01*
X3619945Y1388513D01*
X3626938Y1381520D01*
X3635503Y1376575D01*
X3645055Y1374016D01*
X3654945D01*
X3664497Y1376575D01*
X3673062Y1381520D01*
X3680055Y1388513D01*
X3684999Y1397078D01*
X3687559Y1406630D01*
Y1416520D01*
X3684999Y1426072D01*
X3680055Y1434637D01*
X3673062Y1441630D01*
X3664497Y1446574D01*
X3654945Y1449134D01*
D02*
G37*
G36*
X3204945Y1447559D02*
X3195055D01*
X3185503Y1444999D01*
X3176938Y1440055D01*
X3169945Y1433062D01*
X3165001Y1424497D01*
X3162441Y1414945D01*
Y1405055D01*
X3165001Y1395503D01*
X3169945Y1386938D01*
X3176938Y1379945D01*
X3185503Y1375001D01*
X3195055Y1372441D01*
X3204945D01*
X3214497Y1375001D01*
X3223062Y1379945D01*
X3230055Y1386938D01*
X3234999Y1395503D01*
X3237559Y1405055D01*
Y1414945D01*
X3234999Y1424497D01*
X3230055Y1433062D01*
X3223062Y1440055D01*
X3214497Y1444999D01*
X3204945Y1447559D01*
D02*
G37*
G36*
X1063465Y1434213D02*
X976535D01*
Y1433490D01*
X979497Y1422436D01*
X985220Y1412525D01*
X993312Y1404432D01*
X1003223Y1398710D01*
X1014016Y1395818D01*
X1014278Y1395748D01*
X1015999Y1395266D01*
X1016577Y1386000D01*
X1013902Y1385283D01*
X1009964Y1384228D01*
X1004036Y1380805D01*
X999195Y1375964D01*
X995772Y1370036D01*
X994423Y1365000D01*
X1045578D01*
X1044228Y1370036D01*
X1040805Y1375964D01*
X1035964Y1380805D01*
X1030036Y1384228D01*
X1026098Y1385283D01*
X1023423Y1386000D01*
X1024001Y1395266D01*
X1025722Y1395748D01*
X1025984Y1395818D01*
X1036777Y1398710D01*
X1046688Y1404432D01*
X1054780Y1412525D01*
X1060503Y1422436D01*
X1063465Y1433490D01*
Y1434213D01*
D02*
G37*
G36*
X761496Y1421496D02*
X678504D01*
Y1338504D01*
X761496D01*
Y1421496D01*
D02*
G37*
G36*
X525463D02*
X514537D01*
X503983Y1418668D01*
X494521Y1413205D01*
X486795Y1405479D01*
X481332Y1396017D01*
X478504Y1385463D01*
Y1374537D01*
X481332Y1363983D01*
X486795Y1354521D01*
X494521Y1346795D01*
X503983Y1341332D01*
X514537Y1338504D01*
X525463D01*
X536017Y1341332D01*
X545479Y1346795D01*
X553205Y1354521D01*
X558668Y1363983D01*
X561496Y1374537D01*
Y1385463D01*
X558668Y1396017D01*
X553205Y1405479D01*
X545479Y1413205D01*
X536017Y1418668D01*
X525463Y1421496D01*
D02*
G37*
G36*
X1935767Y1378115D02*
X1928921D01*
X1922309Y1376343D01*
X1916380Y1372920D01*
X1911539Y1368079D01*
X1908116Y1362150D01*
X1906344Y1355538D01*
Y1348692D01*
X1908116Y1342079D01*
X1911539Y1336150D01*
X1916380Y1331309D01*
X1922309Y1327886D01*
X1928921Y1326115D01*
X1935767D01*
X1942380Y1327886D01*
X1948309Y1331309D01*
X1953149Y1336150D01*
X1956572Y1342079D01*
X1958344Y1348692D01*
Y1355538D01*
X1956572Y1362150D01*
X1953149Y1368079D01*
X1948309Y1372920D01*
X1942380Y1376343D01*
X1935767Y1378115D01*
D02*
G37*
G36*
X1835767D02*
X1828921D01*
X1822309Y1376343D01*
X1816380Y1372920D01*
X1811539Y1368079D01*
X1808116Y1362150D01*
X1806344Y1355538D01*
Y1348692D01*
X1808116Y1342079D01*
X1811539Y1336150D01*
X1816380Y1331309D01*
X1822309Y1327886D01*
X1828921Y1326115D01*
X1835767D01*
X1842380Y1327886D01*
X1848309Y1331309D01*
X1853149Y1336150D01*
X1856572Y1342079D01*
X1858344Y1348692D01*
Y1355538D01*
X1856572Y1362150D01*
X1853149Y1368079D01*
X1848309Y1372920D01*
X1842380Y1376343D01*
X1835767Y1378115D01*
D02*
G37*
G36*
X1045578Y1355000D02*
X994423D01*
X995772Y1349964D01*
X999195Y1344036D01*
X1004036Y1339195D01*
X1009964Y1335772D01*
X1012187Y1335176D01*
Y1324824D01*
X1009964Y1324228D01*
X1004036Y1320805D01*
X999195Y1315964D01*
X995772Y1310036D01*
X994423Y1305000D01*
X1045578D01*
X1044228Y1310036D01*
X1040805Y1315964D01*
X1035964Y1320805D01*
X1030036Y1324228D01*
X1027813Y1324824D01*
Y1335176D01*
X1030036Y1335772D01*
X1035964Y1339195D01*
X1040805Y1344036D01*
X1044228Y1349964D01*
X1045578Y1355000D01*
D02*
G37*
G36*
X2704981Y1355335D02*
X2695019D01*
X2685396Y1352756D01*
X2676769Y1347775D01*
X2669725Y1340731D01*
X2664744Y1332104D01*
X2662165Y1322481D01*
Y1312519D01*
X2664744Y1302896D01*
X2669725Y1294269D01*
X2676769Y1287225D01*
X2685396Y1282244D01*
X2695019Y1279665D01*
X2704981D01*
X2714604Y1282244D01*
X2723231Y1287225D01*
X2730275Y1294269D01*
X2735256Y1302896D01*
X2737835Y1312519D01*
Y1322481D01*
X2735256Y1332104D01*
X2730275Y1340731D01*
X2723231Y1347775D01*
X2714604Y1352756D01*
X2704981Y1355335D01*
D02*
G37*
G36*
X2104981D02*
X2095019D01*
X2085396Y1352756D01*
X2076769Y1347775D01*
X2069725Y1340731D01*
X2064744Y1332104D01*
X2062165Y1322481D01*
Y1312519D01*
X2064744Y1302896D01*
X2069725Y1294269D01*
X2076769Y1287225D01*
X2085396Y1282244D01*
X2095019Y1279665D01*
X2104981D01*
X2114604Y1282244D01*
X2123231Y1287225D01*
X2130275Y1294269D01*
X2135256Y1302896D01*
X2137835Y1312519D01*
Y1322481D01*
X2135256Y1332104D01*
X2130275Y1340731D01*
X2123231Y1347775D01*
X2114604Y1352756D01*
X2104981Y1355335D01*
D02*
G37*
G36*
X3654945Y1350709D02*
X3645055D01*
X3635503Y1348149D01*
X3626938Y1343204D01*
X3619945Y1336211D01*
X3615001Y1327647D01*
X3612441Y1318094D01*
Y1308205D01*
X3615001Y1298652D01*
X3619945Y1290088D01*
X3626938Y1283095D01*
X3635503Y1278150D01*
X3645055Y1275591D01*
X3654945D01*
X3664497Y1278150D01*
X3673062Y1283095D01*
X3680055Y1290088D01*
X3684999Y1298652D01*
X3687559Y1308205D01*
Y1318094D01*
X3684999Y1327647D01*
X3680055Y1336211D01*
X3673062Y1343204D01*
X3664497Y1348149D01*
X3654945Y1350709D01*
D02*
G37*
G36*
X3204945Y1349134D02*
X3195055D01*
X3185503Y1346574D01*
X3176938Y1341630D01*
X3169945Y1334637D01*
X3165001Y1326072D01*
X3162441Y1316520D01*
Y1306630D01*
X3165001Y1297078D01*
X3169945Y1288513D01*
X3176938Y1281520D01*
X3185503Y1276575D01*
X3195055Y1274016D01*
X3204945D01*
X3214497Y1276575D01*
X3223062Y1281520D01*
X3230055Y1288513D01*
X3234999Y1297078D01*
X3237559Y1306630D01*
Y1316520D01*
X3234999Y1326072D01*
X3230055Y1334637D01*
X3223062Y1341630D01*
X3214497Y1346574D01*
X3204945Y1349134D01*
D02*
G37*
G36*
X1045578Y1295000D02*
X994423D01*
X995772Y1289964D01*
X999195Y1284036D01*
X1004036Y1279195D01*
X1009964Y1275772D01*
X1012187Y1275176D01*
Y1264824D01*
X1009964Y1264228D01*
X1004036Y1260805D01*
X999195Y1255964D01*
X995772Y1250036D01*
X994423Y1245000D01*
X1045578D01*
X1044228Y1250036D01*
X1040805Y1255964D01*
X1035964Y1260805D01*
X1030036Y1264228D01*
X1027813Y1264824D01*
Y1275176D01*
X1030036Y1275772D01*
X1035964Y1279195D01*
X1040805Y1284036D01*
X1044228Y1289964D01*
X1045578Y1295000D01*
D02*
G37*
G36*
X1935767Y1278115D02*
X1928921D01*
X1922309Y1276343D01*
X1916380Y1272920D01*
X1911539Y1268079D01*
X1908116Y1262150D01*
X1906344Y1255538D01*
Y1248692D01*
X1908116Y1242079D01*
X1911539Y1236150D01*
X1916380Y1231309D01*
X1922309Y1227886D01*
X1928921Y1226115D01*
X1935767D01*
X1942380Y1227886D01*
X1948309Y1231309D01*
X1953149Y1236150D01*
X1956572Y1242079D01*
X1958344Y1248692D01*
Y1255538D01*
X1956572Y1262150D01*
X1953149Y1268079D01*
X1948309Y1272920D01*
X1942380Y1276343D01*
X1935767Y1278115D01*
D02*
G37*
G36*
X1835767D02*
X1828921D01*
X1822309Y1276343D01*
X1816380Y1272920D01*
X1811539Y1268079D01*
X1808116Y1262150D01*
X1806344Y1255538D01*
Y1248692D01*
X1808116Y1242079D01*
X1811539Y1236150D01*
X1816380Y1231309D01*
X1822309Y1227886D01*
X1828921Y1226115D01*
X1835767D01*
X1842380Y1227886D01*
X1848309Y1231309D01*
X1853149Y1236150D01*
X1856572Y1242079D01*
X1858344Y1248692D01*
Y1255538D01*
X1856572Y1262150D01*
X1853149Y1268079D01*
X1848309Y1272920D01*
X1842380Y1276343D01*
X1835767Y1278115D01*
D02*
G37*
G36*
X1045578Y1235000D02*
X1025000D01*
Y1214422D01*
X1030036Y1215772D01*
X1035964Y1219195D01*
X1040805Y1224036D01*
X1044228Y1229964D01*
X1045578Y1235000D01*
D02*
G37*
G36*
X1015000D02*
X994423D01*
X995772Y1229964D01*
X999195Y1224036D01*
X1004036Y1219195D01*
X1009964Y1215772D01*
X1015000Y1214422D01*
Y1235000D01*
D02*
G37*
G36*
X720000Y1194633D02*
Y1174055D01*
X740577D01*
X739228Y1179091D01*
X735805Y1185020D01*
X730964Y1189860D01*
X725036Y1193283D01*
X720000Y1194633D01*
D02*
G37*
G36*
X710000D02*
X704964Y1193283D01*
X699036Y1189860D01*
X694195Y1185020D01*
X690772Y1179091D01*
X689423Y1174055D01*
X710000D01*
Y1194633D01*
D02*
G37*
G36*
X600000D02*
Y1174055D01*
X620577D01*
X619228Y1179091D01*
X615805Y1185020D01*
X610964Y1189860D01*
X605036Y1193283D01*
X600000Y1194633D01*
D02*
G37*
G36*
X590000D02*
X584964Y1193283D01*
X579036Y1189860D01*
X574195Y1185020D01*
X570772Y1179091D01*
X569423Y1174055D01*
X590000D01*
Y1194633D01*
D02*
G37*
G36*
X481148Y1189429D02*
Y1168852D01*
X501726D01*
X500376Y1173888D01*
X496953Y1179816D01*
X492112Y1184657D01*
X486184Y1188080D01*
X481148Y1189429D01*
D02*
G37*
G36*
X471148D02*
X466112Y1188080D01*
X460184Y1184657D01*
X455343Y1179816D01*
X451920Y1173888D01*
X450570Y1168852D01*
X471148D01*
Y1189429D01*
D02*
G37*
G36*
X740577Y1164055D02*
X720000D01*
Y1143478D01*
X725036Y1144827D01*
X730964Y1148250D01*
X735805Y1153091D01*
X739228Y1159020D01*
X740577Y1164055D01*
D02*
G37*
G36*
X710000D02*
X689423D01*
X690772Y1159020D01*
X694195Y1153091D01*
X699036Y1148250D01*
X704964Y1144827D01*
X710000Y1143478D01*
Y1164055D01*
D02*
G37*
G36*
X620577D02*
X600000D01*
Y1143478D01*
X605036Y1144827D01*
X610964Y1148250D01*
X615805Y1153091D01*
X619228Y1159020D01*
X620577Y1164055D01*
D02*
G37*
G36*
X590000D02*
X569423D01*
X570772Y1159020D01*
X574195Y1153091D01*
X579036Y1148250D01*
X584964Y1144827D01*
X590000Y1143478D01*
Y1164055D01*
D02*
G37*
G36*
X501726Y1158852D02*
X481148D01*
Y1138274D01*
X486184Y1139624D01*
X492112Y1143047D01*
X496953Y1147888D01*
X500376Y1153816D01*
X501726Y1158852D01*
D02*
G37*
G36*
X471148D02*
X450570D01*
X451920Y1153816D01*
X455343Y1147888D01*
X460184Y1143047D01*
X466112Y1139624D01*
X471148Y1138274D01*
Y1158852D01*
D02*
G37*
G36*
X1935767Y1178115D02*
X1928921D01*
X1922309Y1176343D01*
X1916380Y1172920D01*
X1911539Y1168079D01*
X1908116Y1162150D01*
X1906344Y1155538D01*
Y1148692D01*
X1908116Y1142079D01*
X1911539Y1136150D01*
X1916380Y1131309D01*
X1922309Y1127886D01*
X1928921Y1126115D01*
X1935767D01*
X1942380Y1127886D01*
X1948309Y1131309D01*
X1953149Y1136150D01*
X1956572Y1142079D01*
X1958344Y1148692D01*
Y1155538D01*
X1956572Y1162150D01*
X1953149Y1168079D01*
X1948309Y1172920D01*
X1942380Y1176343D01*
X1935767Y1178115D01*
D02*
G37*
G36*
X1835767D02*
X1828921D01*
X1822309Y1176343D01*
X1816380Y1172920D01*
X1811539Y1168079D01*
X1808116Y1162150D01*
X1806344Y1155538D01*
Y1148692D01*
X1808116Y1142079D01*
X1811539Y1136150D01*
X1816380Y1131309D01*
X1822309Y1127886D01*
X1828921Y1126115D01*
X1835767D01*
X1842380Y1127886D01*
X1848309Y1131309D01*
X1853149Y1136150D01*
X1856572Y1142079D01*
X1858344Y1148692D01*
Y1155538D01*
X1856572Y1162150D01*
X1853149Y1168079D01*
X1848309Y1172920D01*
X1842380Y1176343D01*
X1835767Y1178115D01*
D02*
G37*
G36*
X1350000Y1125578D02*
Y1105000D01*
X1370578D01*
X1369228Y1110036D01*
X1365805Y1115964D01*
X1360964Y1120805D01*
X1355036Y1124228D01*
X1350000Y1125578D01*
D02*
G37*
G36*
X1340000D02*
X1334964Y1124228D01*
X1329036Y1120805D01*
X1324195Y1115964D01*
X1320772Y1110036D01*
X1319422Y1105000D01*
X1340000D01*
Y1125578D01*
D02*
G37*
G36*
X1230000D02*
Y1105000D01*
X1250578D01*
X1249228Y1110036D01*
X1245805Y1115964D01*
X1240964Y1120805D01*
X1235036Y1124228D01*
X1230000Y1125578D01*
D02*
G37*
G36*
X1220000D02*
X1214964Y1124228D01*
X1209036Y1120805D01*
X1204195Y1115964D01*
X1200772Y1110036D01*
X1199422Y1105000D01*
X1220000D01*
Y1125578D01*
D02*
G37*
G36*
X1110000D02*
Y1105000D01*
X1130578D01*
X1129228Y1110036D01*
X1125805Y1115964D01*
X1120964Y1120805D01*
X1115036Y1124228D01*
X1110000Y1125578D01*
D02*
G37*
G36*
X1100000D02*
X1094964Y1124228D01*
X1089036Y1120805D01*
X1084195Y1115964D01*
X1080772Y1110036D01*
X1079422Y1105000D01*
X1100000D01*
Y1125578D01*
D02*
G37*
G36*
X1370578Y1095000D02*
X1350000D01*
Y1074422D01*
X1355036Y1075772D01*
X1360964Y1079195D01*
X1365805Y1084036D01*
X1369228Y1089964D01*
X1370578Y1095000D01*
D02*
G37*
G36*
X1340000D02*
X1319422D01*
X1320772Y1089964D01*
X1324195Y1084036D01*
X1329036Y1079195D01*
X1334964Y1075772D01*
X1340000Y1074422D01*
Y1095000D01*
D02*
G37*
G36*
X1250578D02*
X1230000D01*
Y1074422D01*
X1235036Y1075772D01*
X1240964Y1079195D01*
X1245805Y1084036D01*
X1249228Y1089964D01*
X1250578Y1095000D01*
D02*
G37*
G36*
X1220000D02*
X1199422D01*
X1200772Y1089964D01*
X1204195Y1084036D01*
X1209036Y1079195D01*
X1214964Y1075772D01*
X1220000Y1074422D01*
Y1095000D01*
D02*
G37*
G36*
X1130578D02*
X1110000D01*
Y1074422D01*
X1115036Y1075772D01*
X1120964Y1079195D01*
X1125805Y1084036D01*
X1129228Y1089964D01*
X1130578Y1095000D01*
D02*
G37*
G36*
X1100000D02*
X1079422D01*
X1080772Y1089964D01*
X1084195Y1084036D01*
X1089036Y1079195D01*
X1094964Y1075772D01*
X1100000Y1074422D01*
Y1095000D01*
D02*
G37*
G36*
X3575427Y984646D02*
X3567093D01*
X3559042Y982488D01*
X3551824Y978321D01*
X3545931Y972428D01*
X3541764Y965210D01*
X3539606Y957159D01*
Y948825D01*
X3541764Y940774D01*
X3545931Y933556D01*
X3551824Y927663D01*
X3559042Y923496D01*
X3567093Y921339D01*
X3575427D01*
X3583478Y923496D01*
X3590695Y927663D01*
X3596589Y933556D01*
X3600756Y940774D01*
X3602913Y948825D01*
Y957159D01*
X3600756Y965210D01*
X3596589Y972428D01*
X3590695Y978321D01*
X3583478Y982488D01*
X3575427Y984646D01*
D02*
G37*
G36*
X3125427Y981496D02*
X3117093D01*
X3109042Y979339D01*
X3101824Y975172D01*
X3095931Y969278D01*
X3091764Y962060D01*
X3089606Y954010D01*
Y945675D01*
X3091764Y937625D01*
X3095931Y930407D01*
X3101824Y924513D01*
X3109042Y920346D01*
X3117093Y918189D01*
X3125427D01*
X3133478Y920346D01*
X3140695Y924513D01*
X3146589Y930407D01*
X3150756Y937625D01*
X3152913Y945675D01*
Y954010D01*
X3150756Y962060D01*
X3146589Y969278D01*
X3140695Y975172D01*
X3133478Y979339D01*
X3125427Y981496D01*
D02*
G37*
G36*
X3687559Y927559D02*
X3612441D01*
Y852441D01*
X3687559D01*
Y927559D01*
D02*
G37*
G36*
X3237559Y924409D02*
X3162441D01*
Y849291D01*
X3237559D01*
Y924409D01*
D02*
G37*
G36*
X3654945Y829134D02*
X3645055D01*
X3635503Y826574D01*
X3626938Y821630D01*
X3619945Y814637D01*
X3615001Y806072D01*
X3612441Y796519D01*
Y786630D01*
X3615001Y777078D01*
X3619945Y768513D01*
X3626938Y761520D01*
X3635503Y756575D01*
X3645055Y754016D01*
X3654945D01*
X3664497Y756575D01*
X3673062Y761520D01*
X3680055Y768513D01*
X3684999Y777078D01*
X3687559Y786630D01*
Y796519D01*
X3684999Y806072D01*
X3680055Y814637D01*
X3673062Y821630D01*
X3664497Y826574D01*
X3654945Y829134D01*
D02*
G37*
G36*
X3204945Y825984D02*
X3195055D01*
X3185503Y823425D01*
X3176938Y818480D01*
X3169945Y811487D01*
X3165001Y802922D01*
X3162441Y793370D01*
Y783481D01*
X3165001Y773928D01*
X3169945Y765363D01*
X3176938Y758370D01*
X3185503Y753426D01*
X3195055Y750866D01*
X3204945D01*
X3214497Y753426D01*
X3223062Y758370D01*
X3230055Y765363D01*
X3234999Y773928D01*
X3237559Y783481D01*
Y793370D01*
X3234999Y802922D01*
X3230055Y811487D01*
X3223062Y818480D01*
X3214497Y823425D01*
X3204945Y825984D01*
D02*
G37*
G36*
X3654945Y730709D02*
X3645055D01*
X3635503Y728149D01*
X3626938Y723204D01*
X3619945Y716211D01*
X3615001Y707647D01*
X3612441Y698094D01*
Y688205D01*
X3615001Y678652D01*
X3619945Y670088D01*
X3626938Y663095D01*
X3635503Y658150D01*
X3645055Y655591D01*
X3654945D01*
X3664497Y658150D01*
X3673062Y663095D01*
X3680055Y670088D01*
X3684999Y678652D01*
X3687559Y688205D01*
Y698094D01*
X3684999Y707647D01*
X3680055Y716211D01*
X3673062Y723204D01*
X3664497Y728149D01*
X3654945Y730709D01*
D02*
G37*
G36*
X3204945Y727559D02*
X3195055D01*
X3185503Y724999D01*
X3176938Y720055D01*
X3169945Y713062D01*
X3165001Y704497D01*
X3162441Y694945D01*
Y685055D01*
X3165001Y675503D01*
X3169945Y666938D01*
X3176938Y659945D01*
X3185503Y655001D01*
X3195055Y652441D01*
X3204945D01*
X3214497Y655001D01*
X3223062Y659945D01*
X3230055Y666938D01*
X3234999Y675503D01*
X3237559Y685055D01*
Y694945D01*
X3234999Y704497D01*
X3230055Y713062D01*
X3223062Y720055D01*
X3214497Y724999D01*
X3204945Y727559D01*
D02*
G37*
G36*
X3654945Y632283D02*
X3645055D01*
X3635503Y629724D01*
X3626938Y624779D01*
X3619945Y617786D01*
X3615001Y609222D01*
X3612441Y599669D01*
Y589780D01*
X3615001Y580227D01*
X3619945Y571663D01*
X3626938Y564670D01*
X3635503Y559725D01*
X3645055Y557165D01*
X3654945D01*
X3664497Y559725D01*
X3673062Y564670D01*
X3680055Y571663D01*
X3684999Y580227D01*
X3687559Y589780D01*
Y599669D01*
X3684999Y609222D01*
X3680055Y617786D01*
X3673062Y624779D01*
X3664497Y629724D01*
X3654945Y632283D01*
D02*
G37*
G36*
X3204945Y629134D02*
X3195055D01*
X3185503Y626574D01*
X3176938Y621630D01*
X3169945Y614637D01*
X3165001Y606072D01*
X3162441Y596519D01*
Y586630D01*
X3165001Y577078D01*
X3169945Y568513D01*
X3176938Y561520D01*
X3185503Y556575D01*
X3195055Y554016D01*
X3204945D01*
X3214497Y556575D01*
X3223062Y561520D01*
X3230055Y568513D01*
X3234999Y577078D01*
X3237559Y586630D01*
Y596519D01*
X3234999Y606072D01*
X3230055Y614637D01*
X3223062Y621630D01*
X3214497Y626574D01*
X3204945Y629134D01*
D02*
G37*
G36*
X2873423Y486000D02*
X2866577D01*
X2859964Y484228D01*
X2854036Y480805D01*
X2849195Y475964D01*
X2845772Y470036D01*
X2844000Y463423D01*
Y456577D01*
X2845772Y449964D01*
X2849195Y444036D01*
X2854036Y439195D01*
X2859964Y435772D01*
X2866577Y434000D01*
X2873423D01*
X2880036Y435772D01*
X2885964Y439195D01*
X2890805Y444036D01*
X2894228Y449964D01*
X2896000Y456577D01*
Y463423D01*
X2894228Y470036D01*
X2890805Y475964D01*
X2885964Y480805D01*
X2880036Y484228D01*
X2873423Y486000D01*
D02*
G37*
G36*
X1843423Y451000D02*
X1836577D01*
X1829964Y449228D01*
X1824036Y445805D01*
X1819195Y440964D01*
X1815772Y435036D01*
X1814000Y428423D01*
Y421577D01*
X1815772Y414964D01*
X1819195Y409036D01*
X1824036Y404195D01*
X1829964Y400772D01*
X1836577Y399000D01*
X1843423D01*
X1850036Y400772D01*
X1855964Y404195D01*
X1860805Y409036D01*
X1864228Y414964D01*
X1866000Y421577D01*
Y428423D01*
X1864228Y435036D01*
X1860805Y440964D01*
X1855964Y445805D01*
X1850036Y449228D01*
X1843423Y451000D01*
D02*
G37*
G36*
X1348423Y446000D02*
X1341577D01*
X1334964Y444228D01*
X1329036Y440805D01*
X1324195Y435964D01*
X1320772Y430036D01*
X1319000Y423423D01*
Y416577D01*
X1320772Y409964D01*
X1324195Y404036D01*
X1329036Y399195D01*
X1334964Y395772D01*
X1341577Y394000D01*
X1348423D01*
X1355036Y395772D01*
X1360964Y399195D01*
X1365805Y404036D01*
X1369228Y409964D01*
X1371000Y416577D01*
Y423423D01*
X1369228Y430036D01*
X1365805Y435964D01*
X1360964Y440805D01*
X1355036Y444228D01*
X1348423Y446000D01*
D02*
G37*
G36*
X1228423D02*
X1221577D01*
X1214964Y444228D01*
X1209036Y440805D01*
X1204195Y435964D01*
X1200772Y430036D01*
X1199000Y423423D01*
Y416577D01*
X1200772Y409964D01*
X1204195Y404036D01*
X1209036Y399195D01*
X1214964Y395772D01*
X1221577Y394000D01*
X1228423D01*
X1235036Y395772D01*
X1240964Y399195D01*
X1245805Y404036D01*
X1249228Y409964D01*
X1251000Y416577D01*
Y423423D01*
X1249228Y430036D01*
X1245805Y435964D01*
X1240964Y440805D01*
X1235036Y444228D01*
X1228423Y446000D01*
D02*
G37*
G36*
X1108423D02*
X1101577D01*
X1094964Y444228D01*
X1089036Y440805D01*
X1084195Y435964D01*
X1080772Y430036D01*
X1079000Y423423D01*
Y416577D01*
X1080772Y409964D01*
X1084195Y404036D01*
X1089036Y399195D01*
X1094964Y395772D01*
X1101577Y394000D01*
X1108423D01*
X1115036Y395772D01*
X1120964Y399195D01*
X1125805Y404036D01*
X1129228Y409964D01*
X1131000Y416577D01*
Y423423D01*
X1129228Y430036D01*
X1125805Y435964D01*
X1120964Y440805D01*
X1115036Y444228D01*
X1108423Y446000D01*
D02*
G37*
G36*
X718423Y431000D02*
X711577D01*
X704964Y429228D01*
X699036Y425805D01*
X694195Y420964D01*
X690772Y415036D01*
X689000Y408423D01*
Y401577D01*
X690772Y394964D01*
X694195Y389036D01*
X699036Y384195D01*
X704964Y380772D01*
X711577Y379000D01*
X718423D01*
X725036Y380772D01*
X730964Y384195D01*
X735805Y389036D01*
X739228Y394964D01*
X741000Y401577D01*
Y408423D01*
X739228Y415036D01*
X735805Y420964D01*
X730964Y425805D01*
X725036Y429228D01*
X718423Y431000D01*
D02*
G37*
G36*
X598423D02*
X591577D01*
X584964Y429228D01*
X579036Y425805D01*
X574195Y420964D01*
X570772Y415036D01*
X569000Y408423D01*
Y401577D01*
X570772Y394964D01*
X574195Y389036D01*
X579036Y384195D01*
X584964Y380772D01*
X591577Y379000D01*
X598423D01*
X605036Y380772D01*
X610964Y384195D01*
X615805Y389036D01*
X619228Y394964D01*
X621000Y401577D01*
Y408423D01*
X619228Y415036D01*
X615805Y420964D01*
X610964Y425805D01*
X605036Y429228D01*
X598423Y431000D01*
D02*
G37*
G36*
X478423D02*
X471577D01*
X464964Y429228D01*
X459036Y425805D01*
X454195Y420964D01*
X450772Y415036D01*
X449000Y408423D01*
Y401577D01*
X450772Y394964D01*
X454195Y389036D01*
X459036Y384195D01*
X464964Y380772D01*
X471577Y379000D01*
X478423D01*
X485036Y380772D01*
X490964Y384195D01*
X495805Y389036D01*
X499228Y394964D01*
X501000Y401577D01*
Y408423D01*
X499228Y415036D01*
X495805Y420964D01*
X490964Y425805D01*
X485036Y429228D01*
X478423Y431000D01*
D02*
G37*
%LPD*%
G36*
X1825000Y3595000D02*
X1417500D01*
Y3780000D01*
Y3795000D01*
X1508600D01*
X1513889Y3793583D01*
X1526111D01*
X1531400Y3795000D01*
X1825000D01*
Y3595000D01*
D02*
G37*
%LPC*%
G36*
X1770000Y3765577D02*
Y3745000D01*
X1790578D01*
X1789228Y3750036D01*
X1785805Y3755964D01*
X1780964Y3760805D01*
X1775036Y3764228D01*
X1770000Y3765577D01*
D02*
G37*
G36*
X1760000D02*
X1754964Y3764228D01*
X1749036Y3760805D01*
X1744195Y3755964D01*
X1740772Y3750036D01*
X1739422Y3745000D01*
X1760000D01*
Y3765577D01*
D02*
G37*
G36*
X1665000D02*
Y3745000D01*
X1685578D01*
X1684228Y3750036D01*
X1680805Y3755964D01*
X1675964Y3760805D01*
X1670036Y3764228D01*
X1665000Y3765577D01*
D02*
G37*
G36*
X1655000D02*
X1649964Y3764228D01*
X1644036Y3760805D01*
X1639195Y3755964D01*
X1635772Y3750036D01*
X1634422Y3745000D01*
X1655000D01*
Y3765577D01*
D02*
G37*
G36*
X1526111Y3786417D02*
X1525000D01*
Y3745000D01*
X1566417D01*
Y3746111D01*
X1563254Y3757916D01*
X1557143Y3768501D01*
X1548501Y3777143D01*
X1537916Y3783254D01*
X1526111Y3786417D01*
D02*
G37*
G36*
X1515000D02*
X1513889D01*
X1502084Y3783254D01*
X1491499Y3777143D01*
X1482857Y3768501D01*
X1476746Y3757916D01*
X1473583Y3746111D01*
Y3745000D01*
X1515000D01*
Y3786417D01*
D02*
G37*
G36*
X1790578Y3735000D02*
X1770000D01*
Y3714423D01*
X1775036Y3715772D01*
X1780964Y3719195D01*
X1785805Y3724036D01*
X1789228Y3729964D01*
X1790578Y3735000D01*
D02*
G37*
G36*
X1760000D02*
X1739422D01*
X1740772Y3729964D01*
X1744195Y3724036D01*
X1749036Y3719195D01*
X1754964Y3715772D01*
X1760000Y3714423D01*
Y3735000D01*
D02*
G37*
G36*
X1685578D02*
X1665000D01*
Y3714423D01*
X1670036Y3715772D01*
X1675964Y3719195D01*
X1680805Y3724036D01*
X1684228Y3729964D01*
X1685578Y3735000D01*
D02*
G37*
G36*
X1655000D02*
X1634422D01*
X1635772Y3729964D01*
X1639195Y3724036D01*
X1644036Y3719195D01*
X1649964Y3715772D01*
X1655000Y3714423D01*
Y3735000D01*
D02*
G37*
G36*
X1566417D02*
X1525000D01*
Y3693583D01*
X1526111D01*
X1537916Y3696746D01*
X1548501Y3702857D01*
X1557143Y3711499D01*
X1563254Y3722084D01*
X1566417Y3733889D01*
Y3735000D01*
D02*
G37*
G36*
X1515000D02*
X1473583D01*
Y3733889D01*
X1476746Y3722084D01*
X1482857Y3711499D01*
X1491499Y3702857D01*
X1502084Y3696746D01*
X1513889Y3693583D01*
X1515000D01*
Y3735000D01*
D02*
G37*
G36*
X1770000Y3665577D02*
Y3645000D01*
X1790578D01*
X1789228Y3650036D01*
X1785805Y3655964D01*
X1780964Y3660805D01*
X1775036Y3664228D01*
X1770000Y3665577D01*
D02*
G37*
G36*
X1760000D02*
X1754964Y3664228D01*
X1749036Y3660805D01*
X1744195Y3655964D01*
X1740772Y3650036D01*
X1739422Y3645000D01*
X1760000D01*
Y3665577D01*
D02*
G37*
G36*
X1665000D02*
Y3645000D01*
X1685578D01*
X1684228Y3650036D01*
X1680805Y3655964D01*
X1675964Y3660805D01*
X1670036Y3664228D01*
X1665000Y3665577D01*
D02*
G37*
G36*
X1655000D02*
X1649964Y3664228D01*
X1644036Y3660805D01*
X1639195Y3655964D01*
X1635772Y3650036D01*
X1634422Y3645000D01*
X1655000D01*
Y3665577D01*
D02*
G37*
G36*
X1790578Y3635000D02*
X1770000D01*
Y3614423D01*
X1775036Y3615772D01*
X1780964Y3619195D01*
X1785805Y3624036D01*
X1789228Y3629964D01*
X1790578Y3635000D01*
D02*
G37*
G36*
X1760000D02*
X1739422D01*
X1740772Y3629964D01*
X1744195Y3624036D01*
X1749036Y3619195D01*
X1754964Y3615772D01*
X1760000Y3614423D01*
Y3635000D01*
D02*
G37*
G36*
X1685578D02*
X1665000D01*
Y3614423D01*
X1670036Y3615772D01*
X1675964Y3619195D01*
X1680805Y3624036D01*
X1684228Y3629964D01*
X1685578Y3635000D01*
D02*
G37*
G36*
X1655000D02*
X1634422D01*
X1635772Y3629964D01*
X1639195Y3624036D01*
X1644036Y3619195D01*
X1649964Y3615772D01*
X1655000Y3614423D01*
Y3635000D01*
D02*
G37*
%LPD*%
G36*
X3339833Y3609833D02*
X3340000Y3608996D01*
Y3181004D01*
X3339833Y3180167D01*
X3338996Y3180000D01*
X2871004D01*
X2870167Y3180167D01*
X2870000Y3181004D01*
Y3608996D01*
X2870167Y3609833D01*
X2871004Y3610000D01*
X3338996D01*
X3339833Y3609833D01*
D02*
G37*
%LPC*%
G36*
X3050000Y3580577D02*
Y3560000D01*
X3070577D01*
X3069228Y3565036D01*
X3065805Y3570964D01*
X3060964Y3575805D01*
X3055036Y3579228D01*
X3050000Y3580577D01*
D02*
G37*
G36*
X3040000D02*
X3034964Y3579228D01*
X3029036Y3575805D01*
X3024195Y3570964D01*
X3020772Y3565036D01*
X3019423Y3560000D01*
X3040000D01*
Y3580577D01*
D02*
G37*
G36*
X2945000D02*
Y3560000D01*
X2965577D01*
X2964228Y3565036D01*
X2960805Y3570964D01*
X2955964Y3575805D01*
X2950036Y3579228D01*
X2945000Y3580577D01*
D02*
G37*
G36*
X2935000D02*
X2929964Y3579228D01*
X2924036Y3575805D01*
X2919195Y3570964D01*
X2915772Y3565036D01*
X2914423Y3560000D01*
X2935000D01*
Y3580577D01*
D02*
G37*
G36*
X3070577Y3550000D02*
X3050000D01*
Y3529423D01*
X3055036Y3530772D01*
X3060964Y3534195D01*
X3065805Y3539036D01*
X3069228Y3544964D01*
X3070577Y3550000D01*
D02*
G37*
G36*
X3040000D02*
X3019423D01*
X3020772Y3544964D01*
X3024195Y3539036D01*
X3029036Y3534195D01*
X3034964Y3530772D01*
X3040000Y3529423D01*
Y3550000D01*
D02*
G37*
G36*
X2965577D02*
X2945000D01*
Y3529423D01*
X2950036Y3530772D01*
X2955964Y3534195D01*
X2960805Y3539036D01*
X2964228Y3544964D01*
X2965577Y3550000D01*
D02*
G37*
G36*
X2935000D02*
X2914423D01*
X2915772Y3544964D01*
X2919195Y3539036D01*
X2924036Y3534195D01*
X2929964Y3530772D01*
X2935000Y3529423D01*
Y3550000D01*
D02*
G37*
G36*
X3240709Y3586929D02*
X3237520D01*
Y3508780D01*
X3315669D01*
Y3511969D01*
X3312474Y3528033D01*
X3306206Y3543166D01*
X3297106Y3556784D01*
X3285524Y3568366D01*
X3271906Y3577466D01*
X3256773Y3583734D01*
X3240709Y3586929D01*
D02*
G37*
G36*
X3227520D02*
X3224330D01*
X3208266Y3583734D01*
X3193134Y3577466D01*
X3179515Y3568366D01*
X3167933Y3556784D01*
X3158834Y3543166D01*
X3152566Y3528033D01*
X3149370Y3511969D01*
Y3508780D01*
X3227520D01*
Y3586929D01*
D02*
G37*
G36*
X3050000Y3480577D02*
Y3460000D01*
X3070577D01*
X3069228Y3465036D01*
X3065805Y3470964D01*
X3060964Y3475805D01*
X3055036Y3479228D01*
X3050000Y3480577D01*
D02*
G37*
G36*
X3040000D02*
X3034964Y3479228D01*
X3029036Y3475805D01*
X3024195Y3470964D01*
X3020772Y3465036D01*
X3019423Y3460000D01*
X3040000D01*
Y3480577D01*
D02*
G37*
G36*
X2945000D02*
Y3460000D01*
X2965577D01*
X2964228Y3465036D01*
X2960805Y3470964D01*
X2955964Y3475805D01*
X2950036Y3479228D01*
X2945000Y3480577D01*
D02*
G37*
G36*
X2935000D02*
X2929964Y3479228D01*
X2924036Y3475805D01*
X2919195Y3470964D01*
X2915772Y3465036D01*
X2914423Y3460000D01*
X2935000D01*
Y3480577D01*
D02*
G37*
G36*
X3070577Y3450000D02*
X3050000D01*
Y3429423D01*
X3055036Y3430772D01*
X3060964Y3434195D01*
X3065805Y3439036D01*
X3069228Y3444964D01*
X3070577Y3450000D01*
D02*
G37*
G36*
X3040000D02*
X3019423D01*
X3020772Y3444964D01*
X3024195Y3439036D01*
X3029036Y3434195D01*
X3034964Y3430772D01*
X3040000Y3429423D01*
Y3450000D01*
D02*
G37*
G36*
X2965577D02*
X2945000D01*
Y3429423D01*
X2950036Y3430772D01*
X2955964Y3434195D01*
X2960805Y3439036D01*
X2964228Y3444964D01*
X2965577Y3450000D01*
D02*
G37*
G36*
X2935000D02*
X2914423D01*
X2915772Y3444964D01*
X2919195Y3439036D01*
X2924036Y3434195D01*
X2929964Y3430772D01*
X2935000Y3429423D01*
Y3450000D01*
D02*
G37*
G36*
X3315669Y3498780D02*
X3237520D01*
Y3420630D01*
X3240709D01*
X3256773Y3423825D01*
X3271906Y3430093D01*
X3285524Y3439193D01*
X3297106Y3450775D01*
X3306206Y3464393D01*
X3312474Y3479526D01*
X3315669Y3495590D01*
Y3498780D01*
D02*
G37*
G36*
X3227520D02*
X3149370D01*
Y3495590D01*
X3152566Y3479526D01*
X3158834Y3464393D01*
X3167933Y3450775D01*
X3179515Y3439193D01*
X3193134Y3430093D01*
X3208266Y3423825D01*
X3224330Y3420630D01*
X3227520D01*
Y3498780D01*
D02*
G37*
G36*
X3260000Y3370577D02*
Y3350000D01*
X3280577D01*
X3279228Y3355036D01*
X3275805Y3360964D01*
X3270964Y3365805D01*
X3265036Y3369228D01*
X3260000Y3370577D01*
D02*
G37*
G36*
X3250000D02*
X3244964Y3369228D01*
X3239036Y3365805D01*
X3234195Y3360964D01*
X3230772Y3355036D01*
X3229423Y3350000D01*
X3250000D01*
Y3370577D01*
D02*
G37*
G36*
X3155000D02*
Y3350000D01*
X3175577D01*
X3174228Y3355036D01*
X3170805Y3360964D01*
X3165964Y3365805D01*
X3160036Y3369228D01*
X3155000Y3370577D01*
D02*
G37*
G36*
X3145000D02*
X3139964Y3369228D01*
X3134036Y3365805D01*
X3129195Y3360964D01*
X3125772Y3355036D01*
X3124423Y3350000D01*
X3145000D01*
Y3370577D01*
D02*
G37*
G36*
X3050000D02*
Y3350000D01*
X3070577D01*
X3069228Y3355036D01*
X3065805Y3360964D01*
X3060964Y3365805D01*
X3055036Y3369228D01*
X3050000Y3370577D01*
D02*
G37*
G36*
X3040000D02*
X3034964Y3369228D01*
X3029036Y3365805D01*
X3024195Y3360964D01*
X3020772Y3355036D01*
X3019423Y3350000D01*
X3040000D01*
Y3370577D01*
D02*
G37*
G36*
X2945000D02*
Y3350000D01*
X2965577D01*
X2964228Y3355036D01*
X2960805Y3360964D01*
X2955964Y3365805D01*
X2950036Y3369228D01*
X2945000Y3370577D01*
D02*
G37*
G36*
X2935000D02*
X2929964Y3369228D01*
X2924036Y3365805D01*
X2919195Y3360964D01*
X2915772Y3355036D01*
X2914423Y3350000D01*
X2935000D01*
Y3370577D01*
D02*
G37*
G36*
X3280577Y3340000D02*
X3260000D01*
Y3319423D01*
X3265036Y3320772D01*
X3270964Y3324195D01*
X3275805Y3329036D01*
X3279228Y3334964D01*
X3280577Y3340000D01*
D02*
G37*
G36*
X3250000D02*
X3229423D01*
X3230772Y3334964D01*
X3234195Y3329036D01*
X3239036Y3324195D01*
X3244964Y3320772D01*
X3250000Y3319423D01*
Y3340000D01*
D02*
G37*
G36*
X3175577D02*
X3155000D01*
Y3319423D01*
X3160036Y3320772D01*
X3165964Y3324195D01*
X3170805Y3329036D01*
X3174228Y3334964D01*
X3175577Y3340000D01*
D02*
G37*
G36*
X3145000D02*
X3124423D01*
X3125772Y3334964D01*
X3129195Y3329036D01*
X3134036Y3324195D01*
X3139964Y3320772D01*
X3145000Y3319423D01*
Y3340000D01*
D02*
G37*
G36*
X3070577D02*
X3050000D01*
Y3319423D01*
X3055036Y3320772D01*
X3060964Y3324195D01*
X3065805Y3329036D01*
X3069228Y3334964D01*
X3070577Y3340000D01*
D02*
G37*
G36*
X3040000D02*
X3019423D01*
X3020772Y3334964D01*
X3024195Y3329036D01*
X3029036Y3324195D01*
X3034964Y3320772D01*
X3040000Y3319423D01*
Y3340000D01*
D02*
G37*
G36*
X2965577D02*
X2945000D01*
Y3319423D01*
X2950036Y3320772D01*
X2955964Y3324195D01*
X2960805Y3329036D01*
X2964228Y3334964D01*
X2965577Y3340000D01*
D02*
G37*
G36*
X2935000D02*
X2914423D01*
X2915772Y3334964D01*
X2919195Y3329036D01*
X2924036Y3324195D01*
X2929964Y3320772D01*
X2935000Y3319423D01*
Y3340000D01*
D02*
G37*
G36*
X3260000Y3270577D02*
Y3250000D01*
X3280577D01*
X3279228Y3255036D01*
X3275805Y3260964D01*
X3270964Y3265805D01*
X3265036Y3269228D01*
X3260000Y3270577D01*
D02*
G37*
G36*
X3250000D02*
X3244964Y3269228D01*
X3239036Y3265805D01*
X3234195Y3260964D01*
X3230772Y3255036D01*
X3229423Y3250000D01*
X3250000D01*
Y3270577D01*
D02*
G37*
G36*
X3155000D02*
Y3250000D01*
X3175577D01*
X3174228Y3255036D01*
X3170805Y3260964D01*
X3165964Y3265805D01*
X3160036Y3269228D01*
X3155000Y3270577D01*
D02*
G37*
G36*
X3145000D02*
X3139964Y3269228D01*
X3134036Y3265805D01*
X3129195Y3260964D01*
X3125772Y3255036D01*
X3124423Y3250000D01*
X3145000D01*
Y3270577D01*
D02*
G37*
G36*
X3050000D02*
Y3250000D01*
X3070577D01*
X3069228Y3255036D01*
X3065805Y3260964D01*
X3060964Y3265805D01*
X3055036Y3269228D01*
X3050000Y3270577D01*
D02*
G37*
G36*
X3040000D02*
X3034964Y3269228D01*
X3029036Y3265805D01*
X3024195Y3260964D01*
X3020772Y3255036D01*
X3019423Y3250000D01*
X3040000D01*
Y3270577D01*
D02*
G37*
G36*
X2945000D02*
Y3250000D01*
X2965577D01*
X2964228Y3255036D01*
X2960805Y3260964D01*
X2955964Y3265805D01*
X2950036Y3269228D01*
X2945000Y3270577D01*
D02*
G37*
G36*
X2935000D02*
X2929964Y3269228D01*
X2924036Y3265805D01*
X2919195Y3260964D01*
X2915772Y3255036D01*
X2914423Y3250000D01*
X2935000D01*
Y3270577D01*
D02*
G37*
G36*
X3280577Y3240000D02*
X3260000D01*
Y3219423D01*
X3265036Y3220772D01*
X3270964Y3224195D01*
X3275805Y3229036D01*
X3279228Y3234964D01*
X3280577Y3240000D01*
D02*
G37*
G36*
X3250000D02*
X3229423D01*
X3230772Y3234964D01*
X3234195Y3229036D01*
X3239036Y3224195D01*
X3244964Y3220772D01*
X3250000Y3219423D01*
Y3240000D01*
D02*
G37*
G36*
X3175577D02*
X3155000D01*
Y3219423D01*
X3160036Y3220772D01*
X3165964Y3224195D01*
X3170805Y3229036D01*
X3174228Y3234964D01*
X3175577Y3240000D01*
D02*
G37*
G36*
X3145000D02*
X3124423D01*
X3125772Y3234964D01*
X3129195Y3229036D01*
X3134036Y3224195D01*
X3139964Y3220772D01*
X3145000Y3219423D01*
Y3240000D01*
D02*
G37*
G36*
X3070577D02*
X3050000D01*
Y3219423D01*
X3055036Y3220772D01*
X3060964Y3224195D01*
X3065805Y3229036D01*
X3069228Y3234964D01*
X3070577Y3240000D01*
D02*
G37*
G36*
X3040000D02*
X3019423D01*
X3020772Y3234964D01*
X3024195Y3229036D01*
X3029036Y3224195D01*
X3034964Y3220772D01*
X3040000Y3219423D01*
Y3240000D01*
D02*
G37*
G36*
X2965577D02*
X2945000D01*
Y3219423D01*
X2950036Y3220772D01*
X2955964Y3224195D01*
X2960805Y3229036D01*
X2964228Y3234964D01*
X2965577Y3240000D01*
D02*
G37*
G36*
X2935000D02*
X2914423D01*
X2915772Y3234964D01*
X2919195Y3229036D01*
X2924036Y3224195D01*
X2929964Y3220772D01*
X2935000Y3219423D01*
Y3240000D01*
D02*
G37*
%LPD*%
G36*
X2360000Y3171309D02*
X2356746Y3165672D01*
X2353583Y3153867D01*
Y3141645D01*
X2356746Y3129840D01*
X2360000Y3124203D01*
Y3020000D01*
X1940000D01*
Y3220000D01*
X2360000D01*
Y3171309D01*
D02*
G37*
%LPC*%
G36*
X2110000Y3200577D02*
Y3180000D01*
X2130577D01*
X2129228Y3185036D01*
X2125805Y3190964D01*
X2120964Y3195805D01*
X2115036Y3199228D01*
X2110000Y3200577D01*
D02*
G37*
G36*
X2100000D02*
X2094964Y3199228D01*
X2089036Y3195805D01*
X2084195Y3190964D01*
X2080772Y3185036D01*
X2079423Y3180000D01*
X2100000D01*
Y3200577D01*
D02*
G37*
G36*
X2005000D02*
Y3180000D01*
X2025578D01*
X2024228Y3185036D01*
X2020805Y3190964D01*
X2015964Y3195805D01*
X2010036Y3199228D01*
X2005000Y3200577D01*
D02*
G37*
G36*
X1995000D02*
X1989964Y3199228D01*
X1984036Y3195805D01*
X1979195Y3190964D01*
X1975772Y3185036D01*
X1974422Y3180000D01*
X1995000D01*
Y3200577D01*
D02*
G37*
G36*
X2306111Y3194173D02*
X2305000D01*
Y3152756D01*
X2346417D01*
Y3153867D01*
X2343254Y3165672D01*
X2337143Y3176257D01*
X2328501Y3184899D01*
X2317916Y3191010D01*
X2306111Y3194173D01*
D02*
G37*
G36*
X2295000D02*
X2293889D01*
X2282084Y3191010D01*
X2271499Y3184899D01*
X2262857Y3176257D01*
X2256746Y3165672D01*
X2253583Y3153867D01*
Y3152756D01*
X2295000D01*
Y3194173D01*
D02*
G37*
G36*
X2130577Y3170000D02*
X2110000D01*
Y3149423D01*
X2115036Y3150772D01*
X2120964Y3154195D01*
X2125805Y3159036D01*
X2129228Y3164964D01*
X2130577Y3170000D01*
D02*
G37*
G36*
X2100000D02*
X2079423D01*
X2080772Y3164964D01*
X2084195Y3159036D01*
X2089036Y3154195D01*
X2094964Y3150772D01*
X2100000Y3149423D01*
Y3170000D01*
D02*
G37*
G36*
X2025578D02*
X2005000D01*
Y3149423D01*
X2010036Y3150772D01*
X2015964Y3154195D01*
X2020805Y3159036D01*
X2024228Y3164964D01*
X2025578Y3170000D01*
D02*
G37*
G36*
X1995000D02*
X1974422D01*
X1975772Y3164964D01*
X1979195Y3159036D01*
X1984036Y3154195D01*
X1989964Y3150772D01*
X1995000Y3149423D01*
Y3170000D01*
D02*
G37*
G36*
X2346417Y3142756D02*
X2305000D01*
Y3101339D01*
X2306111D01*
X2317916Y3104502D01*
X2328501Y3110613D01*
X2337143Y3119255D01*
X2343254Y3129840D01*
X2346417Y3141645D01*
Y3142756D01*
D02*
G37*
G36*
X2295000D02*
X2253583D01*
Y3141645D01*
X2256746Y3129840D01*
X2262857Y3119255D01*
X2271499Y3110613D01*
X2282084Y3104502D01*
X2293889Y3101339D01*
X2295000D01*
Y3142756D01*
D02*
G37*
G36*
X2110000Y3100577D02*
Y3080000D01*
X2130577D01*
X2129228Y3085036D01*
X2125805Y3090964D01*
X2120964Y3095805D01*
X2115036Y3099228D01*
X2110000Y3100577D01*
D02*
G37*
G36*
X2100000D02*
X2094964Y3099228D01*
X2089036Y3095805D01*
X2084195Y3090964D01*
X2080772Y3085036D01*
X2079423Y3080000D01*
X2100000D01*
Y3100577D01*
D02*
G37*
G36*
X2005000D02*
Y3080000D01*
X2025578D01*
X2024228Y3085036D01*
X2020805Y3090964D01*
X2015964Y3095805D01*
X2010036Y3099228D01*
X2005000Y3100577D01*
D02*
G37*
G36*
X1995000D02*
X1989964Y3099228D01*
X1984036Y3095805D01*
X1979195Y3090964D01*
X1975772Y3085036D01*
X1974422Y3080000D01*
X1995000D01*
Y3100577D01*
D02*
G37*
G36*
X2130577Y3070000D02*
X2110000D01*
Y3049423D01*
X2115036Y3050772D01*
X2120964Y3054195D01*
X2125805Y3059036D01*
X2129228Y3064964D01*
X2130577Y3070000D01*
D02*
G37*
G36*
X2100000D02*
X2079423D01*
X2080772Y3064964D01*
X2084195Y3059036D01*
X2089036Y3054195D01*
X2094964Y3050772D01*
X2100000Y3049423D01*
Y3070000D01*
D02*
G37*
G36*
X2025578D02*
X2005000D01*
Y3049423D01*
X2010036Y3050772D01*
X2015964Y3054195D01*
X2020805Y3059036D01*
X2024228Y3064964D01*
X2025578Y3070000D01*
D02*
G37*
G36*
X1995000D02*
X1974422D01*
X1975772Y3064964D01*
X1979195Y3059036D01*
X1984036Y3054195D01*
X1989964Y3050772D01*
X1995000Y3049423D01*
Y3070000D01*
D02*
G37*
%LPD*%
G36*
X1840000Y2880000D02*
X1432500D01*
Y3065000D01*
Y3080000D01*
X1496447D01*
X1502084Y3076746D01*
X1513889Y3073583D01*
X1526111D01*
X1537916Y3076746D01*
X1543553Y3080000D01*
X1840000D01*
Y2880000D01*
D02*
G37*
%LPC*%
G36*
X1785000Y3050577D02*
Y3030000D01*
X1805578D01*
X1804228Y3035036D01*
X1800805Y3040964D01*
X1795964Y3045805D01*
X1790036Y3049228D01*
X1785000Y3050577D01*
D02*
G37*
G36*
X1775000D02*
X1769964Y3049228D01*
X1764036Y3045805D01*
X1759195Y3040964D01*
X1755772Y3035036D01*
X1754422Y3030000D01*
X1775000D01*
Y3050577D01*
D02*
G37*
G36*
X1680000D02*
Y3030000D01*
X1700578D01*
X1699228Y3035036D01*
X1695805Y3040964D01*
X1690964Y3045805D01*
X1685036Y3049228D01*
X1680000Y3050577D01*
D02*
G37*
G36*
X1670000D02*
X1664964Y3049228D01*
X1659036Y3045805D01*
X1654195Y3040964D01*
X1650772Y3035036D01*
X1649422Y3030000D01*
X1670000D01*
Y3050577D01*
D02*
G37*
G36*
X1526111Y3066417D02*
X1525000D01*
Y3025000D01*
X1566417D01*
Y3026111D01*
X1563254Y3037916D01*
X1557143Y3048501D01*
X1548501Y3057143D01*
X1537916Y3063254D01*
X1526111Y3066417D01*
D02*
G37*
G36*
X1515000D02*
X1513889D01*
X1502084Y3063254D01*
X1491499Y3057143D01*
X1482857Y3048501D01*
X1476746Y3037916D01*
X1473583Y3026111D01*
Y3025000D01*
X1515000D01*
Y3066417D01*
D02*
G37*
G36*
X1805578Y3020000D02*
X1785000D01*
Y2999423D01*
X1790036Y3000772D01*
X1795964Y3004195D01*
X1800805Y3009036D01*
X1804228Y3014964D01*
X1805578Y3020000D01*
D02*
G37*
G36*
X1775000D02*
X1754422D01*
X1755772Y3014964D01*
X1759195Y3009036D01*
X1764036Y3004195D01*
X1769964Y3000772D01*
X1775000Y2999423D01*
Y3020000D01*
D02*
G37*
G36*
X1700578D02*
X1680000D01*
Y2999423D01*
X1685036Y3000772D01*
X1690964Y3004195D01*
X1695805Y3009036D01*
X1699228Y3014964D01*
X1700578Y3020000D01*
D02*
G37*
G36*
X1670000D02*
X1649422D01*
X1650772Y3014964D01*
X1654195Y3009036D01*
X1659036Y3004195D01*
X1664964Y3000772D01*
X1670000Y2999423D01*
Y3020000D01*
D02*
G37*
G36*
X1566417Y3015000D02*
X1525000D01*
Y2973583D01*
X1526111D01*
X1537916Y2976746D01*
X1548501Y2982857D01*
X1557143Y2991499D01*
X1563254Y3002084D01*
X1566417Y3013889D01*
Y3015000D01*
D02*
G37*
G36*
X1515000D02*
X1473583D01*
Y3013889D01*
X1476746Y3002084D01*
X1482857Y2991499D01*
X1491499Y2982857D01*
X1502084Y2976746D01*
X1513889Y2973583D01*
X1515000D01*
Y3015000D01*
D02*
G37*
G36*
X1785000Y2950577D02*
Y2930000D01*
X1805578D01*
X1804228Y2935036D01*
X1800805Y2940964D01*
X1795964Y2945805D01*
X1790036Y2949228D01*
X1785000Y2950577D01*
D02*
G37*
G36*
X1775000D02*
X1769964Y2949228D01*
X1764036Y2945805D01*
X1759195Y2940964D01*
X1755772Y2935036D01*
X1754422Y2930000D01*
X1775000D01*
Y2950577D01*
D02*
G37*
G36*
X1680000D02*
Y2930000D01*
X1700578D01*
X1699228Y2935036D01*
X1695805Y2940964D01*
X1690964Y2945805D01*
X1685036Y2949228D01*
X1680000Y2950577D01*
D02*
G37*
G36*
X1670000D02*
X1664964Y2949228D01*
X1659036Y2945805D01*
X1654195Y2940964D01*
X1650772Y2935036D01*
X1649422Y2930000D01*
X1670000D01*
Y2950577D01*
D02*
G37*
G36*
X1805578Y2920000D02*
X1785000D01*
Y2899423D01*
X1790036Y2900772D01*
X1795964Y2904195D01*
X1800805Y2909036D01*
X1804228Y2914964D01*
X1805578Y2920000D01*
D02*
G37*
G36*
X1775000D02*
X1754422D01*
X1755772Y2914964D01*
X1759195Y2909036D01*
X1764036Y2904195D01*
X1769964Y2900772D01*
X1775000Y2899423D01*
Y2920000D01*
D02*
G37*
G36*
X1700578D02*
X1680000D01*
Y2899423D01*
X1685036Y2900772D01*
X1690964Y2904195D01*
X1695805Y2909036D01*
X1699228Y2914964D01*
X1700578Y2920000D01*
D02*
G37*
G36*
X1670000D02*
X1649422D01*
X1650772Y2914964D01*
X1654195Y2909036D01*
X1659036Y2904195D01*
X1664964Y2900772D01*
X1670000Y2899423D01*
Y2920000D01*
D02*
G37*
%LPD*%
G36*
X1840000Y2160000D02*
X1432500D01*
Y2345000D01*
Y2360000D01*
X1488691D01*
X1494328Y2356746D01*
X1506133Y2353583D01*
X1518355D01*
X1530160Y2356746D01*
X1535797Y2360000D01*
X1840000D01*
Y2160000D01*
D02*
G37*
%LPC*%
G36*
X1785000Y2330577D02*
Y2310000D01*
X1805578D01*
X1804228Y2315036D01*
X1800805Y2320964D01*
X1795964Y2325805D01*
X1790036Y2329228D01*
X1785000Y2330577D01*
D02*
G37*
G36*
X1775000D02*
X1769964Y2329228D01*
X1764036Y2325805D01*
X1759195Y2320964D01*
X1755772Y2315036D01*
X1754422Y2310000D01*
X1775000D01*
Y2330577D01*
D02*
G37*
G36*
X1680000D02*
Y2310000D01*
X1700578D01*
X1699228Y2315036D01*
X1695805Y2320964D01*
X1690964Y2325805D01*
X1685036Y2329228D01*
X1680000Y2330577D01*
D02*
G37*
G36*
X1670000D02*
X1664964Y2329228D01*
X1659036Y2325805D01*
X1654195Y2320964D01*
X1650772Y2315036D01*
X1649422Y2310000D01*
X1670000D01*
Y2330577D01*
D02*
G37*
G36*
X1518355Y2346417D02*
X1517244D01*
Y2305000D01*
X1558661D01*
Y2306111D01*
X1555498Y2317916D01*
X1549387Y2328501D01*
X1540745Y2337143D01*
X1530160Y2343254D01*
X1518355Y2346417D01*
D02*
G37*
G36*
X1507244D02*
X1506133D01*
X1494328Y2343254D01*
X1483743Y2337143D01*
X1475101Y2328501D01*
X1468990Y2317916D01*
X1465827Y2306111D01*
Y2305000D01*
X1507244D01*
Y2346417D01*
D02*
G37*
G36*
X1805578Y2300000D02*
X1785000D01*
Y2279423D01*
X1790036Y2280772D01*
X1795964Y2284195D01*
X1800805Y2289036D01*
X1804228Y2294964D01*
X1805578Y2300000D01*
D02*
G37*
G36*
X1775000D02*
X1754422D01*
X1755772Y2294964D01*
X1759195Y2289036D01*
X1764036Y2284195D01*
X1769964Y2280772D01*
X1775000Y2279423D01*
Y2300000D01*
D02*
G37*
G36*
X1700578D02*
X1680000D01*
Y2279423D01*
X1685036Y2280772D01*
X1690964Y2284195D01*
X1695805Y2289036D01*
X1699228Y2294964D01*
X1700578Y2300000D01*
D02*
G37*
G36*
X1670000D02*
X1649422D01*
X1650772Y2294964D01*
X1654195Y2289036D01*
X1659036Y2284195D01*
X1664964Y2280772D01*
X1670000Y2279423D01*
Y2300000D01*
D02*
G37*
G36*
X1558661Y2295000D02*
X1517244D01*
Y2253583D01*
X1518355D01*
X1530160Y2256746D01*
X1540745Y2262857D01*
X1549387Y2271499D01*
X1555498Y2282084D01*
X1558661Y2293889D01*
Y2295000D01*
D02*
G37*
G36*
X1507244D02*
X1465827D01*
Y2293889D01*
X1468990Y2282084D01*
X1475101Y2271499D01*
X1483743Y2262857D01*
X1494328Y2256746D01*
X1506133Y2253583D01*
X1507244D01*
Y2295000D01*
D02*
G37*
G36*
X1785000Y2230577D02*
Y2210000D01*
X1805578D01*
X1804228Y2215036D01*
X1800805Y2220964D01*
X1795964Y2225805D01*
X1790036Y2229228D01*
X1785000Y2230577D01*
D02*
G37*
G36*
X1775000D02*
X1769964Y2229228D01*
X1764036Y2225805D01*
X1759195Y2220964D01*
X1755772Y2215036D01*
X1754422Y2210000D01*
X1775000D01*
Y2230577D01*
D02*
G37*
G36*
X1680000D02*
Y2210000D01*
X1700578D01*
X1699228Y2215036D01*
X1695805Y2220964D01*
X1690964Y2225805D01*
X1685036Y2229228D01*
X1680000Y2230577D01*
D02*
G37*
G36*
X1670000D02*
X1664964Y2229228D01*
X1659036Y2225805D01*
X1654195Y2220964D01*
X1650772Y2215036D01*
X1649422Y2210000D01*
X1670000D01*
Y2230577D01*
D02*
G37*
G36*
X1805578Y2200000D02*
X1785000D01*
Y2179423D01*
X1790036Y2180772D01*
X1795964Y2184195D01*
X1800805Y2189036D01*
X1804228Y2194964D01*
X1805578Y2200000D01*
D02*
G37*
G36*
X1775000D02*
X1754422D01*
X1755772Y2194964D01*
X1759195Y2189036D01*
X1764036Y2184195D01*
X1769964Y2180772D01*
X1775000Y2179423D01*
Y2200000D01*
D02*
G37*
G36*
X1700578D02*
X1680000D01*
Y2179423D01*
X1685036Y2180772D01*
X1690964Y2184195D01*
X1695805Y2189036D01*
X1699228Y2194964D01*
X1700578Y2200000D01*
D02*
G37*
G36*
X1670000D02*
X1649422D01*
X1650772Y2194964D01*
X1654195Y2189036D01*
X1659036Y2184195D01*
X1664964Y2180772D01*
X1670000Y2179423D01*
Y2200000D01*
D02*
G37*
%LPD*%
D26*
X3515984Y3503780D02*
D03*
X2587480D02*
D03*
D27*
X3108504Y3740000D02*
D03*
X3640000D02*
D03*
X2180000D02*
D03*
X2711496D02*
D03*
D28*
X3232520Y3503780D02*
D03*
X2304016D02*
D03*
D29*
X3650000Y890000D02*
D03*
X3200000Y1606850D02*
D03*
Y2308425D02*
D03*
X3650000Y1608425D02*
D03*
X3200000Y886850D02*
D03*
X3660000Y2305276D02*
D03*
D30*
X3650000Y791575D02*
D03*
Y693150D02*
D03*
Y594724D02*
D03*
X3200000Y1311575D02*
D03*
Y1508425D02*
D03*
Y1410000D02*
D03*
Y2013150D02*
D03*
Y2210000D02*
D03*
Y2111575D02*
D03*
X3650000Y1313150D02*
D03*
Y1510000D02*
D03*
Y1411575D02*
D03*
X3660000Y2206850D02*
D03*
Y2108425D02*
D03*
X3200000Y690000D02*
D03*
X3660000Y2010000D02*
D03*
X3200000Y591575D02*
D03*
Y788425D02*
D03*
D31*
X3571260Y952992D02*
D03*
X3121260Y1669842D02*
D03*
Y2371417D02*
D03*
X3571260Y1671417D02*
D03*
X3581260Y2368268D02*
D03*
X3121260Y949842D02*
D03*
D32*
X1078110Y3125039D02*
D03*
Y3825039D02*
D03*
X1076220Y2400000D02*
D03*
D33*
X1020000Y1439213D02*
D03*
Y1573071D02*
D03*
X1170000Y1640000D02*
D03*
Y1506142D02*
D03*
D34*
X520000Y1380000D02*
D03*
D35*
X1512244Y2300000D02*
D03*
X1520000Y3740000D02*
D03*
Y3020000D02*
D03*
X2300000Y3147756D02*
D03*
X2400000D02*
D03*
X1520000Y3120000D02*
D03*
Y3840000D02*
D03*
X1512244Y2400000D02*
D03*
D36*
X2100000Y2417500D02*
D03*
X2700000Y2617500D02*
D03*
Y1617500D02*
D03*
Y1917500D02*
D03*
Y2717500D02*
D03*
Y2517500D02*
D03*
Y2417500D02*
D03*
Y2317500D02*
D03*
Y2217500D02*
D03*
Y2117500D02*
D03*
Y2017500D02*
D03*
Y1817500D02*
D03*
Y1717500D02*
D03*
Y1517500D02*
D03*
Y1417500D02*
D03*
Y1317500D02*
D03*
X2100000D02*
D03*
Y1417500D02*
D03*
Y1517500D02*
D03*
Y1617500D02*
D03*
Y1717500D02*
D03*
Y1817500D02*
D03*
Y1917500D02*
D03*
Y2017500D02*
D03*
Y2117500D02*
D03*
Y2217500D02*
D03*
Y2317500D02*
D03*
Y2517500D02*
D03*
Y2617500D02*
D03*
D37*
Y2717500D02*
D03*
D38*
X1020000Y1706929D02*
D03*
D39*
X720000Y1380000D02*
D03*
D40*
X2500000Y3147756D02*
D03*
D41*
X1520000Y3220000D02*
D03*
Y3940000D02*
D03*
X1512244Y2500000D02*
D03*
D42*
X841890Y3125039D02*
D03*
Y3825039D02*
D03*
X840000Y2400000D02*
D03*
D43*
X960000Y3640000D02*
D03*
Y2940000D02*
D03*
X958110Y2214961D02*
D03*
D44*
X2870000Y460000D02*
D03*
X715000Y1169055D02*
D03*
X595000D02*
D03*
X476148Y1163852D02*
D03*
X3681306Y3553083D02*
D03*
X3786306D02*
D03*
X3681306Y3453083D02*
D03*
X3786306D02*
D03*
X3681306Y3343083D02*
D03*
X3786306D02*
D03*
X3681306Y3243083D02*
D03*
X3786306D02*
D03*
X3471306Y3343083D02*
D03*
X3576306D02*
D03*
X3471306Y3243083D02*
D03*
X3576306D02*
D03*
X1345000Y1100000D02*
D03*
X1225000D02*
D03*
X1105000D02*
D03*
X1020000Y1360000D02*
D03*
Y1240000D02*
D03*
Y1300000D02*
D03*
X3045000Y3555000D02*
D03*
X2940000D02*
D03*
Y3455000D02*
D03*
X3045000D02*
D03*
Y3345000D02*
D03*
X2940000D02*
D03*
Y3245000D02*
D03*
X3045000D02*
D03*
X3255000D02*
D03*
X3150000D02*
D03*
X3255000Y3345000D02*
D03*
X3150000D02*
D03*
X2000000Y3175000D02*
D03*
X2105000D02*
D03*
X2000000Y3075000D02*
D03*
X2105000D02*
D03*
X475000Y405000D02*
D03*
X595000D02*
D03*
X715000D02*
D03*
X1225000Y420000D02*
D03*
X1105000D02*
D03*
X520092Y1540499D02*
D03*
X890000Y1570000D02*
D03*
X1260000Y1980000D02*
D03*
X1345000Y420000D02*
D03*
X1840000Y425000D02*
D03*
X1675000Y2305000D02*
D03*
X1780000D02*
D03*
X1675000Y2205000D02*
D03*
X1780000D02*
D03*
Y2925000D02*
D03*
X1675000D02*
D03*
X1780000Y3025000D02*
D03*
X1675000D02*
D03*
X1765000Y3640000D02*
D03*
X1660000D02*
D03*
X1765000Y3740000D02*
D03*
X1660000D02*
D03*
X1832344Y1152115D02*
D03*
X1932344D02*
D03*
Y1252115D02*
D03*
Y1352115D02*
D03*
X1832344D02*
D03*
Y1252115D02*
D03*
D45*
X850000Y1920000D02*
D03*
X2865000Y2675000D02*
D03*
X2860000Y2960000D02*
D03*
X3085000Y2675000D02*
D03*
X3080000Y2950000D02*
D03*
%TF.MD5,d452f5c4c599db808615e1c44732085d*%
M02*
