%TF.GenerationSoftware,Altium Limited,Altium Designer,26.2.0 (7)*%
G04 Layer_Physical_Order=1*
G04 Layer_Color=255*
%FSLAX26Y26*%
%MOIN*%
%TF.SameCoordinates,BFFBF56A-88E4-4E4F-BB2B-E6BA23CB032A*%
%TF.FilePolarity,Positive*%
%TF.FileFunction,Copper,L1,Top,Signal*%
%TF.Part,Single*%
G01*
G75*
%TA.AperFunction,SMDPad,CuDef*%
%ADD10R,0.062992X0.098425*%
%ADD11R,0.062992X0.137795*%
%ADD12R,0.086614X0.169291*%
%ADD13R,0.035433X0.031496*%
%ADD14R,0.035433X0.047244*%
%ADD15R,0.098425X0.137795*%
%ADD16R,0.055118X0.037402*%
%ADD17R,0.053150X0.043307*%
%ADD18R,0.037594X0.053394*%
%ADD19R,0.045450X0.053394*%
%ADD20R,0.043307X0.043307*%
%TA.AperFunction,Conductor*%
%ADD21C,0.010000*%
%ADD22C,0.015000*%
%ADD23C,0.020000*%
%ADD24C,0.045000*%
%ADD25C,0.040000*%
%TA.AperFunction,ComponentPad*%
%ADD26R,0.146299X0.146299*%
%ADD27O,0.047244X0.094488*%
%ADD28C,0.146299*%
%ADD29R,0.055118X0.055118*%
%ADD30C,0.055118*%
%ADD31C,0.043307*%
%ADD32R,0.059055X0.157480*%
%ADD33C,0.066929*%
%ADD34C,0.062992*%
%ADD35C,0.072835*%
%ADD36C,0.055669*%
%ADD37R,0.055669X0.055669*%
%ADD38R,0.066929X0.066929*%
%ADD39R,0.062992X0.062992*%
%ADD40R,0.072835X0.072835*%
%ADD41R,0.072835X0.072835*%
%ADD42R,0.059055X0.137795*%
%ADD43R,0.137795X0.059055*%
%TA.AperFunction,ViaPad*%
%ADD44C,0.032000*%
%ADD45C,0.024000*%
G36*
X1080000Y1200000D02*
X960000D01*
Y1485000D01*
X1080000D01*
Y1200000D01*
D02*
G37*
G36*
X1417362Y2448701D02*
X1567362D01*
Y2350000D01*
X1418662D01*
X1348661Y2280000D01*
X767362D01*
Y2520000D01*
X1346062D01*
X1417362Y2448701D01*
D02*
G37*
G36*
X1430000Y3170000D02*
X1580000D01*
Y3070000D01*
X1430000D01*
X1370000Y3010000D01*
X780000D01*
Y3240000D01*
X1359999D01*
X1430000Y3170000D01*
D02*
G37*
G36*
X1431102Y3886309D02*
X1513485D01*
X1502084Y3883254D01*
X1491499Y3877143D01*
X1482857Y3868501D01*
X1476746Y3857916D01*
X1473583Y3846111D01*
Y3845000D01*
X1566417D01*
Y3846111D01*
X1563254Y3857916D01*
X1557143Y3868501D01*
X1548501Y3877143D01*
X1537916Y3883254D01*
X1526515Y3886309D01*
X1581102D01*
Y3786309D01*
X1526515D01*
X1526111Y3786417D01*
X1513889D01*
X1513485Y3786309D01*
X1431102D01*
X1354793Y3710000D01*
X781102D01*
Y3940000D01*
X1377410D01*
X1431102Y3886309D01*
D02*
G37*
G36*
X1990000Y1100000D02*
X1780000D01*
Y1402500D01*
X1990000D01*
Y1100000D01*
D02*
G37*
G36*
X2410000Y3370000D02*
X2460000Y3320000D01*
Y3194173D01*
X2453583D01*
Y3101339D01*
X2460000D01*
Y3090000D01*
X2340000D01*
Y3124203D01*
X2343254Y3129840D01*
X2346417Y3141645D01*
Y3153867D01*
X2343254Y3165672D01*
X2340000Y3171309D01*
Y3340000D01*
X2320000Y3360000D01*
X2200000D01*
Y3600000D01*
X2410000D01*
Y3370000D01*
D02*
G37*
G36*
X3340000Y3180000D02*
X2870000D01*
Y3610000D01*
X3340000D01*
Y3180000D01*
D02*
G37*
G36*
X3870000D02*
X3400000D01*
Y3610000D01*
X3870000D01*
Y3180000D01*
D02*
G37*
%LPC*%
G36*
X1025722Y1482677D02*
X1025000D01*
Y1444213D01*
X1063465D01*
Y1444935D01*
X1060503Y1455989D01*
X1054780Y1465900D01*
X1046688Y1473993D01*
X1036777Y1479715D01*
X1025722Y1482677D01*
D02*
G37*
G36*
X1015000D02*
X1014278D01*
X1003223Y1479715D01*
X993312Y1473993D01*
X985220Y1465900D01*
X979497Y1455989D01*
X976535Y1444935D01*
Y1444213D01*
X1015000D01*
Y1482677D01*
D02*
G37*
G36*
X1063465Y1434213D02*
X1025000D01*
Y1395748D01*
X1025722D01*
X1036777Y1398710D01*
X1046688Y1404432D01*
X1054780Y1412525D01*
X1060503Y1422436D01*
X1063465Y1433490D01*
Y1434213D01*
D02*
G37*
G36*
X1015000D02*
X976535D01*
Y1433490D01*
X979497Y1422436D01*
X985220Y1412525D01*
X993312Y1404432D01*
X1003223Y1398710D01*
X1014278Y1395748D01*
X1015000D01*
Y1434213D01*
D02*
G37*
G36*
X1025000Y1385578D02*
Y1365000D01*
X1045578D01*
X1044228Y1370036D01*
X1040805Y1375964D01*
X1035964Y1380805D01*
X1030036Y1384228D01*
X1025000Y1385578D01*
D02*
G37*
G36*
X1015000D02*
X1009964Y1384228D01*
X1004036Y1380805D01*
X999195Y1375964D01*
X995772Y1370036D01*
X994423Y1365000D01*
X1015000D01*
Y1385578D01*
D02*
G37*
G36*
X1045578Y1355000D02*
X1025000D01*
Y1334422D01*
X1030036Y1335772D01*
X1035964Y1339195D01*
X1040805Y1344036D01*
X1044228Y1349964D01*
X1045578Y1355000D01*
D02*
G37*
G36*
X1015000D02*
X994423D01*
X995772Y1349964D01*
X999195Y1344036D01*
X1004036Y1339195D01*
X1009964Y1335772D01*
X1015000Y1334422D01*
Y1355000D01*
D02*
G37*
G36*
X1025000Y1325578D02*
Y1305000D01*
X1045578D01*
X1044228Y1310036D01*
X1040805Y1315964D01*
X1035964Y1320805D01*
X1030036Y1324228D01*
X1025000Y1325578D01*
D02*
G37*
G36*
X1015000D02*
X1009964Y1324228D01*
X1004036Y1320805D01*
X999195Y1315964D01*
X995772Y1310036D01*
X994423Y1305000D01*
X1015000D01*
Y1325578D01*
D02*
G37*
G36*
X1045578Y1295000D02*
X1025000D01*
Y1274422D01*
X1030036Y1275772D01*
X1035964Y1279195D01*
X1040805Y1284036D01*
X1044228Y1289964D01*
X1045578Y1295000D01*
D02*
G37*
G36*
X1015000D02*
X994423D01*
X995772Y1289964D01*
X999195Y1284036D01*
X1004036Y1279195D01*
X1009964Y1275772D01*
X1015000Y1274422D01*
Y1295000D01*
D02*
G37*
G36*
X1025000Y1265578D02*
Y1245000D01*
X1045578D01*
X1044228Y1250036D01*
X1040805Y1255964D01*
X1035964Y1260805D01*
X1030036Y1264228D01*
X1025000Y1265578D01*
D02*
G37*
G36*
X1015000D02*
X1009964Y1264228D01*
X1004036Y1260805D01*
X999195Y1255964D01*
X995772Y1250036D01*
X994423Y1245000D01*
X1015000D01*
Y1265578D01*
D02*
G37*
G36*
X1045578Y1235000D02*
X1025000D01*
Y1214422D01*
X1030036Y1215772D01*
X1035964Y1219195D01*
X1040805Y1224036D01*
X1044228Y1229964D01*
X1045578Y1235000D01*
D02*
G37*
G36*
X1015000D02*
X994423D01*
X995772Y1229964D01*
X999195Y1224036D01*
X1004036Y1219195D01*
X1009964Y1215772D01*
X1015000Y1214422D01*
Y1235000D01*
D02*
G37*
G36*
X879528Y2478898D02*
X845000D01*
Y2405000D01*
X879528D01*
Y2478898D01*
D02*
G37*
G36*
X1518355Y2446417D02*
X1517244D01*
Y2405000D01*
X1558661D01*
Y2406111D01*
X1555498Y2417916D01*
X1549387Y2428501D01*
X1540745Y2437143D01*
X1530160Y2443254D01*
X1518355Y2446417D01*
D02*
G37*
G36*
X1507244D02*
X1506133D01*
X1494328Y2443254D01*
X1483743Y2437143D01*
X1475101Y2428501D01*
X1468990Y2417916D01*
X1465827Y2406111D01*
Y2405000D01*
X1507244D01*
Y2446417D01*
D02*
G37*
G36*
X835000Y2478898D02*
X800472D01*
Y2405000D01*
X835000D01*
Y2478898D01*
D02*
G37*
G36*
X1558661Y2395000D02*
X1517244D01*
Y2353583D01*
X1518355D01*
X1530160Y2356746D01*
X1540745Y2362857D01*
X1549387Y2371499D01*
X1555498Y2382084D01*
X1558661Y2393889D01*
Y2395000D01*
D02*
G37*
G36*
X1507244D02*
X1465827D01*
Y2393889D01*
X1468990Y2382084D01*
X1475101Y2371499D01*
X1483743Y2362857D01*
X1494328Y2356746D01*
X1506133Y2353583D01*
X1507244D01*
Y2395000D01*
D02*
G37*
G36*
X879528D02*
X845000D01*
Y2321102D01*
X879528D01*
Y2395000D01*
D02*
G37*
G36*
X835000D02*
X800472D01*
Y2321102D01*
X835000D01*
Y2395000D01*
D02*
G37*
G36*
X1115748Y2488740D02*
X1036693D01*
Y2311260D01*
X1115748D01*
Y2488740D01*
D02*
G37*
G36*
X881417Y3203937D02*
X846890D01*
Y3130039D01*
X881417D01*
Y3203937D01*
D02*
G37*
G36*
X836890D02*
X802362D01*
Y3130039D01*
X836890D01*
Y3203937D01*
D02*
G37*
G36*
X1526111Y3166417D02*
X1525000D01*
Y3125000D01*
X1566417D01*
Y3126111D01*
X1563254Y3137916D01*
X1557143Y3148501D01*
X1548501Y3157143D01*
X1537916Y3163254D01*
X1526111Y3166417D01*
D02*
G37*
G36*
X1515000D02*
X1513889D01*
X1502084Y3163254D01*
X1491499Y3157143D01*
X1482857Y3148501D01*
X1476746Y3137916D01*
X1473583Y3126111D01*
Y3125000D01*
X1515000D01*
Y3166417D01*
D02*
G37*
G36*
X1566417Y3115000D02*
X1525000D01*
Y3073583D01*
X1526111D01*
X1537916Y3076746D01*
X1548501Y3082857D01*
X1557143Y3091499D01*
X1563254Y3102084D01*
X1566417Y3113889D01*
Y3115000D01*
D02*
G37*
G36*
X1515000D02*
X1473583D01*
Y3113889D01*
X1476746Y3102084D01*
X1482857Y3091499D01*
X1491499Y3082857D01*
X1502084Y3076746D01*
X1513889Y3073583D01*
X1515000D01*
Y3115000D01*
D02*
G37*
G36*
X881417Y3120039D02*
X846890D01*
Y3046142D01*
X881417D01*
Y3120039D01*
D02*
G37*
G36*
X836890D02*
X802362D01*
Y3046142D01*
X836890D01*
Y3120039D01*
D02*
G37*
G36*
X1117638Y3213780D02*
X1038583D01*
Y3036299D01*
X1117638D01*
Y3213780D01*
D02*
G37*
G36*
X881417Y3903937D02*
X846890D01*
Y3830039D01*
X881417D01*
Y3903937D01*
D02*
G37*
G36*
X836890D02*
X802362D01*
Y3830039D01*
X836890D01*
Y3903937D01*
D02*
G37*
G36*
X1566417Y3835000D02*
X1525000D01*
Y3793583D01*
X1526111D01*
X1537916Y3796746D01*
X1548501Y3802857D01*
X1557143Y3811499D01*
X1563254Y3822084D01*
X1566417Y3833889D01*
Y3835000D01*
D02*
G37*
G36*
X1515000D02*
X1473583D01*
Y3833889D01*
X1476746Y3822084D01*
X1482857Y3811499D01*
X1491499Y3802857D01*
X1502084Y3796746D01*
X1513889Y3793583D01*
X1515000D01*
Y3835000D01*
D02*
G37*
G36*
X881417Y3820039D02*
X846890D01*
Y3746142D01*
X881417D01*
Y3820039D01*
D02*
G37*
G36*
X836890D02*
X802362D01*
Y3746142D01*
X836890D01*
Y3820039D01*
D02*
G37*
G36*
X1117638Y3913780D02*
X1038583D01*
Y3736299D01*
X1117638D01*
Y3913780D01*
D02*
G37*
G36*
X1937344Y1377692D02*
Y1357115D01*
X1957922D01*
X1956572Y1362150D01*
X1953149Y1368079D01*
X1948309Y1372920D01*
X1942380Y1376343D01*
X1937344Y1377692D01*
D02*
G37*
G36*
X1927344D02*
X1922309Y1376343D01*
X1916380Y1372920D01*
X1911539Y1368079D01*
X1908116Y1362150D01*
X1906767Y1357115D01*
X1927344D01*
Y1377692D01*
D02*
G37*
G36*
X1837344D02*
Y1357115D01*
X1857922D01*
X1856572Y1362150D01*
X1853149Y1368079D01*
X1848309Y1372920D01*
X1842380Y1376343D01*
X1837344Y1377692D01*
D02*
G37*
G36*
X1827344D02*
X1822309Y1376343D01*
X1816380Y1372920D01*
X1811539Y1368079D01*
X1808116Y1362150D01*
X1806767Y1357115D01*
X1827344D01*
Y1377692D01*
D02*
G37*
G36*
X1957922Y1347115D02*
X1937344D01*
Y1326537D01*
X1942380Y1327886D01*
X1948309Y1331309D01*
X1953149Y1336150D01*
X1956572Y1342079D01*
X1957922Y1347115D01*
D02*
G37*
G36*
X1927344D02*
X1906767D01*
X1908116Y1342079D01*
X1911539Y1336150D01*
X1916380Y1331309D01*
X1922309Y1327886D01*
X1927344Y1326537D01*
Y1347115D01*
D02*
G37*
G36*
X1857922D02*
X1837344D01*
Y1326537D01*
X1842380Y1327886D01*
X1848309Y1331309D01*
X1853149Y1336150D01*
X1856572Y1342079D01*
X1857922Y1347115D01*
D02*
G37*
G36*
X1827344D02*
X1806767D01*
X1808116Y1342079D01*
X1811539Y1336150D01*
X1816380Y1331309D01*
X1822309Y1327886D01*
X1827344Y1326537D01*
Y1347115D01*
D02*
G37*
G36*
X1937344Y1277692D02*
Y1257115D01*
X1957922D01*
X1956572Y1262150D01*
X1953149Y1268079D01*
X1948309Y1272920D01*
X1942380Y1276343D01*
X1937344Y1277692D01*
D02*
G37*
G36*
X1927344D02*
X1922309Y1276343D01*
X1916380Y1272920D01*
X1911539Y1268079D01*
X1908116Y1262150D01*
X1906767Y1257115D01*
X1927344D01*
Y1277692D01*
D02*
G37*
G36*
X1837344D02*
Y1257115D01*
X1857922D01*
X1856572Y1262150D01*
X1853149Y1268079D01*
X1848309Y1272920D01*
X1842380Y1276343D01*
X1837344Y1277692D01*
D02*
G37*
G36*
X1827344D02*
X1822309Y1276343D01*
X1816380Y1272920D01*
X1811539Y1268079D01*
X1808116Y1262150D01*
X1806767Y1257115D01*
X1827344D01*
Y1277692D01*
D02*
G37*
G36*
X1957922Y1247115D02*
X1937344D01*
Y1226537D01*
X1942380Y1227886D01*
X1948309Y1231309D01*
X1953149Y1236150D01*
X1956572Y1242079D01*
X1957922Y1247115D01*
D02*
G37*
G36*
X1927344D02*
X1906767D01*
X1908116Y1242079D01*
X1911539Y1236150D01*
X1916380Y1231309D01*
X1922309Y1227886D01*
X1927344Y1226537D01*
Y1247115D01*
D02*
G37*
G36*
X1857922D02*
X1837344D01*
Y1226537D01*
X1842380Y1227886D01*
X1848309Y1231309D01*
X1853149Y1236150D01*
X1856572Y1242079D01*
X1857922Y1247115D01*
D02*
G37*
G36*
X1827344D02*
X1806767D01*
X1808116Y1242079D01*
X1811539Y1236150D01*
X1816380Y1231309D01*
X1822309Y1227886D01*
X1827344Y1226537D01*
Y1247115D01*
D02*
G37*
G36*
X1937344Y1177692D02*
Y1157115D01*
X1957922D01*
X1956572Y1162150D01*
X1953149Y1168079D01*
X1948309Y1172920D01*
X1942380Y1176343D01*
X1937344Y1177692D01*
D02*
G37*
G36*
X1927344D02*
X1922309Y1176343D01*
X1916380Y1172920D01*
X1911539Y1168079D01*
X1908116Y1162150D01*
X1906767Y1157115D01*
X1927344D01*
Y1177692D01*
D02*
G37*
G36*
X1837344D02*
Y1157115D01*
X1857922D01*
X1856572Y1162150D01*
X1853149Y1168079D01*
X1848309Y1172920D01*
X1842380Y1176343D01*
X1837344Y1177692D01*
D02*
G37*
G36*
X1827344D02*
X1822309Y1176343D01*
X1816380Y1172920D01*
X1811539Y1168079D01*
X1808116Y1162150D01*
X1806767Y1157115D01*
X1827344D01*
Y1177692D01*
D02*
G37*
G36*
X1957922Y1147115D02*
X1937344D01*
Y1126537D01*
X1942380Y1127886D01*
X1948309Y1131309D01*
X1953149Y1136150D01*
X1956572Y1142079D01*
X1957922Y1147115D01*
D02*
G37*
G36*
X1927344D02*
X1906767D01*
X1908116Y1142079D01*
X1911539Y1136150D01*
X1916380Y1131309D01*
X1922309Y1127886D01*
X1927344Y1126537D01*
Y1147115D01*
D02*
G37*
G36*
X1857922D02*
X1837344D01*
Y1126537D01*
X1842380Y1127886D01*
X1848309Y1131309D01*
X1853149Y1136150D01*
X1856572Y1142079D01*
X1857922Y1147115D01*
D02*
G37*
G36*
X1827344D02*
X1806767D01*
X1808116Y1142079D01*
X1811539Y1136150D01*
X1816380Y1131309D01*
X1822309Y1127886D01*
X1827344Y1126537D01*
Y1147115D01*
D02*
G37*
G36*
X2312205Y3586929D02*
X2309016D01*
Y3508780D01*
X2387165D01*
Y3511969D01*
X2383970Y3528033D01*
X2377702Y3543166D01*
X2368602Y3556784D01*
X2357021Y3568366D01*
X2343402Y3577466D01*
X2328269Y3583734D01*
X2312205Y3586929D01*
D02*
G37*
G36*
X2299016D02*
X2295826D01*
X2279762Y3583734D01*
X2264630Y3577466D01*
X2251011Y3568366D01*
X2239429Y3556784D01*
X2230329Y3543166D01*
X2224061Y3528033D01*
X2220866Y3511969D01*
Y3508780D01*
X2299016D01*
Y3586929D01*
D02*
G37*
G36*
X2387165Y3498780D02*
X2309016D01*
Y3420630D01*
X2312205D01*
X2328269Y3423825D01*
X2343402Y3430093D01*
X2357021Y3439193D01*
X2368602Y3450775D01*
X2377702Y3464393D01*
X2383970Y3479526D01*
X2387165Y3495590D01*
Y3498780D01*
D02*
G37*
G36*
X2299016D02*
X2220866D01*
Y3495590D01*
X2224061Y3479526D01*
X2230329Y3464393D01*
X2239429Y3450775D01*
X2251011Y3439193D01*
X2264630Y3430093D01*
X2279762Y3423825D01*
X2295826Y3420630D01*
X2299016D01*
Y3498780D01*
D02*
G37*
G36*
X2406111Y3194173D02*
X2405000D01*
Y3152756D01*
X2446417D01*
Y3153867D01*
X2443254Y3165672D01*
X2437143Y3176257D01*
X2428501Y3184899D01*
X2417916Y3191010D01*
X2406111Y3194173D01*
D02*
G37*
G36*
X2395000D02*
X2393889D01*
X2382084Y3191010D01*
X2371499Y3184899D01*
X2362857Y3176257D01*
X2356746Y3165672D01*
X2353583Y3153867D01*
Y3152756D01*
X2395000D01*
Y3194173D01*
D02*
G37*
G36*
X2446417Y3142756D02*
X2405000D01*
Y3101339D01*
X2406111D01*
X2417916Y3104502D01*
X2428501Y3110613D01*
X2437143Y3119255D01*
X2443254Y3129840D01*
X2446417Y3141645D01*
Y3142756D01*
D02*
G37*
G36*
X2395000D02*
X2353583D01*
Y3141645D01*
X2356746Y3129840D01*
X2362857Y3119255D01*
X2371499Y3110613D01*
X2382084Y3104502D01*
X2393889Y3101339D01*
X2395000D01*
Y3142756D01*
D02*
G37*
G36*
X3050000Y3580577D02*
Y3560000D01*
X3070577D01*
X3069228Y3565036D01*
X3065805Y3570964D01*
X3060964Y3575805D01*
X3055036Y3579228D01*
X3050000Y3580577D01*
D02*
G37*
G36*
X3040000D02*
X3034964Y3579228D01*
X3029036Y3575805D01*
X3024195Y3570964D01*
X3020772Y3565036D01*
X3019423Y3560000D01*
X3040000D01*
Y3580577D01*
D02*
G37*
G36*
X2945000D02*
Y3560000D01*
X2965577D01*
X2964228Y3565036D01*
X2960805Y3570964D01*
X2955964Y3575805D01*
X2950036Y3579228D01*
X2945000Y3580577D01*
D02*
G37*
G36*
X2935000D02*
X2929964Y3579228D01*
X2924036Y3575805D01*
X2919195Y3570964D01*
X2915772Y3565036D01*
X2914423Y3560000D01*
X2935000D01*
Y3580577D01*
D02*
G37*
G36*
X3070577Y3550000D02*
X3050000D01*
Y3529423D01*
X3055036Y3530772D01*
X3060964Y3534195D01*
X3065805Y3539036D01*
X3069228Y3544964D01*
X3070577Y3550000D01*
D02*
G37*
G36*
X3040000D02*
X3019423D01*
X3020772Y3544964D01*
X3024195Y3539036D01*
X3029036Y3534195D01*
X3034964Y3530772D01*
X3040000Y3529423D01*
Y3550000D01*
D02*
G37*
G36*
X2965577D02*
X2945000D01*
Y3529423D01*
X2950036Y3530772D01*
X2955964Y3534195D01*
X2960805Y3539036D01*
X2964228Y3544964D01*
X2965577Y3550000D01*
D02*
G37*
G36*
X2935000D02*
X2914423D01*
X2915772Y3544964D01*
X2919195Y3539036D01*
X2924036Y3534195D01*
X2929964Y3530772D01*
X2935000Y3529423D01*
Y3550000D01*
D02*
G37*
G36*
X3240709Y3586929D02*
X3237520D01*
Y3508780D01*
X3315669D01*
Y3511969D01*
X3312474Y3528033D01*
X3306206Y3543166D01*
X3297106Y3556784D01*
X3285524Y3568366D01*
X3271906Y3577466D01*
X3256773Y3583734D01*
X3240709Y3586929D01*
D02*
G37*
G36*
X3227520D02*
X3224330D01*
X3208266Y3583734D01*
X3193134Y3577466D01*
X3179515Y3568366D01*
X3167933Y3556784D01*
X3158834Y3543166D01*
X3152566Y3528033D01*
X3149370Y3511969D01*
Y3508780D01*
X3227520D01*
Y3586929D01*
D02*
G37*
G36*
X3050000Y3480577D02*
Y3460000D01*
X3070577D01*
X3069228Y3465036D01*
X3065805Y3470964D01*
X3060964Y3475805D01*
X3055036Y3479228D01*
X3050000Y3480577D01*
D02*
G37*
G36*
X3040000D02*
X3034964Y3479228D01*
X3029036Y3475805D01*
X3024195Y3470964D01*
X3020772Y3465036D01*
X3019423Y3460000D01*
X3040000D01*
Y3480577D01*
D02*
G37*
G36*
X2945000D02*
Y3460000D01*
X2965577D01*
X2964228Y3465036D01*
X2960805Y3470964D01*
X2955964Y3475805D01*
X2950036Y3479228D01*
X2945000Y3480577D01*
D02*
G37*
G36*
X2935000D02*
X2929964Y3479228D01*
X2924036Y3475805D01*
X2919195Y3470964D01*
X2915772Y3465036D01*
X2914423Y3460000D01*
X2935000D01*
Y3480577D01*
D02*
G37*
G36*
X3070577Y3450000D02*
X3050000D01*
Y3429423D01*
X3055036Y3430772D01*
X3060964Y3434195D01*
X3065805Y3439036D01*
X3069228Y3444964D01*
X3070577Y3450000D01*
D02*
G37*
G36*
X3040000D02*
X3019423D01*
X3020772Y3444964D01*
X3024195Y3439036D01*
X3029036Y3434195D01*
X3034964Y3430772D01*
X3040000Y3429423D01*
Y3450000D01*
D02*
G37*
G36*
X2965577D02*
X2945000D01*
Y3429423D01*
X2950036Y3430772D01*
X2955964Y3434195D01*
X2960805Y3439036D01*
X2964228Y3444964D01*
X2965577Y3450000D01*
D02*
G37*
G36*
X2935000D02*
X2914423D01*
X2915772Y3444964D01*
X2919195Y3439036D01*
X2924036Y3434195D01*
X2929964Y3430772D01*
X2935000Y3429423D01*
Y3450000D01*
D02*
G37*
G36*
X3315669Y3498780D02*
X3237520D01*
Y3420630D01*
X3240709D01*
X3256773Y3423825D01*
X3271906Y3430093D01*
X3285524Y3439193D01*
X3297106Y3450775D01*
X3306206Y3464393D01*
X3312474Y3479526D01*
X3315669Y3495590D01*
Y3498780D01*
D02*
G37*
G36*
X3227520D02*
X3149370D01*
Y3495590D01*
X3152566Y3479526D01*
X3158834Y3464393D01*
X3167933Y3450775D01*
X3179515Y3439193D01*
X3193134Y3430093D01*
X3208266Y3423825D01*
X3224330Y3420630D01*
X3227520D01*
Y3498780D01*
D02*
G37*
G36*
X3260000Y3370577D02*
Y3350000D01*
X3280577D01*
X3279228Y3355036D01*
X3275805Y3360964D01*
X3270964Y3365805D01*
X3265036Y3369228D01*
X3260000Y3370577D01*
D02*
G37*
G36*
X3250000D02*
X3244964Y3369228D01*
X3239036Y3365805D01*
X3234195Y3360964D01*
X3230772Y3355036D01*
X3229423Y3350000D01*
X3250000D01*
Y3370577D01*
D02*
G37*
G36*
X3155000D02*
Y3350000D01*
X3175577D01*
X3174228Y3355036D01*
X3170805Y3360964D01*
X3165964Y3365805D01*
X3160036Y3369228D01*
X3155000Y3370577D01*
D02*
G37*
G36*
X3145000D02*
X3139964Y3369228D01*
X3134036Y3365805D01*
X3129195Y3360964D01*
X3125772Y3355036D01*
X3124423Y3350000D01*
X3145000D01*
Y3370577D01*
D02*
G37*
G36*
X3050000D02*
Y3350000D01*
X3070577D01*
X3069228Y3355036D01*
X3065805Y3360964D01*
X3060964Y3365805D01*
X3055036Y3369228D01*
X3050000Y3370577D01*
D02*
G37*
G36*
X3040000D02*
X3034964Y3369228D01*
X3029036Y3365805D01*
X3024195Y3360964D01*
X3020772Y3355036D01*
X3019423Y3350000D01*
X3040000D01*
Y3370577D01*
D02*
G37*
G36*
X2945000D02*
Y3350000D01*
X2965577D01*
X2964228Y3355036D01*
X2960805Y3360964D01*
X2955964Y3365805D01*
X2950036Y3369228D01*
X2945000Y3370577D01*
D02*
G37*
G36*
X2935000D02*
X2929964Y3369228D01*
X2924036Y3365805D01*
X2919195Y3360964D01*
X2915772Y3355036D01*
X2914423Y3350000D01*
X2935000D01*
Y3370577D01*
D02*
G37*
G36*
X3280577Y3340000D02*
X3260000D01*
Y3319423D01*
X3265036Y3320772D01*
X3270964Y3324195D01*
X3275805Y3329036D01*
X3279228Y3334964D01*
X3280577Y3340000D01*
D02*
G37*
G36*
X3250000D02*
X3229423D01*
X3230772Y3334964D01*
X3234195Y3329036D01*
X3239036Y3324195D01*
X3244964Y3320772D01*
X3250000Y3319423D01*
Y3340000D01*
D02*
G37*
G36*
X3175577D02*
X3155000D01*
Y3319423D01*
X3160036Y3320772D01*
X3165964Y3324195D01*
X3170805Y3329036D01*
X3174228Y3334964D01*
X3175577Y3340000D01*
D02*
G37*
G36*
X3145000D02*
X3124423D01*
X3125772Y3334964D01*
X3129195Y3329036D01*
X3134036Y3324195D01*
X3139964Y3320772D01*
X3145000Y3319423D01*
Y3340000D01*
D02*
G37*
G36*
X3070577D02*
X3050000D01*
Y3319423D01*
X3055036Y3320772D01*
X3060964Y3324195D01*
X3065805Y3329036D01*
X3069228Y3334964D01*
X3070577Y3340000D01*
D02*
G37*
G36*
X3040000D02*
X3019423D01*
X3020772Y3334964D01*
X3024195Y3329036D01*
X3029036Y3324195D01*
X3034964Y3320772D01*
X3040000Y3319423D01*
Y3340000D01*
D02*
G37*
G36*
X2965577D02*
X2945000D01*
Y3319423D01*
X2950036Y3320772D01*
X2955964Y3324195D01*
X2960805Y3329036D01*
X2964228Y3334964D01*
X2965577Y3340000D01*
D02*
G37*
G36*
X2935000D02*
X2914423D01*
X2915772Y3334964D01*
X2919195Y3329036D01*
X2924036Y3324195D01*
X2929964Y3320772D01*
X2935000Y3319423D01*
Y3340000D01*
D02*
G37*
G36*
X3260000Y3270577D02*
Y3250000D01*
X3280577D01*
X3279228Y3255036D01*
X3275805Y3260964D01*
X3270964Y3265805D01*
X3265036Y3269228D01*
X3260000Y3270577D01*
D02*
G37*
G36*
X3250000D02*
X3244964Y3269228D01*
X3239036Y3265805D01*
X3234195Y3260964D01*
X3230772Y3255036D01*
X3229423Y3250000D01*
X3250000D01*
Y3270577D01*
D02*
G37*
G36*
X3155000D02*
Y3250000D01*
X3175577D01*
X3174228Y3255036D01*
X3170805Y3260964D01*
X3165964Y3265805D01*
X3160036Y3269228D01*
X3155000Y3270577D01*
D02*
G37*
G36*
X3145000D02*
X3139964Y3269228D01*
X3134036Y3265805D01*
X3129195Y3260964D01*
X3125772Y3255036D01*
X3124423Y3250000D01*
X3145000D01*
Y3270577D01*
D02*
G37*
G36*
X3050000D02*
Y3250000D01*
X3070577D01*
X3069228Y3255036D01*
X3065805Y3260964D01*
X3060964Y3265805D01*
X3055036Y3269228D01*
X3050000Y3270577D01*
D02*
G37*
G36*
X3040000D02*
X3034964Y3269228D01*
X3029036Y3265805D01*
X3024195Y3260964D01*
X3020772Y3255036D01*
X3019423Y3250000D01*
X3040000D01*
Y3270577D01*
D02*
G37*
G36*
X2945000D02*
Y3250000D01*
X2965577D01*
X2964228Y3255036D01*
X2960805Y3260964D01*
X2955964Y3265805D01*
X2950036Y3269228D01*
X2945000Y3270577D01*
D02*
G37*
G36*
X2935000D02*
X2929964Y3269228D01*
X2924036Y3265805D01*
X2919195Y3260964D01*
X2915772Y3255036D01*
X2914423Y3250000D01*
X2935000D01*
Y3270577D01*
D02*
G37*
G36*
X3280577Y3240000D02*
X3260000D01*
Y3219423D01*
X3265036Y3220772D01*
X3270964Y3224195D01*
X3275805Y3229036D01*
X3279228Y3234964D01*
X3280577Y3240000D01*
D02*
G37*
G36*
X3250000D02*
X3229423D01*
X3230772Y3234964D01*
X3234195Y3229036D01*
X3239036Y3224195D01*
X3244964Y3220772D01*
X3250000Y3219423D01*
Y3240000D01*
D02*
G37*
G36*
X3175577D02*
X3155000D01*
Y3219423D01*
X3160036Y3220772D01*
X3165964Y3224195D01*
X3170805Y3229036D01*
X3174228Y3234964D01*
X3175577Y3240000D01*
D02*
G37*
G36*
X3145000D02*
X3124423D01*
X3125772Y3234964D01*
X3129195Y3229036D01*
X3134036Y3224195D01*
X3139964Y3220772D01*
X3145000Y3219423D01*
Y3240000D01*
D02*
G37*
G36*
X3070577D02*
X3050000D01*
Y3219423D01*
X3055036Y3220772D01*
X3060964Y3224195D01*
X3065805Y3229036D01*
X3069228Y3234964D01*
X3070577Y3240000D01*
D02*
G37*
G36*
X3040000D02*
X3019423D01*
X3020772Y3234964D01*
X3024195Y3229036D01*
X3029036Y3224195D01*
X3034964Y3220772D01*
X3040000Y3219423D01*
Y3240000D01*
D02*
G37*
G36*
X2965577D02*
X2945000D01*
Y3219423D01*
X2950036Y3220772D01*
X2955964Y3224195D01*
X2960805Y3229036D01*
X2964228Y3234964D01*
X2965577Y3240000D01*
D02*
G37*
G36*
X2935000D02*
X2914423D01*
X2915772Y3234964D01*
X2919195Y3229036D01*
X2924036Y3224195D01*
X2929964Y3220772D01*
X2935000Y3219423D01*
Y3240000D01*
D02*
G37*
G36*
X3791306Y3578661D02*
Y3558083D01*
X3811883D01*
X3810534Y3563119D01*
X3807111Y3569048D01*
X3802270Y3573889D01*
X3796341Y3577312D01*
X3791306Y3578661D01*
D02*
G37*
G36*
X3781306D02*
X3776270Y3577312D01*
X3770341Y3573889D01*
X3765500Y3569048D01*
X3762077Y3563119D01*
X3760728Y3558083D01*
X3781306D01*
Y3578661D01*
D02*
G37*
G36*
X3686306D02*
Y3558083D01*
X3706883D01*
X3705534Y3563119D01*
X3702111Y3569048D01*
X3697270Y3573889D01*
X3691341Y3577312D01*
X3686306Y3578661D01*
D02*
G37*
G36*
X3676306D02*
X3671270Y3577312D01*
X3665341Y3573889D01*
X3660500Y3569048D01*
X3657077Y3563119D01*
X3655728Y3558083D01*
X3676306D01*
Y3578661D01*
D02*
G37*
G36*
X3811883Y3548083D02*
X3791306D01*
Y3527506D01*
X3796341Y3528855D01*
X3802270Y3532278D01*
X3807111Y3537119D01*
X3810534Y3543048D01*
X3811883Y3548083D01*
D02*
G37*
G36*
X3781306D02*
X3760728D01*
X3762077Y3543048D01*
X3765500Y3537119D01*
X3770341Y3532278D01*
X3776270Y3528855D01*
X3781306Y3527506D01*
Y3548083D01*
D02*
G37*
G36*
X3706883D02*
X3686306D01*
Y3527506D01*
X3691341Y3528855D01*
X3697270Y3532278D01*
X3702111Y3537119D01*
X3705534Y3543048D01*
X3706883Y3548083D01*
D02*
G37*
G36*
X3676306D02*
X3655728D01*
X3657077Y3543048D01*
X3660500Y3537119D01*
X3665341Y3532278D01*
X3671270Y3528855D01*
X3676306Y3527506D01*
Y3548083D01*
D02*
G37*
G36*
X3599134Y3586929D02*
X3520984D01*
Y3508780D01*
X3599134D01*
Y3586929D01*
D02*
G37*
G36*
X3510984D02*
X3432835D01*
Y3508780D01*
X3510984D01*
Y3586929D01*
D02*
G37*
G36*
X3791306Y3478661D02*
Y3458083D01*
X3811883D01*
X3810534Y3463119D01*
X3807111Y3469048D01*
X3802270Y3473889D01*
X3796341Y3477312D01*
X3791306Y3478661D01*
D02*
G37*
G36*
X3781306D02*
X3776270Y3477312D01*
X3770341Y3473889D01*
X3765500Y3469048D01*
X3762077Y3463119D01*
X3760728Y3458083D01*
X3781306D01*
Y3478661D01*
D02*
G37*
G36*
X3686306D02*
Y3458083D01*
X3706883D01*
X3705534Y3463119D01*
X3702111Y3469048D01*
X3697270Y3473889D01*
X3691341Y3477312D01*
X3686306Y3478661D01*
D02*
G37*
G36*
X3676306D02*
X3671270Y3477312D01*
X3665341Y3473889D01*
X3660500Y3469048D01*
X3657077Y3463119D01*
X3655728Y3458083D01*
X3676306D01*
Y3478661D01*
D02*
G37*
G36*
X3811883Y3448083D02*
X3791306D01*
Y3427506D01*
X3796341Y3428855D01*
X3802270Y3432278D01*
X3807111Y3437119D01*
X3810534Y3443048D01*
X3811883Y3448083D01*
D02*
G37*
G36*
X3781306D02*
X3760728D01*
X3762077Y3443048D01*
X3765500Y3437119D01*
X3770341Y3432278D01*
X3776270Y3428855D01*
X3781306Y3427506D01*
Y3448083D01*
D02*
G37*
G36*
X3706883D02*
X3686306D01*
Y3427506D01*
X3691341Y3428855D01*
X3697270Y3432278D01*
X3702111Y3437119D01*
X3705534Y3443048D01*
X3706883Y3448083D01*
D02*
G37*
G36*
X3676306D02*
X3655728D01*
X3657077Y3443048D01*
X3660500Y3437119D01*
X3665341Y3432278D01*
X3671270Y3428855D01*
X3676306Y3427506D01*
Y3448083D01*
D02*
G37*
G36*
X3599134Y3498780D02*
X3520984D01*
Y3420630D01*
X3599134D01*
Y3498780D01*
D02*
G37*
G36*
X3510984D02*
X3432835D01*
Y3420630D01*
X3510984D01*
Y3498780D01*
D02*
G37*
G36*
X3791306Y3368661D02*
Y3348083D01*
X3811883D01*
X3810534Y3353119D01*
X3807111Y3359048D01*
X3802270Y3363889D01*
X3796341Y3367312D01*
X3791306Y3368661D01*
D02*
G37*
G36*
X3781306D02*
X3776270Y3367312D01*
X3770341Y3363889D01*
X3765500Y3359048D01*
X3762077Y3353119D01*
X3760728Y3348083D01*
X3781306D01*
Y3368661D01*
D02*
G37*
G36*
X3686306D02*
Y3348083D01*
X3706883D01*
X3705534Y3353119D01*
X3702111Y3359048D01*
X3697270Y3363889D01*
X3691341Y3367312D01*
X3686306Y3368661D01*
D02*
G37*
G36*
X3676306D02*
X3671270Y3367312D01*
X3665341Y3363889D01*
X3660500Y3359048D01*
X3657077Y3353119D01*
X3655728Y3348083D01*
X3676306D01*
Y3368661D01*
D02*
G37*
G36*
X3581306D02*
Y3348083D01*
X3601883D01*
X3600534Y3353119D01*
X3597111Y3359048D01*
X3592270Y3363889D01*
X3586341Y3367312D01*
X3581306Y3368661D01*
D02*
G37*
G36*
X3571306D02*
X3566270Y3367312D01*
X3560341Y3363889D01*
X3555500Y3359048D01*
X3552077Y3353119D01*
X3550728Y3348083D01*
X3571306D01*
Y3368661D01*
D02*
G37*
G36*
X3476306D02*
Y3348083D01*
X3496883D01*
X3495534Y3353119D01*
X3492111Y3359048D01*
X3487270Y3363889D01*
X3481341Y3367312D01*
X3476306Y3368661D01*
D02*
G37*
G36*
X3466306D02*
X3461270Y3367312D01*
X3455341Y3363889D01*
X3450500Y3359048D01*
X3447077Y3353119D01*
X3445728Y3348083D01*
X3466306D01*
Y3368661D01*
D02*
G37*
G36*
X3811883Y3338083D02*
X3791306D01*
Y3317506D01*
X3796341Y3318855D01*
X3802270Y3322278D01*
X3807111Y3327119D01*
X3810534Y3333048D01*
X3811883Y3338083D01*
D02*
G37*
G36*
X3781306D02*
X3760728D01*
X3762077Y3333048D01*
X3765500Y3327119D01*
X3770341Y3322278D01*
X3776270Y3318855D01*
X3781306Y3317506D01*
Y3338083D01*
D02*
G37*
G36*
X3706883D02*
X3686306D01*
Y3317506D01*
X3691341Y3318855D01*
X3697270Y3322278D01*
X3702111Y3327119D01*
X3705534Y3333048D01*
X3706883Y3338083D01*
D02*
G37*
G36*
X3676306D02*
X3655728D01*
X3657077Y3333048D01*
X3660500Y3327119D01*
X3665341Y3322278D01*
X3671270Y3318855D01*
X3676306Y3317506D01*
Y3338083D01*
D02*
G37*
G36*
X3601883D02*
X3581306D01*
Y3317506D01*
X3586341Y3318855D01*
X3592270Y3322278D01*
X3597111Y3327119D01*
X3600534Y3333048D01*
X3601883Y3338083D01*
D02*
G37*
G36*
X3571306D02*
X3550728D01*
X3552077Y3333048D01*
X3555500Y3327119D01*
X3560341Y3322278D01*
X3566270Y3318855D01*
X3571306Y3317506D01*
Y3338083D01*
D02*
G37*
G36*
X3496883D02*
X3476306D01*
Y3317506D01*
X3481341Y3318855D01*
X3487270Y3322278D01*
X3492111Y3327119D01*
X3495534Y3333048D01*
X3496883Y3338083D01*
D02*
G37*
G36*
X3466306D02*
X3445728D01*
X3447077Y3333048D01*
X3450500Y3327119D01*
X3455341Y3322278D01*
X3461270Y3318855D01*
X3466306Y3317506D01*
Y3338083D01*
D02*
G37*
G36*
X3791306Y3268661D02*
Y3248083D01*
X3811883D01*
X3810534Y3253119D01*
X3807111Y3259048D01*
X3802270Y3263889D01*
X3796341Y3267312D01*
X3791306Y3268661D01*
D02*
G37*
G36*
X3781306D02*
X3776270Y3267312D01*
X3770341Y3263889D01*
X3765500Y3259048D01*
X3762077Y3253119D01*
X3760728Y3248083D01*
X3781306D01*
Y3268661D01*
D02*
G37*
G36*
X3686306D02*
Y3248083D01*
X3706883D01*
X3705534Y3253119D01*
X3702111Y3259048D01*
X3697270Y3263889D01*
X3691341Y3267312D01*
X3686306Y3268661D01*
D02*
G37*
G36*
X3676306D02*
X3671270Y3267312D01*
X3665341Y3263889D01*
X3660500Y3259048D01*
X3657077Y3253119D01*
X3655728Y3248083D01*
X3676306D01*
Y3268661D01*
D02*
G37*
G36*
X3581306D02*
Y3248083D01*
X3601883D01*
X3600534Y3253119D01*
X3597111Y3259048D01*
X3592270Y3263889D01*
X3586341Y3267312D01*
X3581306Y3268661D01*
D02*
G37*
G36*
X3571306D02*
X3566270Y3267312D01*
X3560341Y3263889D01*
X3555500Y3259048D01*
X3552077Y3253119D01*
X3550728Y3248083D01*
X3571306D01*
Y3268661D01*
D02*
G37*
G36*
X3476306D02*
Y3248083D01*
X3496883D01*
X3495534Y3253119D01*
X3492111Y3259048D01*
X3487270Y3263889D01*
X3481341Y3267312D01*
X3476306Y3268661D01*
D02*
G37*
G36*
X3466306D02*
X3461270Y3267312D01*
X3455341Y3263889D01*
X3450500Y3259048D01*
X3447077Y3253119D01*
X3445728Y3248083D01*
X3466306D01*
Y3268661D01*
D02*
G37*
G36*
X3811883Y3238083D02*
X3791306D01*
Y3217506D01*
X3796341Y3218855D01*
X3802270Y3222278D01*
X3807111Y3227119D01*
X3810534Y3233048D01*
X3811883Y3238083D01*
D02*
G37*
G36*
X3781306D02*
X3760728D01*
X3762077Y3233048D01*
X3765500Y3227119D01*
X3770341Y3222278D01*
X3776270Y3218855D01*
X3781306Y3217506D01*
Y3238083D01*
D02*
G37*
G36*
X3706883D02*
X3686306D01*
Y3217506D01*
X3691341Y3218855D01*
X3697270Y3222278D01*
X3702111Y3227119D01*
X3705534Y3233048D01*
X3706883Y3238083D01*
D02*
G37*
G36*
X3676306D02*
X3655728D01*
X3657077Y3233048D01*
X3660500Y3227119D01*
X3665341Y3222278D01*
X3671270Y3218855D01*
X3676306Y3217506D01*
Y3238083D01*
D02*
G37*
G36*
X3601883D02*
X3581306D01*
Y3217506D01*
X3586341Y3218855D01*
X3592270Y3222278D01*
X3597111Y3227119D01*
X3600534Y3233048D01*
X3601883Y3238083D01*
D02*
G37*
G36*
X3571306D02*
X3550728D01*
X3552077Y3233048D01*
X3555500Y3227119D01*
X3560341Y3222278D01*
X3566270Y3218855D01*
X3571306Y3217506D01*
Y3238083D01*
D02*
G37*
G36*
X3496883D02*
X3476306D01*
Y3217506D01*
X3481341Y3218855D01*
X3487270Y3222278D01*
X3492111Y3227119D01*
X3495534Y3233048D01*
X3496883Y3238083D01*
D02*
G37*
G36*
X3466306D02*
X3445728D01*
X3447077Y3233048D01*
X3450500Y3227119D01*
X3455341Y3222278D01*
X3461270Y3218855D01*
X3466306Y3217506D01*
Y3238083D01*
D02*
G37*
%LPD*%
D10*
X2870000Y602205D02*
D03*
Y740000D02*
D03*
D11*
X595000Y895236D02*
D03*
Y674764D02*
D03*
D12*
X1225000Y933228D02*
D03*
Y586772D02*
D03*
D13*
X700000Y1924606D02*
D03*
Y1875394D02*
D03*
D14*
X1338661Y1980000D02*
D03*
X1421339D02*
D03*
D15*
X1840000Y597047D02*
D03*
Y852953D02*
D03*
D16*
X2940000Y2676417D02*
D03*
Y2960000D02*
D03*
Y2887165D02*
D03*
Y2603583D02*
D03*
D17*
X3160000Y2675118D02*
D03*
Y2947559D02*
D03*
Y2892441D02*
D03*
Y2620000D02*
D03*
D18*
X1630537Y1680000D02*
D03*
X1569463D02*
D03*
D19*
X1626610Y1390000D02*
D03*
X1573390D02*
D03*
D20*
X765433Y1640000D02*
D03*
X694567D02*
D03*
D21*
X3583425Y791575D02*
X3650000D01*
X2700000Y1617500D02*
X2757500D01*
X3583425Y791575D01*
X2700000Y2117500D02*
X2742500Y2160000D01*
X3373346D02*
X3473346Y2060000D01*
X2742500Y2160000D02*
X3373346D01*
X2640000Y1657500D02*
X2700000Y1717500D01*
X2640000Y1151575D02*
Y1657500D01*
Y1151575D02*
X3200000Y591575D01*
X2665000Y1770000D02*
X2730000D01*
X3188425Y1311575D02*
X3200000D01*
X2730000Y1770000D02*
X3188425Y1311575D01*
X2645000Y1790000D02*
X2665000Y1770000D01*
X2645000Y1790000D02*
Y1862500D01*
X2700000Y1917500D01*
X2742500Y2060000D02*
X3377104D01*
X3427104Y2010000D01*
X2700000Y2017500D02*
X2742500Y2060000D01*
X3473346D02*
X3695000D01*
X3725000Y2030000D01*
Y1388150D02*
Y2030000D01*
X3650000Y1313150D02*
X3725000Y1388150D01*
X3427104Y2010000D02*
X3660000D01*
X3004350Y1817500D02*
X3200000Y2013150D01*
X2700000Y1817500D02*
X3004350D01*
X1634656Y1671202D02*
Y1685344D01*
X520000Y1380000D02*
Y1540000D01*
X705215Y1920291D02*
X705506Y1920000D01*
X850000D01*
X1338661Y1980000D02*
X1339331Y1979331D01*
X1260000Y1980000D02*
X1338661D01*
X2865000Y2675000D02*
X2938583D01*
X2860000Y2960000D02*
X2940000D01*
X2938583Y2675000D02*
X2940000Y2676417D01*
X3085000Y2675000D02*
X3159882D01*
X3157559Y2950000D02*
X3160000Y2947559D01*
X3159882Y2675000D02*
X3160000Y2675118D01*
X3080000Y2950000D02*
X3157559D01*
X1780000Y1380000D02*
Y1540000D01*
X1658477Y1661523D02*
X1780000Y1540000D01*
X3154724Y2887165D02*
X3160000Y2892441D01*
X3143583Y2603583D02*
X3160000Y2620000D01*
X2931142Y2887165D02*
X2940000D01*
X3154724D01*
X2940000Y2603583D02*
X3143583D01*
X2700000Y2717500D02*
X2761476D01*
X2931142Y2887165D01*
X2886083Y2603583D02*
X2940000D01*
X2700000Y2417500D02*
X2886083Y2603583D01*
X1644335Y1661523D02*
X1658477D01*
X1634656Y1671202D02*
X1644335Y1661523D01*
X695000Y1885000D02*
X699567Y1880433D01*
X700000Y1620778D02*
Y1825394D01*
X699567Y1824961D02*
X700000Y1825394D01*
X765433Y1640000D02*
X1170000D01*
X699567Y1824961D02*
Y1880433D01*
X720000Y1380000D02*
X846142Y1506142D01*
X1170000D01*
X1020000Y1706929D02*
X1173071Y1860000D01*
X1538925Y1710537D02*
Y1860000D01*
X1173071D02*
X1538925D01*
Y1710537D02*
X1569463Y1680000D01*
X1480000Y1980000D02*
X1538925Y1921075D01*
X1421339Y1980000D02*
X1480000D01*
X1538925Y1860000D02*
Y1921075D01*
D22*
X2865000Y760000D02*
Y762716D01*
X2798614Y826386D02*
X2843287Y781713D01*
X2865000Y760000D02*
X2895000D01*
X2843287Y781713D02*
X2846004D01*
X2865000Y762716D01*
X2395189Y826386D02*
X2798614D01*
X1845000Y890000D02*
X1869000Y866000D01*
X1949955Y1125045D02*
X2116181Y958819D01*
X2262756D01*
X2395189Y826386D01*
X1845000Y890000D02*
Y1115000D01*
D23*
X2870000Y460000D02*
Y602205D01*
X715000Y1168780D02*
Y1169055D01*
X595000Y1048780D02*
X715000Y1168780D01*
X595000Y1048780D02*
Y1169055D01*
X481075Y1162704D02*
X595000Y1048780D01*
X475000Y1165000D02*
X476148Y1163852D01*
X477296Y1162704D01*
X595000Y895236D02*
Y1048780D01*
Y521221D02*
Y671908D01*
X477296Y1162704D02*
X481075D01*
X1107296Y1097704D02*
X1111075D01*
X1105000Y1100000D02*
X1107296Y1097704D01*
X1342704D02*
X1345000Y1100000D01*
X1225000Y983779D02*
X1338925Y1097704D01*
X1342704D01*
X1225000Y983779D02*
Y1100000D01*
X1111075Y1097704D02*
X1225000Y983779D01*
X475000Y405000D02*
X477296Y407296D01*
X481075D01*
X708924D02*
X712704D01*
X481075D02*
X595000Y521221D01*
Y405000D02*
Y521221D01*
X708924Y407296D01*
X712704D02*
X715000Y405000D01*
X1107296Y422296D02*
Y427729D01*
X1105000Y420000D02*
X1107296Y422296D01*
Y427729D02*
X1199567Y520000D01*
X1225000Y420000D02*
Y520000D01*
Y545433D01*
X890000Y1570000D02*
X890765Y1570765D01*
X1017694D01*
X1020000Y1573071D01*
X1199567Y520000D02*
X1225000D01*
Y545433D02*
Y586772D01*
Y545433D02*
X1342704Y427729D01*
Y422296D02*
X1345000Y420000D01*
X1342704Y422296D02*
Y427729D01*
X1840000Y425000D02*
Y597047D01*
D24*
X1650000Y1380000D02*
X1780000D01*
X1640000Y1390000D02*
X1650000Y1380000D01*
D25*
X1286142Y1390000D02*
X1570665D01*
X1170000Y1506142D02*
X1286142Y1390000D01*
D26*
X3515984Y3503780D02*
D03*
X2587480D02*
D03*
D27*
X3108504Y3740000D02*
D03*
X3640000D02*
D03*
X2180000D02*
D03*
X2711496D02*
D03*
D28*
X3232520Y3503780D02*
D03*
X2304016D02*
D03*
D29*
X3650000Y890000D02*
D03*
X3200000Y1606850D02*
D03*
Y2308425D02*
D03*
X3650000Y1608425D02*
D03*
X3200000Y886850D02*
D03*
X3660000Y2305276D02*
D03*
D30*
X3650000Y791575D02*
D03*
Y693150D02*
D03*
Y594724D02*
D03*
X3200000Y1311575D02*
D03*
Y1508425D02*
D03*
Y1410000D02*
D03*
Y2013150D02*
D03*
Y2210000D02*
D03*
Y2111575D02*
D03*
X3650000Y1313150D02*
D03*
Y1510000D02*
D03*
Y1411575D02*
D03*
X3660000Y2206850D02*
D03*
Y2108425D02*
D03*
X3200000Y690000D02*
D03*
X3660000Y2010000D02*
D03*
X3200000Y591575D02*
D03*
Y788425D02*
D03*
D31*
X3571260Y952992D02*
D03*
X3121260Y1669842D02*
D03*
Y2371417D02*
D03*
X3571260Y1671417D02*
D03*
X3581260Y2368268D02*
D03*
X3121260Y949842D02*
D03*
D32*
X1078110Y3125039D02*
D03*
Y3825039D02*
D03*
X1076220Y2400000D02*
D03*
D33*
X1020000Y1439213D02*
D03*
Y1573071D02*
D03*
X1170000Y1640000D02*
D03*
Y1506142D02*
D03*
D34*
X520000Y1380000D02*
D03*
D35*
X1512244Y2300000D02*
D03*
X1520000Y3740000D02*
D03*
Y3020000D02*
D03*
X2300000Y3147756D02*
D03*
X2400000D02*
D03*
X1520000Y3120000D02*
D03*
Y3840000D02*
D03*
X1512244Y2400000D02*
D03*
D36*
X2100000Y2417500D02*
D03*
X2700000Y2617500D02*
D03*
Y1617500D02*
D03*
Y1917500D02*
D03*
Y2717500D02*
D03*
Y2517500D02*
D03*
Y2417500D02*
D03*
Y2317500D02*
D03*
Y2217500D02*
D03*
Y2117500D02*
D03*
Y2017500D02*
D03*
Y1817500D02*
D03*
Y1717500D02*
D03*
Y1517500D02*
D03*
Y1417500D02*
D03*
Y1317500D02*
D03*
X2100000D02*
D03*
Y1417500D02*
D03*
Y1517500D02*
D03*
Y1617500D02*
D03*
Y1717500D02*
D03*
Y1817500D02*
D03*
Y1917500D02*
D03*
Y2017500D02*
D03*
Y2117500D02*
D03*
Y2217500D02*
D03*
Y2317500D02*
D03*
Y2517500D02*
D03*
Y2617500D02*
D03*
D37*
Y2717500D02*
D03*
D38*
X1020000Y1706929D02*
D03*
D39*
X720000Y1380000D02*
D03*
D40*
X2500000Y3147756D02*
D03*
D41*
X1520000Y3220000D02*
D03*
Y3940000D02*
D03*
X1512244Y2500000D02*
D03*
D42*
X841890Y3125039D02*
D03*
Y3825039D02*
D03*
X840000Y2400000D02*
D03*
D43*
X960000Y3640000D02*
D03*
Y2940000D02*
D03*
X958110Y2214961D02*
D03*
D44*
X2870000Y460000D02*
D03*
X715000Y1169055D02*
D03*
X595000D02*
D03*
X476148Y1163852D02*
D03*
X3681306Y3553083D02*
D03*
X3786306D02*
D03*
X3681306Y3453083D02*
D03*
X3786306D02*
D03*
X3681306Y3343083D02*
D03*
X3786306D02*
D03*
X3681306Y3243083D02*
D03*
X3786306D02*
D03*
X3471306Y3343083D02*
D03*
X3576306D02*
D03*
X3471306Y3243083D02*
D03*
X3576306D02*
D03*
X1345000Y1100000D02*
D03*
X1225000D02*
D03*
X1105000D02*
D03*
X1020000Y1360000D02*
D03*
Y1240000D02*
D03*
Y1300000D02*
D03*
X3045000Y3555000D02*
D03*
X2940000D02*
D03*
Y3455000D02*
D03*
X3045000D02*
D03*
Y3345000D02*
D03*
X2940000D02*
D03*
Y3245000D02*
D03*
X3045000D02*
D03*
X3255000D02*
D03*
X3150000D02*
D03*
X3255000Y3345000D02*
D03*
X3150000D02*
D03*
X2000000Y3175000D02*
D03*
X2105000D02*
D03*
X2000000Y3075000D02*
D03*
X2105000D02*
D03*
X475000Y405000D02*
D03*
X595000D02*
D03*
X715000D02*
D03*
X1225000Y420000D02*
D03*
X1105000D02*
D03*
X520092Y1540499D02*
D03*
X890000Y1570000D02*
D03*
X1260000Y1980000D02*
D03*
X1345000Y420000D02*
D03*
X1840000Y425000D02*
D03*
X1675000Y2305000D02*
D03*
X1780000D02*
D03*
X1675000Y2205000D02*
D03*
X1780000D02*
D03*
Y2925000D02*
D03*
X1675000D02*
D03*
X1780000Y3025000D02*
D03*
X1675000D02*
D03*
X1765000Y3640000D02*
D03*
X1660000D02*
D03*
X1765000Y3740000D02*
D03*
X1660000D02*
D03*
X1832344Y1152115D02*
D03*
X1932344D02*
D03*
Y1252115D02*
D03*
Y1352115D02*
D03*
X1832344D02*
D03*
Y1252115D02*
D03*
D45*
X850000Y1920000D02*
D03*
X2865000Y2675000D02*
D03*
X2860000Y2960000D02*
D03*
X3085000Y2675000D02*
D03*
X3080000Y2950000D02*
D03*
%TF.MD5,a8f8bcba62d9449a12d0841ef8905bb8*%
M02*
