M48
;Layer_Color=9474304
;FILE_FORMAT=2:4
INCH
;TYPE=PLATED
T01F00S00C0.0120
T02F00S00C0.0160
T04F00S00C0.0354
T05F00S00C0.0360
T06F00S00C0.0394
T08F00S00C0.0433
T09F00S00C0.0472
T10F00S00C0.1063
;TYPE=NON_PLATED
T11F00S00C0.0433
%
T01
X028650Y026750
X030850
X030800Y029500
X028600Y029600
X008500Y019200
T02
X004750Y004050
X005950
X007150
X011050Y004200
X012250
X013450
Y011000
X012250
X011050
X010200Y012400
Y013000
Y013600
X007150Y011691
X005950
X004761Y011639
X005201Y015405
X018323Y013521
X019323
Y012521
Y011521
X018323
Y012521
X018400Y004250
X028700Y004600
X017800Y022050
Y023050
X016750
Y022050
Y029250
Y030250
X017800
Y029250
X020000Y030750
X021050
X012600Y019800
X008900Y015700
X020000Y031750
X021050
X017650Y036400
Y037400
X016600
Y036400
X029400Y035550
Y034550
X030450
Y035550
Y033450
Y032450
X029400
Y033450
X031500
Y032450
X032550
Y033450
X034713Y033431
Y032431
X035763
Y033431
X036813
Y032431
X037863
Y033431
Y034531
Y035531
X036813
Y034531
T04
X032000Y005916
Y006900
Y007884
Y008868
Y013116
Y014100
Y015084
X036500Y015100
Y014116
Y013132
Y008900
Y007916
Y006931
Y005947
Y016084
X036600Y020100
Y021084
Y022069
Y023053
X032000Y023084
Y022100
Y021116
Y020131
Y016069
T05
X021000Y013175
Y014175
Y015175
X027000
Y014175
Y013175
Y016175
Y017175
Y018175
Y019175
Y020175
Y021175
Y022175
Y023175
Y024175
Y025175
Y026175
Y027175
X021000
Y026175
Y025175
Y024175
Y023175
Y022175
Y021175
Y020175
Y019175
Y018175
Y017175
Y016175
T06
X005200Y013800
X007200
T08
X010200Y014392
X011700Y015061
Y016400
X010200Y017069
Y015731
T09
X015122Y023000
Y024000
Y025000
X015200Y030200
Y031200
Y032200
Y037400
Y038400
Y039400
X023000Y031478
X024000
X025000
T10
X023040Y035038
X025875
X032325
X035160
T11
X031213Y009498
X035713Y009530
Y016714
X035813Y023683
X031213Y023714
Y016698
M30
